<?xml version="1.0" standalone="no"?>
  <!DOCTYPE svg PUBLIC "-//W3C//DTD SVG 1.1//EN" "http://www.w3.org/Graphics/SVG/1.1/DTD/svg11.dtd" >
  <svg>
  <metadata>
  Created by font-carrier
  </metadata>
  <defs>
  <font id="Consolas" horiz-adv-x="1126" vert-adv-y="1126" >
    <font-face
      
      font-family="Consolas"
      
      font-weight="400"
      
      font-stretch="normal"
      
      units-per-em="2048"
      
      ascent="1521"
      
      descent="-527"
      
    />
      <missing-glyph />

      

      
      <glyph glyph-name="uni41" unicode="&#x41;" d="M1116 0L922 0L831 285L287 285L195 0L10 0L444 1307L688 1307L1116 0M780 444L559 1143L338 444L780 444Z"  horiz-adv-x="1126" vert-adv-y="2048"  />

      
      <glyph glyph-name="uni42" unicode="&#x42;" d="M1016 391Q1016 297 979.50 224.50Q943 152 875.50 102Q808 52 712.50 26Q617 0 500 0L158 0L158 1307L532 1307Q969 1307 969 989Q969 883 918.50 807Q868 731 754 694Q807 684 854.50 660Q902 636 938 598Q974 560 995 508Q1016 456 1016 391M784 965Q784 1005 772 1040.50Q760 1076 730 1101.50Q700 1127 649 1142Q598 1157 520 1157L336 1157L336 748L514 748Q575 748 624.50 761Q674 774 709.50 801Q745 828 764.50 868.50Q784 909 784 965M827 385Q827 435 806 475Q785 515 745 542.50Q705 570 647.50 585Q590 600 518 600L336 600L336 150L524 150Q677 150 752 207Q827 264 827 385Z"  horiz-adv-x="1126" vert-adv-y="2048"  />

      
      <glyph glyph-name="uni43" unicode="&#x43;" d="M995 49Q838-16 666-16Q389-16 240.50 149.50Q92 315 92 639Q92 796 133 923Q174 1050 250 1138.50Q326 1227 434 1275Q542 1323 676 1323Q767 1323 845 1307.50Q923 1292 995 1260L995 1085Q924 1124 848 1144.50Q772 1165 682 1165Q590 1165 515.50 1130.50Q441 1096 389 1030.50Q337 965 309 870.50Q281 776 281 655Q281 401 384 272Q487 143 686 143Q770 143 847 162.50Q924 182 995 217L995 49Z"  horiz-adv-x="1126" vert-adv-y="2048"  />

      
      <glyph glyph-name="uni44" unicode="&#x44;" d="M1053 668Q1053 574 1038.50 488Q1024 402 992 328Q960 254 909 193.50Q858 133 784 90Q710 47 612 23.50Q514 0 389 0L109 0L109 1307L446 1307Q752 1307 902.50 1149.50Q1053 992 1053 668M866 655Q866 794 840 890Q814 986 761 1045Q708 1104 628 1130.50Q548 1157 440 1157L287 1157L287 154L420 154Q866 154 866 655Z"  horiz-adv-x="1126" vert-adv-y="2048"  />

      
      <glyph glyph-name="uni45" unicode="&#x45;" d="M944 0L201 0L201 1307L944 1307L944 1157L379 1157L379 752L922 752L922 602L379 602L379 152L944 152L944 0Z"  horiz-adv-x="1126" vert-adv-y="2048"  />

      
      <glyph glyph-name="uni46" unicode="&#x46;" d="M942 1155L387 1155L387 731L913 731L913 582L387 582L387 0L205 0L205 1307L942 1307L942 1155Z"  horiz-adv-x="1126" vert-adv-y="2048"  />

      
      <glyph glyph-name="uni47" unicode="&#x47;" d="M1006 1083Q933 1122 856 1143.50Q779 1165 688 1165Q584 1165 503 1128Q422 1091 366.50 1023.50Q311 956 281.50 861Q252 766 252 651Q252 531 276 436Q300 341 351 275Q402 209 481.50 174Q561 139 672 139Q691 139 713 141Q735 143 757 146.50Q779 150 799.50 155Q820 160 836 166L836 582L569 582L569 729L1012 729L1012 61Q971 42 925.50 27Q880 12 832.50 2Q785-8 738-13Q691-18 647-18Q513-18 405.50 24Q298 66 222.50 148.50Q147 231 106.50 354Q66 477 66 639Q66 800 111 927.50Q156 1055 237.50 1143.50Q319 1232 433.50 1278.50Q548 1325 686 1325Q774 1325 853.50 1309.50Q933 1294 1006 1260L1006 1083Z"  horiz-adv-x="1126" vert-adv-y="2048"  />

      
      <glyph glyph-name="uni48" unicode="&#x48;" d="M1016 0L838 0L838 600L289 600L289 0L111 0L111 1307L289 1307L289 754L838 754L838 1307L1016 1307L1016 0Z"  horiz-adv-x="1126" vert-adv-y="2048"  />

      
      <glyph glyph-name="uni49" unicode="&#x49;" d="M473 1157L172 1157L172 1307L954 1307L954 1157L653 1157L653 152L954 152L954 0L172 0L172 152L473 152L473 1157Z"  horiz-adv-x="1126" vert-adv-y="2048"  />

      
      <glyph glyph-name="uni4a" unicode="&#x4a;" d="M877 1307L877 399Q877 315 852 239.50Q827 164 776 108Q725 52 648 19Q571-14 467-14Q428-14 387.50-8.50Q347-3 309.50 6.50Q272 16 239 29.50Q206 43 182 59L182 238Q244 193 319.50 167Q395 141 469 141Q578 141 637 207.50Q696 274 696 399L696 1153L199 1153L199 1307L877 1307Z"  horiz-adv-x="1126" vert-adv-y="2048"  />

      
      <glyph glyph-name="uni4b" unicode="&#x4b;" d="M1047 0L823 0L334 641L334 0L156 0L156 1307L334 1307L334 700L813 1307L1024 1307L508 686L1047 0Z"  horiz-adv-x="1126" vert-adv-y="2048"  />

      
      <glyph glyph-name="uni4c" unicode="&#x4c;" d="M985 0L233 0L233 1307L414 1307L414 152L985 152L985 0Z"  horiz-adv-x="1126" vert-adv-y="2048"  />

      
      <glyph glyph-name="uni4d" unicode="&#x4d;" d="M1077 0L903 0L877 815L866 1128L805 946L612 426L489 426L305 926L244 1128L240 801L217 0L49 0L113 1307L324 1307L500 815L557 649L612 815L797 1307L1014 1307L1077 0Z"  horiz-adv-x="1126" vert-adv-y="2048"  />

      
      <glyph glyph-name="uni4e" unicode="&#x4e;" d="M1008 0L776 0L395 815L285 1077L285 418L285 0L119 0L119 1307L348 1307L711 535L842 236L842 936L842 1307L1008 1307L1008 0Z"  horiz-adv-x="1126" vert-adv-y="2048"  />

      
      <glyph glyph-name="uni4f" unicode="&#x4f;" d="M1071 662Q1071 486 1029.50 358Q988 230 917.50 146.50Q847 63 752.50 22.50Q658-18 553-18Q427-18 333.50 27.50Q240 73 178.50 159Q117 245 87 368.50Q57 492 57 647Q57 821 98 949Q139 1077 209.50 1160.50Q280 1244 374 1284.50Q468 1325 573 1325Q699 1325 792.50 1279Q886 1233 948 1147.50Q1010 1062 1040.50 939Q1071 816 1071 662M886 649Q886 764 868.50 859.50Q851 955 812 1024Q773 1093 711.50 1131Q650 1169 563 1169Q479 1169 418.50 1128.50Q358 1088 319 1018.50Q280 949 261 855.50Q242 762 242 657Q242 541 260 445.50Q278 350 316.50 281.50Q355 213 416 175Q477 137 563 137Q647 137 708 177.50Q769 218 808.50 287.50Q848 357 867 450Q886 543 886 649Z"  horiz-adv-x="1126" vert-adv-y="2048"  />

      
      <glyph glyph-name="uni50" unicode="&#x50;" d="M1016 907Q1016 827 986 748.50Q956 670 893 608Q830 546 732 507.50Q634 469 498 469L336 469L336 0L158 0L158 1307L526 1307Q623 1307 712 1285.50Q801 1264 868.50 1216Q936 1168 976 1092Q1016 1016 1016 907M831 899Q831 1025 748.50 1092Q666 1159 518 1159L336 1159L336 621L502 621Q660 621 745.50 690Q831 759 831 899Z"  horiz-adv-x="1126" vert-adv-y="2048"  />

      
      <glyph glyph-name="uni51" unicode="&#x51;" d="M467-12Q363 3 286 54Q209 105 158 188.50Q107 272 82 385.50Q57 499 57 637Q57 815 98 945Q139 1075 209.50 1159.50Q280 1244 374 1284.50Q468 1325 573 1325Q699 1325 792.50 1279.50Q886 1234 948 1148.50Q1010 1063 1040.50 941.50Q1071 820 1071 668Q1071 508 1037 387.50Q1003 267 944 183Q885 99 805 51Q725 3 633-12Q648-100 703-153.50Q758-207 858-207Q906-207 952.50-191Q999-175 1047-137L1126-260Q1060-314 990-337Q920-360 846-360Q766-360 699-338Q632-316 582.50-272.50Q533-229 503-163.50Q473-98 467-12M886 647Q886 763 868.50 858.50Q851 954 812 1022.50Q773 1091 711.50 1129Q650 1167 563 1167Q479 1167 418.50 1127Q358 1087 319 1018.50Q280 950 261 858.50Q242 767 242 664Q242 545 260 448.50Q278 352 316.50 283Q355 214 416 176.50Q477 139 563 139Q647 139 708 179Q769 219 808.50 288Q848 357 867 449.50Q886 542 886 647Z"  horiz-adv-x="1126" vert-adv-y="2048"  />

      
      <glyph glyph-name="uni52" unicode="&#x52;" d="M1051 0L850 0L655 418Q633 466 610 497.50Q587 529 560.50 547.50Q534 566 502.50 574Q471 582 432 582L348 582L348 0L170 0L170 1307L520 1307Q634 1307 716 1282Q798 1257 850.50 1212Q903 1167 927.50 1103.50Q952 1040 952 963Q952 902 934 847.50Q916 793 880.50 748.50Q845 704 792.50 671.50Q740 639 672 623Q727 604 765.50 556.50Q804 509 844 430L1051 0M766 948Q766 1053 700.50 1105Q635 1157 516 1157L348 1157L348 725L492 725Q555 725 605.50 739.50Q656 754 691.50 782.50Q727 811 746.50 852.50Q766 894 766 948Z"  horiz-adv-x="1126" vert-adv-y="2048"  />

      
      <glyph glyph-name="uni53" unicode="&#x53;" d="M997 354Q997 261 959 191Q921 121 853 74.50Q785 28 689.50 5Q594-18 479-18Q427-18 375.50-14Q324-10 276.50-4Q229 2 187 10Q145 18 111 27L111 199Q186 171 279.50 155Q373 139 492 139Q578 139 638.50 152.50Q699 166 737.50 192.50Q776 219 793.50 257Q811 295 811 344Q811 397 781.50 434.50Q752 472 704 501.50Q656 531 594.50 555.50Q533 580 469 606Q405 632 343.50 662.50Q282 693 234 734.50Q186 776 156.50 832Q127 888 127 965Q127 1032 155 1097Q183 1162 242 1212.50Q301 1263 393.50 1294Q486 1325 614 1325Q647 1325 685.50 1322Q724 1319 763.50 1313.50Q803 1308 841.50 1301Q880 1294 913 1286L913 1126Q836 1148 759 1159.50Q682 1171 610 1171Q457 1171 385 1120Q313 1069 313 983Q313 930 342.50 892Q372 854 420 824Q468 794 529.50 769.50Q591 745 655 719Q719 693 780.50 662Q842 631 890 588.50Q938 546 967.50 489Q997 432 997 354Z"  horiz-adv-x="1126" vert-adv-y="2048"  />

      
      <glyph glyph-name="uni54" unicode="&#x54;" d="M1040 1155L653 1155L653 0L473 0L473 1155L86 1155L86 1307L1040 1307L1040 1155Z"  horiz-adv-x="1126" vert-adv-y="2048"  />

      
      <glyph glyph-name="uni55" unicode="&#x55;" d="M1018 455Q1018 347 987.50 259.50Q957 172 898 110.50Q839 49 753.50 15.50Q668-18 557-18Q435-18 350 14Q265 46 211.50 104.50Q158 163 133.50 245Q109 327 109 428L109 1307L287 1307L287 442Q287 365 301.50 307Q316 249 349 210Q382 171 434.50 151Q487 131 563 131Q705 131 772.50 213Q840 295 840 444L840 1307L1018 1307L1018 455Z"  horiz-adv-x="1126" vert-adv-y="2048"  />

      
      <glyph glyph-name="uni56" unicode="&#x56;" d="M1122 1307L678 0L438 0L4 1307L205 1307L487 426L567 168L649 426L932 1307L1122 1307Z"  horiz-adv-x="1126" vert-adv-y="2048"  />

      
      <glyph glyph-name="uni57" unicode="&#x57;" d="M1081 1307L993 0L762 0L600 465L555 614L508 453L358 0L135 0L45 1307L213 1307L264 418L279 174L342 381L500 866L623 866L805 346L866 174L870 354L922 1307L1081 1307Z"  horiz-adv-x="1126" vert-adv-y="2048"  />

      
      <glyph glyph-name="uni58" unicode="&#x58;" d="M1102 0L877 0L559 528L240 0L18 0L453 668L53 1307L264 1307L563 815L864 1307L1069 1307L668 676L1102 0Z"  horiz-adv-x="1126" vert-adv-y="2048"  />

      
      <glyph glyph-name="uni59" unicode="&#x59;" d="M1126 1307L653 467L653 0L473 0L473 471L0 1307L215 1307L475 829L571 637L659 811L922 1307L1126 1307Z"  horiz-adv-x="1126" vert-adv-y="2048"  />

      
      <glyph glyph-name="uni5a" unicode="&#x5a;" d="M1001 1167L334 166L1014 166L1014 0L111 0L111 133L782 1145L129 1145L129 1307L1001 1307L1001 1167Z"  horiz-adv-x="1126" vert-adv-y="2048"  />

      
      <glyph glyph-name="unic0" unicode="&#xc0;" d="M1116 0L922 0L831 285L287 285L195 0L10 0L444 1307L688 1307L1116 0M780 444L559 1143L338 444L780 444M668 1446L489 1446L205 1659L457 1659L668 1446M0 1307Z"  horiz-adv-x="1126" vert-adv-y="2048"  />

      
      <glyph glyph-name="unic1" unicode="&#xc1;" d="M1116 0L922 0L831 285L287 285L195 0L10 0L444 1307L688 1307L1116 0M780 444L559 1143L338 444L780 444M922 1659L637 1446L459 1446L670 1659L922 1659M0 1307Z"  horiz-adv-x="1126" vert-adv-y="2048"  />

      
      <glyph glyph-name="unic2" unicode="&#xc2;" d="M1116 0L922 0L831 285L287 285L195 0L10 0L444 1307L688 1307L1116 0M780 444L559 1143L338 444L780 444M879 1446L696 1446L561 1548L426 1446L248 1446L479 1659L647 1659L879 1446M0 1307Z"  horiz-adv-x="1126" vert-adv-y="2048"  />

      
      <glyph glyph-name="unic3" unicode="&#xc3;" d="M1116 0L922 0L831 285L287 285L195 0L10 0L444 1307L688 1307L1116 0M780 444L559 1143L338 444L780 444M201 1526Q244 1598 298.50 1634.50Q353 1671 422 1671Q480 1671 520 1654Q560 1637 591 1617Q622 1597 649.50 1580Q677 1563 711 1563Q751 1563 781.50 1590.50Q812 1618 840 1661L926 1579Q882 1507 828 1470.50Q774 1434 705 1434Q646 1434 606.50 1451Q567 1468 536 1488Q505 1508 477.50 1525Q450 1542 416 1542Q375 1542 345 1514.50Q315 1487 287 1444L201 1526M0 1307Z"  horiz-adv-x="1126" vert-adv-y="2048"  />

      
      <glyph glyph-name="unic4" unicode="&#xc4;" d="M1116 0L922 0L831 285L287 285L195 0L10 0L444 1307L688 1307L1116 0M780 444L559 1143L338 444L780 444M344 1659Q366 1659 385.50 1650.50Q405 1642 419.50 1628Q434 1614 442.50 1594Q451 1574 451 1552Q451 1530 442.50 1510.50Q434 1491 419.50 1477Q405 1463 385.50 1454.50Q366 1446 344 1446Q299 1446 268.50 1476.50Q238 1507 238 1552Q238 1574 246.50 1594Q255 1614 269 1628Q283 1642 302.50 1650.50Q322 1659 344 1659M782 1659Q804 1659 824 1650.50Q844 1642 858 1628Q872 1614 880.50 1594Q889 1574 889 1552Q889 1530 880.50 1510.50Q872 1491 858 1477Q844 1463 824 1454.50Q804 1446 782 1446Q737 1446 706.50 1476.50Q676 1507 676 1552Q676 1574 684.50 1594Q693 1614 707 1628Q721 1642 740.50 1650.50Q760 1659 782 1659M0 1307Z"  horiz-adv-x="1126" vert-adv-y="2048"  />

      
      <glyph glyph-name="uni0100" unicode="&#x0100;" d="M1116 0L922 0L831 285L287 285L195 0L10 0L444 1307L688 1307L1116 0M780 444L559 1143L338 444L780 444M846 1483L281 1483L281 1616L846 1616L846 1483M0 1307Z"  horiz-adv-x="1126" vert-adv-y="2048"  />

      
      <glyph glyph-name="uni0102" unicode="&#x0102;" d="M1116 0L922 0L831 285L287 285L195 0L10 0L444 1307L688 1307L1116 0M780 444L559 1143L338 444L780 444M829 1665Q829 1604 807.50 1560.50Q786 1517 749.50 1489Q713 1461 664.50 1447.50Q616 1434 563 1434Q510 1434 462 1447.50Q414 1461 377 1489Q340 1517 318.50 1560.50Q297 1604 297 1665L434 1665Q434 1614 467.50 1588.50Q501 1563 563 1563Q625 1563 658.50 1588.50Q692 1614 692 1665L829 1665M0 1307Z"  horiz-adv-x="1126" vert-adv-y="2048"  />

      
      <glyph glyph-name="unic5" unicode="&#xc5;" d="M1116 0L922 0L831 285L287 285L195 0L10 0L444 1307L688 1307L1116 0M780 444L559 1143L338 444L780 444M563 1740Q606 1740 643 1726.50Q680 1713 707 1687.50Q734 1662 749 1627Q764 1592 764 1550Q764 1509 749 1473.50Q734 1438 707 1412.50Q680 1387 643 1372.50Q606 1358 563 1358Q520 1358 483.50 1372.50Q447 1387 420 1412.50Q393 1438 377.50 1473.50Q362 1509 362 1550Q362 1592 377.50 1627Q393 1662 420 1687.50Q447 1713 483.50 1726.50Q520 1740 563 1740M563 1638Q523 1638 498 1614.50Q473 1591 473 1550Q473 1510 498 1485Q523 1460 563 1460Q605 1460 629 1485Q653 1510 653 1550Q653 1591 629 1614.50Q605 1638 563 1638M0 1307Z"  horiz-adv-x="1126" vert-adv-y="2048"  />

      
      <glyph glyph-name="uni01FA" unicode="&#x01FA;" d="M1116 0L922 0L831 285L287 285L195 0L10 0L444 1307L688 1307L1116 0M780 444L559 1143L338 444L780 444M562 1711Q608 1711 648 1699Q688 1687 716.50 1663.50Q745 1640 760 1607Q775 1574 775 1535Q775 1497 759 1463.50Q743 1430 714.50 1406.50Q686 1383 646.50 1370Q607 1357 562 1357Q515 1357 476.50 1369.50Q438 1382 408.50 1405.50Q379 1429 363.50 1462.50Q348 1496 348 1535Q348 1573 364 1605.50Q380 1638 409.50 1661.50Q439 1685 477.50 1698Q516 1711 562 1711M562 1616Q519 1616 492.50 1594Q466 1572 466 1535Q466 1498 492.50 1475Q519 1452 562 1452Q606 1452 631.50 1475Q657 1498 657 1535Q657 1572 631.50 1594Q606 1616 562 1616M957 1950L687 1760L518 1760L718 1950L957 1950M0 1307Z"  horiz-adv-x="1126" vert-adv-y="2048"  />

      
      <glyph glyph-name="uni0104" unicode="&#x0104;" d="M1131-375Q1106-380 1075.50-382.50Q1045-385 1020-385Q912-385 856.50-339Q801-293 801-221Q801-198 805.50-175Q810-152 823-126Q836-100 859.50-69Q883-38 922 0L831 285L287 285L195 0L10 0L444 1307L688 1307L1116 0L1078 0Q1042-36 1020-63.50Q998-91 986-113Q974-135 969.50-154.50Q965-174 965-193Q965-225 986.50-245.50Q1008-266 1061-266Q1075-266 1094.50-265Q1114-264 1131-262L1131-375M780 444L559 1143L338 444L780 444Z"  horiz-adv-x="1126" vert-adv-y="2048"  />

      
      <glyph glyph-name="unic6" unicode="&#xc6;" d="M1085 0L584 0L584 281L242 281L133 0L-43 0L489 1307L1071 1307L1071 1165L750 1165L750 748L1057 748L1057 606L750 606L750 143L1085 143L1085 0M584 424L584 1167L297 424L584 424Z"  horiz-adv-x="1126" vert-adv-y="2048"  />

      
      <glyph glyph-name="uni01FC" unicode="&#x01FC;" d="M1085 0L584 0L584 281L242 281L133 0L-43 0L489 1307L1071 1307L1071 1165L750 1165L750 748L1057 748L1057 606L750 606L750 143L1085 143L1085 0M584 424L584 1167L297 424L584 424M983 1659L698 1446L520 1446L731 1659L983 1659M61 1307Z"  horiz-adv-x="1126" vert-adv-y="2048"  />

      
      <glyph glyph-name="uni0106" unicode="&#x0106;" d="M995 49Q838-16 666-16Q389-16 240.50 149.50Q92 315 92 639Q92 796 133 923Q174 1050 250 1138.50Q326 1227 434 1275Q542 1323 676 1323Q767 1323 845 1307.50Q923 1292 995 1260L995 1085Q924 1124 848 1144.50Q772 1165 682 1165Q590 1165 515.50 1130.50Q441 1096 389 1030.50Q337 965 309 870.50Q281 776 281 655Q281 401 384 272Q487 143 686 143Q770 143 847 162.50Q924 182 995 217L995 49M983 1659L698 1446L520 1446L731 1659L983 1659M61 1307Z"  horiz-adv-x="1126" vert-adv-y="2048"  />

      
      <glyph glyph-name="uni0108" unicode="&#x0108;" d="M995 49Q838-16 666-16Q389-16 240.50 149.50Q92 315 92 639Q92 796 133 923Q174 1050 250 1138.50Q326 1227 434 1275Q542 1323 676 1323Q767 1323 845 1307.50Q923 1292 995 1260L995 1085Q924 1124 848 1144.50Q772 1165 682 1165Q590 1165 515.50 1130.50Q441 1096 389 1030.50Q337 965 309 870.50Q281 776 281 655Q281 401 384 272Q487 143 686 143Q770 143 847 162.50Q924 182 995 217L995 49M940 1446L757 1446L622 1548L487 1446L309 1446L540 1659L708 1659L940 1446M61 1307Z"  horiz-adv-x="1126" vert-adv-y="2048"  />

      
      <glyph glyph-name="uni010C" unicode="&#x010C;" d="M995 49Q838-16 666-16Q389-16 240.50 149.50Q92 315 92 639Q92 796 133 923Q174 1050 250 1138.50Q326 1227 434 1275Q542 1323 676 1323Q767 1323 845 1307.50Q923 1292 995 1260L995 1085Q924 1124 848 1144.50Q772 1165 682 1165Q590 1165 515.50 1130.50Q441 1096 389 1030.50Q337 965 309 870.50Q281 776 281 655Q281 401 384 272Q487 143 686 143Q770 143 847 162.50Q924 182 995 217L995 49M309 1659L491 1659L626 1556L761 1659L940 1659L708 1446L540 1446L309 1659M61 1307Z"  horiz-adv-x="1126" vert-adv-y="2048"  />

      
      <glyph glyph-name="uni010A" unicode="&#x010A;" d="M995 49Q838-16 666-16Q389-16 240.50 149.50Q92 315 92 639Q92 796 133 923Q174 1050 250 1138.50Q326 1227 434 1275Q542 1323 676 1323Q767 1323 845 1307.50Q923 1292 995 1260L995 1085Q924 1124 848 1144.50Q772 1165 682 1165Q590 1165 515.50 1130.50Q441 1096 389 1030.50Q337 965 309 870.50Q281 776 281 655Q281 401 384 272Q487 143 686 143Q770 143 847 162.50Q924 182 995 217L995 49M497 1552Q497 1578 507 1601Q517 1624 534 1641.50Q551 1659 574 1669Q597 1679 624 1679Q651 1679 674 1669Q697 1659 714.50 1641.50Q732 1624 741.50 1601Q751 1578 751 1552Q751 1526 741.50 1503Q732 1480 714.50 1462.50Q697 1445 674 1435Q651 1425 624 1425Q597 1425 574 1435Q551 1445 534 1462.50Q517 1480 507 1503Q497 1526 497 1552M61 1307Z"  horiz-adv-x="1126" vert-adv-y="2048"  />

      
      <glyph glyph-name="unic7" unicode="&#xc7;" d="M995 49Q836-16 676-16L594-295L442-295L508 0Q306 41 199 204.50Q92 368 92 639Q92 796 133 923Q174 1050 250 1138.50Q326 1227 434 1275Q542 1323 676 1323Q767 1323 845 1307.50Q923 1292 995 1260L995 1085Q924 1124 848 1144.50Q772 1165 682 1165Q590 1165 515.50 1130.50Q441 1096 389 1030.50Q337 965 309 870.50Q281 776 281 655Q281 403 384 273Q487 143 686 143Q770 143 847 162.50Q924 182 995 217L995 49Z"  horiz-adv-x="1126" vert-adv-y="2048"  />

      
      <glyph glyph-name="uni010E" unicode="&#x010E;" d="M1053 668Q1053 574 1038.50 488Q1024 402 992 328Q960 254 909 193.50Q858 133 784 90Q710 47 612 23.50Q514 0 389 0L109 0L109 1307L446 1307Q752 1307 902.50 1149.50Q1053 992 1053 668M866 655Q866 794 840 890Q814 986 761 1045Q708 1104 628 1130.50Q548 1157 440 1157L287 1157L287 154L420 154Q866 154 866 655M209 1659L391 1659L526 1556L661 1659L840 1659L608 1446L440 1446L209 1659M-39 1307Z"  horiz-adv-x="1126" vert-adv-y="2048"  />

      
      <glyph glyph-name="unid0" unicode="&#xd0;" d="M139 1307L457 1307Q762 1307 907.50 1149.50Q1053 992 1053 668Q1053 574 1039.50 488Q1026 402 995 328Q964 254 914 193.50Q864 133 791.50 90Q719 47 621.50 23.50Q524 0 399 0L139 0L139 602L0 602L0 752L139 752L139 1307M317 154L430 154Q653 154 759.50 279.50Q866 405 866 655Q866 794 841.50 890Q817 986 766 1045Q715 1104 636.50 1130.50Q558 1157 451 1157L317 1157L317 752L543 752L543 602L317 602L317 154Z"  horiz-adv-x="1126" vert-adv-y="2048"  />

      
      <glyph glyph-name="uni0110" unicode="&#x0110;" d="M139 1307L457 1307Q762 1307 907.50 1149.50Q1053 992 1053 668Q1053 574 1039.50 488Q1026 402 995 328Q964 254 914 193.50Q864 133 791.50 90Q719 47 621.50 23.50Q524 0 399 0L139 0L139 602L0 602L0 752L139 752L139 1307M317 154L430 154Q653 154 759.50 279.50Q866 405 866 655Q866 794 841.50 890Q817 986 766 1045Q715 1104 636.50 1130.50Q558 1157 451 1157L317 1157L317 752L543 752L543 602L317 602L317 154Z"  horiz-adv-x="1126" vert-adv-y="2048"  />

      
      <glyph glyph-name="unic8" unicode="&#xc8;" d="M944 0L201 0L201 1307L944 1307L944 1157L379 1157L379 752L922 752L922 602L379 602L379 152L944 152L944 0M668 1446L489 1446L205 1659L457 1659L668 1446M0 1307Z"  horiz-adv-x="1126" vert-adv-y="2048"  />

      
      <glyph glyph-name="unic9" unicode="&#xc9;" d="M944 0L201 0L201 1307L944 1307L944 1157L379 1157L379 752L922 752L922 602L379 602L379 152L944 152L944 0M922 1659L637 1446L459 1446L670 1659L922 1659M0 1307Z"  horiz-adv-x="1126" vert-adv-y="2048"  />

      
      <glyph glyph-name="unica" unicode="&#xca;" d="M944 0L201 0L201 1307L944 1307L944 1157L379 1157L379 752L922 752L922 602L379 602L379 152L944 152L944 0M879 1446L696 1446L561 1548L426 1446L248 1446L479 1659L647 1659L879 1446M0 1307Z"  horiz-adv-x="1126" vert-adv-y="2048"  />

      
      <glyph glyph-name="uni011A" unicode="&#x011A;" d="M944 0L201 0L201 1307L944 1307L944 1157L379 1157L379 752L922 752L922 602L379 602L379 152L944 152L944 0M248 1659L430 1659L565 1556L700 1659L879 1659L647 1446L479 1446L248 1659M0 1307Z"  horiz-adv-x="1126" vert-adv-y="2048"  />

      
      <glyph glyph-name="unicb" unicode="&#xcb;" d="M944 0L201 0L201 1307L944 1307L944 1157L379 1157L379 752L922 752L922 602L379 602L379 152L944 152L944 0M344 1659Q366 1659 385.50 1650.50Q405 1642 419.50 1628Q434 1614 442.50 1594Q451 1574 451 1552Q451 1530 442.50 1510.50Q434 1491 419.50 1477Q405 1463 385.50 1454.50Q366 1446 344 1446Q299 1446 268.50 1476.50Q238 1507 238 1552Q238 1574 246.50 1594Q255 1614 269 1628Q283 1642 302.50 1650.50Q322 1659 344 1659M782 1659Q804 1659 824 1650.50Q844 1642 858 1628Q872 1614 880.50 1594Q889 1574 889 1552Q889 1530 880.50 1510.50Q872 1491 858 1477Q844 1463 824 1454.50Q804 1446 782 1446Q737 1446 706.50 1476.50Q676 1507 676 1552Q676 1574 684.50 1594Q693 1614 707 1628Q721 1642 740.50 1650.50Q760 1659 782 1659M0 1307Z"  horiz-adv-x="1126" vert-adv-y="2048"  />

      
      <glyph glyph-name="uni0112" unicode="&#x0112;" d="M944 0L201 0L201 1307L944 1307L944 1157L379 1157L379 752L922 752L922 602L379 602L379 152L944 152L944 0M846 1483L281 1483L281 1616L846 1616L846 1483M0 1307Z"  horiz-adv-x="1126" vert-adv-y="2048"  />

      
      <glyph glyph-name="uni0114" unicode="&#x0114;" d="M944 0L201 0L201 1307L944 1307L944 1157L379 1157L379 752L922 752L922 602L379 602L379 152L944 152L944 0M829 1665Q829 1604 807.50 1560.50Q786 1517 749.50 1489Q713 1461 664.50 1447.50Q616 1434 563 1434Q510 1434 462 1447.50Q414 1461 377 1489Q340 1517 318.50 1560.50Q297 1604 297 1665L434 1665Q434 1614 467.50 1588.50Q501 1563 563 1563Q625 1563 658.50 1588.50Q692 1614 692 1665L829 1665M0 1307Z"  horiz-adv-x="1126" vert-adv-y="2048"  />

      
      <glyph glyph-name="uni0116" unicode="&#x0116;" d="M944 0L201 0L201 1307L944 1307L944 1157L379 1157L379 752L922 752L922 602L379 602L379 152L944 152L944 0M436 1552Q436 1578 446 1601Q456 1624 473 1641.50Q490 1659 513 1669Q536 1679 563 1679Q590 1679 613 1669Q636 1659 653.50 1641.50Q671 1624 680.50 1601Q690 1578 690 1552Q690 1526 680.50 1503Q671 1480 653.50 1462.50Q636 1445 613 1435Q590 1425 563 1425Q536 1425 513 1435Q490 1445 473 1462.50Q456 1480 446 1503Q436 1526 436 1552M0 1307Z"  horiz-adv-x="1126" vert-adv-y="2048"  />

      
      <glyph glyph-name="uni0118" unicode="&#x0118;" d="M998-375Q973-380 942.50-382.50Q912-385 887-385Q779-385 723.50-339Q668-293 668-221Q668-198 672.50-175Q677-152 690-126Q703-100 726.50-69Q750-38 789 0L201 0L201 1307L944 1307L944 1157L379 1157L379 752L922 752L922 602L379 602L379 152L944 152L944 0L945 0Q909-36 887-63.50Q865-91 853-113Q841-135 836.50-154.50Q832-174 832-193Q832-225 853.50-245.50Q875-266 928-266Q942-266 961.50-265Q981-264 998-262L998-375Z"  horiz-adv-x="1126" vert-adv-y="2048"  />

      
      <glyph glyph-name="uni011C" unicode="&#x011C;" d="M1006 1083Q933 1122 856 1143.50Q779 1165 688 1165Q584 1165 503 1128Q422 1091 366.50 1023.50Q311 956 281.50 861Q252 766 252 651Q252 531 276 436Q300 341 351 275Q402 209 481.50 174Q561 139 672 139Q691 139 713 141Q735 143 757 146.50Q779 150 799.50 155Q820 160 836 166L836 582L569 582L569 729L1012 729L1012 61Q971 42 925.50 27Q880 12 832.50 2Q785-8 738-13Q691-18 647-18Q513-18 405.50 24Q298 66 222.50 148.50Q147 231 106.50 354Q66 477 66 639Q66 800 111 927.50Q156 1055 237.50 1143.50Q319 1232 433.50 1278.50Q548 1325 686 1325Q774 1325 853.50 1309.50Q933 1294 1006 1260L1006 1083M940 1446L757 1446L622 1548L487 1446L309 1446L540 1659L708 1659L940 1446M61 1307Z"  horiz-adv-x="1126" vert-adv-y="2048"  />

      
      <glyph glyph-name="uni011E" unicode="&#x011E;" d="M1006 1083Q933 1122 856 1143.50Q779 1165 688 1165Q584 1165 503 1128Q422 1091 366.50 1023.50Q311 956 281.50 861Q252 766 252 651Q252 531 276 436Q300 341 351 275Q402 209 481.50 174Q561 139 672 139Q691 139 713 141Q735 143 757 146.50Q779 150 799.50 155Q820 160 836 166L836 582L569 582L569 729L1012 729L1012 61Q971 42 925.50 27Q880 12 832.50 2Q785-8 738-13Q691-18 647-18Q513-18 405.50 24Q298 66 222.50 148.50Q147 231 106.50 354Q66 477 66 639Q66 800 111 927.50Q156 1055 237.50 1143.50Q319 1232 433.50 1278.50Q548 1325 686 1325Q774 1325 853.50 1309.50Q933 1294 1006 1260L1006 1083M890 1665Q890 1604 868.50 1560.50Q847 1517 810.50 1489Q774 1461 725.50 1447.50Q677 1434 624 1434Q571 1434 523 1447.50Q475 1461 438 1489Q401 1517 379.50 1560.50Q358 1604 358 1665L495 1665Q495 1614 528.50 1588.50Q562 1563 624 1563Q686 1563 719.50 1588.50Q753 1614 753 1665L890 1665M61 1307Z"  horiz-adv-x="1126" vert-adv-y="2048"  />

      
      <glyph glyph-name="uni0120" unicode="&#x0120;" d="M1006 1083Q933 1122 856 1143.50Q779 1165 688 1165Q584 1165 503 1128Q422 1091 366.50 1023.50Q311 956 281.50 861Q252 766 252 651Q252 531 276 436Q300 341 351 275Q402 209 481.50 174Q561 139 672 139Q691 139 713 141Q735 143 757 146.50Q779 150 799.50 155Q820 160 836 166L836 582L569 582L569 729L1012 729L1012 61Q971 42 925.50 27Q880 12 832.50 2Q785-8 738-13Q691-18 647-18Q513-18 405.50 24Q298 66 222.50 148.50Q147 231 106.50 354Q66 477 66 639Q66 800 111 927.50Q156 1055 237.50 1143.50Q319 1232 433.50 1278.50Q548 1325 686 1325Q774 1325 853.50 1309.50Q933 1294 1006 1260L1006 1083M497 1552Q497 1578 507 1601Q517 1624 534 1641.50Q551 1659 574 1669Q597 1679 624 1679Q651 1679 674 1669Q697 1659 714.50 1641.50Q732 1624 741.50 1601Q751 1578 751 1552Q751 1526 741.50 1503Q732 1480 714.50 1462.50Q697 1445 674 1435Q651 1425 624 1425Q597 1425 574 1435Q551 1445 534 1462.50Q517 1480 507 1503Q497 1526 497 1552M61 1307Z"  horiz-adv-x="1126" vert-adv-y="2048"  />

      
      <glyph glyph-name="uni0122" unicode="&#x0122;" d="M1006 1083Q933 1122 856 1143.50Q779 1165 688 1165Q584 1165 503 1128Q422 1091 366.50 1023.50Q311 956 281.50 861Q252 766 252 651Q252 531 276 436Q300 341 351 275Q402 209 481.50 174Q561 139 672 139Q691 139 713 141Q735 143 757 146.50Q779 150 799.50 155Q820 160 836 166L836 582L569 582L569 729L1012 729L1012 61Q971 42 925.50 27Q880 12 832.50 2Q785-8 738-13Q691-18 647-18Q513-18 405.50 24Q298 66 222.50 148.50Q147 231 106.50 354Q66 477 66 639Q66 800 111 927.50Q156 1055 237.50 1143.50Q319 1232 433.50 1278.50Q548 1325 686 1325Q774 1325 853.50 1309.50Q933 1294 1006 1260L1006 1083M668-115L580-410L432-410L498-115L668-115Z"  horiz-adv-x="1126" vert-adv-y="2048"  />

      
      <glyph glyph-name="uni0124" unicode="&#x0124;" d="M1016 0L838 0L838 600L289 600L289 0L111 0L111 1307L289 1307L289 754L838 754L838 1307L1016 1307L1016 0M879 1446L696 1446L561 1548L426 1446L248 1446L479 1659L647 1659L879 1446M0 1307Z"  horiz-adv-x="1126" vert-adv-y="2048"  />

      
      <glyph glyph-name="uni0126" unicode="&#x0126;" d="M985 940L985 0L807 0L807 571L319 571L319 0L141 0L141 940L31 940L31 1090L141 1090L141 1307L319 1307L319 1090L807 1090L807 1307L985 1307L985 1090L1096 1090L1096 940L985 940M807 721L807 940L319 940L319 721L807 721Z"  horiz-adv-x="1126" vert-adv-y="2048"  />

      
      <glyph glyph-name="unicc" unicode="&#xcc;" d="M473 1157L172 1157L172 1307L954 1307L954 1157L653 1157L653 152L954 152L954 0L172 0L172 152L473 152L473 1157M668 1446L489 1446L205 1659L457 1659L668 1446M0 1307Z"  horiz-adv-x="1126" vert-adv-y="2048"  />

      
      <glyph glyph-name="unicd" unicode="&#xcd;" d="M473 1157L172 1157L172 1307L954 1307L954 1157L653 1157L653 152L954 152L954 0L172 0L172 152L473 152L473 1157M922 1659L637 1446L459 1446L670 1659L922 1659M0 1307Z"  horiz-adv-x="1126" vert-adv-y="2048"  />

      
      <glyph glyph-name="unice" unicode="&#xce;" d="M473 1157L172 1157L172 1307L954 1307L954 1157L653 1157L653 152L954 152L954 0L172 0L172 152L473 152L473 1157M879 1446L696 1446L561 1548L426 1446L248 1446L479 1659L647 1659L879 1446M0 1307Z"  horiz-adv-x="1126" vert-adv-y="2048"  />

      
      <glyph glyph-name="uni0128" unicode="&#x0128;" d="M473 1157L172 1157L172 1307L954 1307L954 1157L653 1157L653 152L954 152L954 0L172 0L172 152L473 152L473 1157M201 1526Q244 1598 298.50 1634.50Q353 1671 422 1671Q480 1671 520 1654Q560 1637 591 1617Q622 1597 649.50 1580Q677 1563 711 1563Q751 1563 781.50 1590.50Q812 1618 840 1661L926 1579Q882 1507 828 1470.50Q774 1434 705 1434Q646 1434 606.50 1451Q567 1468 536 1488Q505 1508 477.50 1525Q450 1542 416 1542Q375 1542 345 1514.50Q315 1487 287 1444L201 1526M0 1307Z"  horiz-adv-x="1126" vert-adv-y="2048"  />

      
      <glyph glyph-name="unicf" unicode="&#xcf;" d="M473 1157L172 1157L172 1307L954 1307L954 1157L653 1157L653 152L954 152L954 0L172 0L172 152L473 152L473 1157M344 1659Q366 1659 385.50 1650.50Q405 1642 419.50 1628Q434 1614 442.50 1594Q451 1574 451 1552Q451 1530 442.50 1510.50Q434 1491 419.50 1477Q405 1463 385.50 1454.50Q366 1446 344 1446Q299 1446 268.50 1476.50Q238 1507 238 1552Q238 1574 246.50 1594Q255 1614 269 1628Q283 1642 302.50 1650.50Q322 1659 344 1659M782 1659Q804 1659 824 1650.50Q844 1642 858 1628Q872 1614 880.50 1594Q889 1574 889 1552Q889 1530 880.50 1510.50Q872 1491 858 1477Q844 1463 824 1454.50Q804 1446 782 1446Q737 1446 706.50 1476.50Q676 1507 676 1552Q676 1574 684.50 1594Q693 1614 707 1628Q721 1642 740.50 1650.50Q760 1659 782 1659M0 1307Z"  horiz-adv-x="1126" vert-adv-y="2048"  />

      
      <glyph glyph-name="uni012A" unicode="&#x012A;" d="M473 1157L172 1157L172 1307L954 1307L954 1157L653 1157L653 152L954 152L954 0L172 0L172 152L473 152L473 1157M846 1483L281 1483L281 1616L846 1616L846 1483M0 1307Z"  horiz-adv-x="1126" vert-adv-y="2048"  />

      
      <glyph glyph-name="uni012C" unicode="&#x012C;" d="M473 1157L172 1157L172 1307L954 1307L954 1157L653 1157L653 152L954 152L954 0L172 0L172 152L473 152L473 1157M829 1665Q829 1604 807.50 1560.50Q786 1517 749.50 1489Q713 1461 664.50 1447.50Q616 1434 563 1434Q510 1434 462 1447.50Q414 1461 377 1489Q340 1517 318.50 1560.50Q297 1604 297 1665L434 1665Q434 1614 467.50 1588.50Q501 1563 563 1563Q625 1563 658.50 1588.50Q692 1614 692 1665L829 1665M0 1307Z"  horiz-adv-x="1126" vert-adv-y="2048"  />

      
      <glyph glyph-name="uni0130" unicode="&#x0130;" d="M473 1157L172 1157L172 1307L954 1307L954 1157L653 1157L653 152L954 152L954 0L172 0L172 152L473 152L473 1157M436 1552Q436 1578 446 1601Q456 1624 473 1641.50Q490 1659 513 1669Q536 1679 563 1679Q590 1679 613 1669Q636 1659 653.50 1641.50Q671 1624 680.50 1601Q690 1578 690 1552Q690 1526 680.50 1503Q671 1480 653.50 1462.50Q636 1445 613 1435Q590 1425 563 1425Q536 1425 513 1435Q490 1445 473 1462.50Q456 1480 446 1503Q436 1526 436 1552M0 1307Z"  horiz-adv-x="1126" vert-adv-y="2048"  />

      
      <glyph glyph-name="uni012E" unicode="&#x012E;" d="M1008-375Q983-380 952.50-382.50Q922-385 897-385Q789-385 733.50-339Q678-293 678-221Q678-198 682.50-175Q687-152 700-126Q713-100 736.50-69Q760-38 799 0L172 0L172 152L473 152L473 1157L172 1157L172 1307L954 1307L954 1157L653 1157L653 152L954 152L954 0L955 0Q919-36 897-63.50Q875-91 863-113Q851-135 846.50-154.50Q842-174 842-193Q842-225 863.50-245.50Q885-266 938-266Q952-266 971.50-265Q991-264 1008-262L1008-375Z"  horiz-adv-x="1126" vert-adv-y="2048"  />

      
      <glyph glyph-name="uni0132" unicode="&#x0132;" d="M475 176Q491 169 512.50 161.50Q534 154 557 148Q580 142 603 138.50Q626 135 645 135Q737 135 787.50 189Q838 243 838 369L838 1307L1016 1307L1016 354Q1016 272 993.50 204.50Q971 137 926 89Q881 41 813.50 14.50Q746-12 655-12Q554-12 475 16L475 176M289 0L111 0L111 1307L289 1307L289 0Z"  horiz-adv-x="1126" vert-adv-y="2048"  />

      
      <glyph glyph-name="uni0134" unicode="&#x0134;" d="M877 1307L877 399Q877 315 852 239.50Q827 164 776 108Q725 52 648 19Q571-14 467-14Q428-14 387.50-8.50Q347-3 309.50 6.50Q272 16 239 29.50Q206 43 182 59L182 238Q244 193 319.50 167Q395 141 469 141Q578 141 637 207.50Q696 274 696 399L696 1153L199 1153L199 1307L877 1307M879 1446L696 1446L561 1548L426 1446L248 1446L479 1659L647 1659L879 1446M0 1307Z"  horiz-adv-x="1126" vert-adv-y="2048"  />

      
      <glyph glyph-name="uni0136" unicode="&#x0136;" d="M1047 0L823 0L334 641L334 0L156 0L156 1307L334 1307L334 700L813 1307L1024 1307L508 686L1047 0M668-115L580-410L432-410L498-115L668-115Z"  horiz-adv-x="1126" vert-adv-y="2048"  />

      
      <glyph glyph-name="uni0139" unicode="&#x0139;" d="M985 0L233 0L233 1307L414 1307L414 152L985 152L985 0M922 1659L637 1446L459 1446L670 1659L922 1659M0 1307Z"  horiz-adv-x="1126" vert-adv-y="2048"  />

      
      <glyph glyph-name="uni013D" unicode="&#x013D;" d="M985 0L233 0L233 1307L414 1307L414 152L985 152L985 0M991 1466L882 1171L737 1171L821 1466L991 1466M-244 1004Z"  horiz-adv-x="1126" vert-adv-y="2048"  />

      
      <glyph glyph-name="uni013B" unicode="&#x013B;" d="M985 0L233 0L233 1307L414 1307L414 152L985 152L985 0M668-115L580-410L432-410L498-115L668-115Z"  horiz-adv-x="1126" vert-adv-y="2048"  />

      
      <glyph glyph-name="uni0141" unicode="&#x0141;" d="M434 152L985 152L985 0L254 0L254 602L45 496L45 653L254 760L254 1307L434 1307L434 850L795 1032L795 874L434 692L434 152Z"  horiz-adv-x="1126" vert-adv-y="2048"  />

      
      <glyph glyph-name="uni013F" unicode="&#x013F;" d="M946 0L194 0L194 1307L375 1307L375 152L946 152L946 0M952 774Q986 774 1016.50 760.50Q1047 747 1069.50 724.50Q1092 702 1105 671Q1118 640 1118 606Q1118 572 1105 542Q1092 512 1069.50 489.50Q1047 467 1016.50 453.50Q986 440 952 440Q917 440 887 453.50Q857 467 834.50 489.50Q812 512 799 542Q786 572 786 606Q786 640 799 671Q812 702 834.50 724.50Q857 747 887 760.50Q917 774 952 774Z"  horiz-adv-x="1126" vert-adv-y="2048"  />

      
      <glyph glyph-name="uni0143" unicode="&#x0143;" d="M1008 0L776 0L395 815L285 1077L285 418L285 0L119 0L119 1307L348 1307L711 535L842 236L842 936L842 1307L1008 1307L1008 0M922 1659L637 1446L459 1446L670 1659L922 1659M0 1307Z"  horiz-adv-x="1126" vert-adv-y="2048"  />

      
      <glyph glyph-name="uni0147" unicode="&#x0147;" d="M1008 0L776 0L395 815L285 1077L285 418L285 0L119 0L119 1307L348 1307L711 535L842 236L842 936L842 1307L1008 1307L1008 0M248 1659L430 1659L565 1556L700 1659L879 1659L647 1446L479 1446L248 1659M0 1307Z"  horiz-adv-x="1126" vert-adv-y="2048"  />

      
      <glyph glyph-name="unid1" unicode="&#xd1;" d="M1008 0L776 0L395 815L285 1077L285 418L285 0L119 0L119 1307L348 1307L711 535L842 236L842 936L842 1307L1008 1307L1008 0M201 1526Q244 1598 298.50 1634.50Q353 1671 422 1671Q480 1671 520 1654Q560 1637 591 1617Q622 1597 649.50 1580Q677 1563 711 1563Q751 1563 781.50 1590.50Q812 1618 840 1661L926 1579Q882 1507 828 1470.50Q774 1434 705 1434Q646 1434 606.50 1451Q567 1468 536 1488Q505 1508 477.50 1525Q450 1542 416 1542Q375 1542 345 1514.50Q315 1487 287 1444L201 1526M0 1307Z"  horiz-adv-x="1126" vert-adv-y="2048"  />

      
      <glyph glyph-name="uni0145" unicode="&#x0145;" d="M1008 0L776 0L395 815L285 1077L285 418L285 0L119 0L119 1307L348 1307L711 535L842 236L842 936L842 1307L1008 1307L1008 0M668-115L580-410L432-410L498-115L668-115Z"  horiz-adv-x="1126" vert-adv-y="2048"  />

      
      <glyph glyph-name="uni014A" unicode="&#x014A;" d="M408 821L285 1077L285 0L119 0L119 1307L338 1307L735 555L842 338L842 1307L1008 1307L1008 18Q1008-87 980-168.50Q952-250 899.50-306Q847-362 772.50-391Q698-420 604-420L606-270Q715-270 774.50-199Q834-128 834 12L408 821Z"  horiz-adv-x="1126" vert-adv-y="2048"  />

      
      <glyph glyph-name="unid2" unicode="&#xd2;" d="M1071 662Q1071 486 1029.50 358Q988 230 917.50 146.50Q847 63 752.50 22.50Q658-18 553-18Q427-18 333.50 27.50Q240 73 178.50 159Q117 245 87 368.50Q57 492 57 647Q57 821 98 949Q139 1077 209.50 1160.50Q280 1244 374 1284.50Q468 1325 573 1325Q699 1325 792.50 1279Q886 1233 948 1147.50Q1010 1062 1040.50 939Q1071 816 1071 662M886 649Q886 764 868.50 859.50Q851 955 812 1024Q773 1093 711.50 1131Q650 1169 563 1169Q479 1169 418.50 1128.50Q358 1088 319 1018.50Q280 949 261 855.50Q242 762 242 657Q242 541 260 445.50Q278 350 316.50 281.50Q355 213 416 175Q477 137 563 137Q647 137 708 177.50Q769 218 808.50 287.50Q848 357 867 450Q886 543 886 649M668 1446L489 1446L205 1659L457 1659L668 1446M0 1307Z"  horiz-adv-x="1126" vert-adv-y="2048"  />

      
      <glyph glyph-name="unid3" unicode="&#xd3;" d="M1071 662Q1071 486 1029.50 358Q988 230 917.50 146.50Q847 63 752.50 22.50Q658-18 553-18Q427-18 333.50 27.50Q240 73 178.50 159Q117 245 87 368.50Q57 492 57 647Q57 821 98 949Q139 1077 209.50 1160.50Q280 1244 374 1284.50Q468 1325 573 1325Q699 1325 792.50 1279Q886 1233 948 1147.50Q1010 1062 1040.50 939Q1071 816 1071 662M886 649Q886 764 868.50 859.50Q851 955 812 1024Q773 1093 711.50 1131Q650 1169 563 1169Q479 1169 418.50 1128.50Q358 1088 319 1018.50Q280 949 261 855.50Q242 762 242 657Q242 541 260 445.50Q278 350 316.50 281.50Q355 213 416 175Q477 137 563 137Q647 137 708 177.50Q769 218 808.50 287.50Q848 357 867 450Q886 543 886 649M922 1659L637 1446L459 1446L670 1659L922 1659M0 1307Z"  horiz-adv-x="1126" vert-adv-y="2048"  />

      
      <glyph glyph-name="unid4" unicode="&#xd4;" d="M1071 662Q1071 486 1029.50 358Q988 230 917.50 146.50Q847 63 752.50 22.50Q658-18 553-18Q427-18 333.50 27.50Q240 73 178.50 159Q117 245 87 368.50Q57 492 57 647Q57 821 98 949Q139 1077 209.50 1160.50Q280 1244 374 1284.50Q468 1325 573 1325Q699 1325 792.50 1279Q886 1233 948 1147.50Q1010 1062 1040.50 939Q1071 816 1071 662M886 649Q886 764 868.50 859.50Q851 955 812 1024Q773 1093 711.50 1131Q650 1169 563 1169Q479 1169 418.50 1128.50Q358 1088 319 1018.50Q280 949 261 855.50Q242 762 242 657Q242 541 260 445.50Q278 350 316.50 281.50Q355 213 416 175Q477 137 563 137Q647 137 708 177.50Q769 218 808.50 287.50Q848 357 867 450Q886 543 886 649M879 1446L696 1446L561 1548L426 1446L248 1446L479 1659L647 1659L879 1446M0 1307Z"  horiz-adv-x="1126" vert-adv-y="2048"  />

      
      <glyph glyph-name="unid5" unicode="&#xd5;" d="M1071 662Q1071 486 1029.50 358Q988 230 917.50 146.50Q847 63 752.50 22.50Q658-18 553-18Q427-18 333.50 27.50Q240 73 178.50 159Q117 245 87 368.50Q57 492 57 647Q57 821 98 949Q139 1077 209.50 1160.50Q280 1244 374 1284.50Q468 1325 573 1325Q699 1325 792.50 1279Q886 1233 948 1147.50Q1010 1062 1040.50 939Q1071 816 1071 662M886 649Q886 764 868.50 859.50Q851 955 812 1024Q773 1093 711.50 1131Q650 1169 563 1169Q479 1169 418.50 1128.50Q358 1088 319 1018.50Q280 949 261 855.50Q242 762 242 657Q242 541 260 445.50Q278 350 316.50 281.50Q355 213 416 175Q477 137 563 137Q647 137 708 177.50Q769 218 808.50 287.50Q848 357 867 450Q886 543 886 649M201 1526Q244 1598 298.50 1634.50Q353 1671 422 1671Q480 1671 520 1654Q560 1637 591 1617Q622 1597 649.50 1580Q677 1563 711 1563Q751 1563 781.50 1590.50Q812 1618 840 1661L926 1579Q882 1507 828 1470.50Q774 1434 705 1434Q646 1434 606.50 1451Q567 1468 536 1488Q505 1508 477.50 1525Q450 1542 416 1542Q375 1542 345 1514.50Q315 1487 287 1444L201 1526M0 1307Z"  horiz-adv-x="1126" vert-adv-y="2048"  />

      
      <glyph glyph-name="unid6" unicode="&#xd6;" d="M1071 662Q1071 486 1029.50 358Q988 230 917.50 146.50Q847 63 752.50 22.50Q658-18 553-18Q427-18 333.50 27.50Q240 73 178.50 159Q117 245 87 368.50Q57 492 57 647Q57 821 98 949Q139 1077 209.50 1160.50Q280 1244 374 1284.50Q468 1325 573 1325Q699 1325 792.50 1279Q886 1233 948 1147.50Q1010 1062 1040.50 939Q1071 816 1071 662M886 649Q886 764 868.50 859.50Q851 955 812 1024Q773 1093 711.50 1131Q650 1169 563 1169Q479 1169 418.50 1128.50Q358 1088 319 1018.50Q280 949 261 855.50Q242 762 242 657Q242 541 260 445.50Q278 350 316.50 281.50Q355 213 416 175Q477 137 563 137Q647 137 708 177.50Q769 218 808.50 287.50Q848 357 867 450Q886 543 886 649M344 1659Q366 1659 385.50 1650.50Q405 1642 419.50 1628Q434 1614 442.50 1594Q451 1574 451 1552Q451 1530 442.50 1510.50Q434 1491 419.50 1477Q405 1463 385.50 1454.50Q366 1446 344 1446Q299 1446 268.50 1476.50Q238 1507 238 1552Q238 1574 246.50 1594Q255 1614 269 1628Q283 1642 302.50 1650.50Q322 1659 344 1659M782 1659Q804 1659 824 1650.50Q844 1642 858 1628Q872 1614 880.50 1594Q889 1574 889 1552Q889 1530 880.50 1510.50Q872 1491 858 1477Q844 1463 824 1454.50Q804 1446 782 1446Q737 1446 706.50 1476.50Q676 1507 676 1552Q676 1574 684.50 1594Q693 1614 707 1628Q721 1642 740.50 1650.50Q760 1659 782 1659M0 1307Z"  horiz-adv-x="1126" vert-adv-y="2048"  />

      
      <glyph glyph-name="uni014C" unicode="&#x014C;" d="M1071 662Q1071 486 1029.50 358Q988 230 917.50 146.50Q847 63 752.50 22.50Q658-18 553-18Q427-18 333.50 27.50Q240 73 178.50 159Q117 245 87 368.50Q57 492 57 647Q57 821 98 949Q139 1077 209.50 1160.50Q280 1244 374 1284.50Q468 1325 573 1325Q699 1325 792.50 1279Q886 1233 948 1147.50Q1010 1062 1040.50 939Q1071 816 1071 662M886 649Q886 764 868.50 859.50Q851 955 812 1024Q773 1093 711.50 1131Q650 1169 563 1169Q479 1169 418.50 1128.50Q358 1088 319 1018.50Q280 949 261 855.50Q242 762 242 657Q242 541 260 445.50Q278 350 316.50 281.50Q355 213 416 175Q477 137 563 137Q647 137 708 177.50Q769 218 808.50 287.50Q848 357 867 450Q886 543 886 649M846 1483L281 1483L281 1616L846 1616L846 1483M0 1307Z"  horiz-adv-x="1126" vert-adv-y="2048"  />

      
      <glyph glyph-name="uni014E" unicode="&#x014E;" d="M1071 662Q1071 486 1029.50 358Q988 230 917.50 146.50Q847 63 752.50 22.50Q658-18 553-18Q427-18 333.50 27.50Q240 73 178.50 159Q117 245 87 368.50Q57 492 57 647Q57 821 98 949Q139 1077 209.50 1160.50Q280 1244 374 1284.50Q468 1325 573 1325Q699 1325 792.50 1279Q886 1233 948 1147.50Q1010 1062 1040.50 939Q1071 816 1071 662M886 649Q886 764 868.50 859.50Q851 955 812 1024Q773 1093 711.50 1131Q650 1169 563 1169Q479 1169 418.50 1128.50Q358 1088 319 1018.50Q280 949 261 855.50Q242 762 242 657Q242 541 260 445.50Q278 350 316.50 281.50Q355 213 416 175Q477 137 563 137Q647 137 708 177.50Q769 218 808.50 287.50Q848 357 867 450Q886 543 886 649M829 1665Q829 1604 807.50 1560.50Q786 1517 749.50 1489Q713 1461 664.50 1447.50Q616 1434 563 1434Q510 1434 462 1447.50Q414 1461 377 1489Q340 1517 318.50 1560.50Q297 1604 297 1665L434 1665Q434 1614 467.50 1588.50Q501 1563 563 1563Q625 1563 658.50 1588.50Q692 1614 692 1665L829 1665M0 1307Z"  horiz-adv-x="1126" vert-adv-y="2048"  />

      
      <glyph glyph-name="uni0150" unicode="&#x0150;" d="M1071 662Q1071 486 1029.50 358Q988 230 917.50 146.50Q847 63 752.50 22.50Q658-18 553-18Q427-18 333.50 27.50Q240 73 178.50 159Q117 245 87 368.50Q57 492 57 647Q57 821 98 949Q139 1077 209.50 1160.50Q280 1244 374 1284.50Q468 1325 573 1325Q699 1325 792.50 1279Q886 1233 948 1147.50Q1010 1062 1040.50 939Q1071 816 1071 662M886 649Q886 764 868.50 859.50Q851 955 812 1024Q773 1093 711.50 1131Q650 1169 563 1169Q479 1169 418.50 1128.50Q358 1088 319 1018.50Q280 949 261 855.50Q242 762 242 657Q242 541 260 445.50Q278 350 316.50 281.50Q355 213 416 175Q477 137 563 137Q647 137 708 177.50Q769 218 808.50 287.50Q848 357 867 450Q886 543 886 649M676 1659L453 1446L272 1446L463 1659L676 1659M1126 1659L866 1446L684 1446L895 1659L1126 1659M0 1307Z"  horiz-adv-x="1126" vert-adv-y="2048"  />

      
      <glyph glyph-name="unid8" unicode="&#xd8;" d="M897 1522L819 1264Q946 1189 1007.50 1035.50Q1069 882 1069 662Q1069 486 1028 358Q987 230 916.50 146.50Q846 63 752 22.50Q658-18 553-18Q522-18 494-15.50Q466-13 438-8L377-215L231-215L307 41Q181 113 119 268.50Q57 424 57 647Q57 821 98 949Q139 1077 209.50 1160.50Q280 1244 374 1284.50Q468 1325 573 1325Q635 1325 688 1313L752 1522L897 1522M242 657Q242 511 269.50 398Q297 285 360 219L643 1159Q624 1164 604.50 1166.50Q585 1169 563 1169Q479 1169 418.50 1128.50Q358 1088 319 1018.50Q280 949 261 855.50Q242 762 242 657M885 649Q885 795 857 906Q829 1017 766 1085L485 145Q502 140 522 138.50Q542 137 563 137Q647 137 707.50 177.50Q768 218 807.50 287.50Q847 357 866 450Q885 543 885 649Z"  horiz-adv-x="1126" vert-adv-y="2048"  />

      
      <glyph glyph-name="uni01FE" unicode="&#x01FE;" d="M897 1522L819 1264Q946 1189 1007.50 1035.50Q1069 882 1069 662Q1069 486 1028 358Q987 230 916.50 146.50Q846 63 752 22.50Q658-18 553-18Q522-18 494-15.50Q466-13 438-8L377-215L231-215L307 41Q181 113 119 268.50Q57 424 57 647Q57 821 98 949Q139 1077 209.50 1160.50Q280 1244 374 1284.50Q468 1325 573 1325Q635 1325 688 1313L752 1522L897 1522M242 657Q242 511 269.50 398Q297 285 360 219L643 1159Q624 1164 604.50 1166.50Q585 1169 563 1169Q479 1169 418.50 1128.50Q358 1088 319 1018.50Q280 949 261 855.50Q242 762 242 657M885 649Q885 795 857 906Q829 1017 766 1085L485 145Q502 140 522 138.50Q542 137 563 137Q647 137 707.50 177.50Q768 218 807.50 287.50Q847 357 866 450Q885 543 885 649M822 1659L537 1446L359 1446L570 1659L822 1659M-100 1307Z"  horiz-adv-x="1126" vert-adv-y="2048"  />

      
      <glyph glyph-name="uni0152" unicode="&#x0152;" d="M1094 0L729 0Q655 0 602-7Q549-14 506-14Q384-14 294.50 29.50Q205 73 146.50 157Q88 241 59.50 364Q31 487 31 647Q31 821 69.50 948Q108 1075 173 1158Q238 1241 325 1281Q412 1321 510 1321Q534 1321 565 1319Q596 1317 626.50 1314Q657 1311 683.50 1309Q710 1307 725 1307L1094 1307L1094 1161L764 1161L764 750L1073 750L1073 604L764 604L764 147L1094 147L1094 0M592 1165Q578 1168 556.50 1171Q535 1174 510 1174Q430 1174 373 1133.50Q316 1093 279.50 1022.50Q243 952 226 857Q209 762 209 653Q209 401 286.50 267Q364 133 516 133Q536 133 554 135.50Q572 138 592 143L592 1165Z"  horiz-adv-x="1126" vert-adv-y="2048"  />

      
      <glyph glyph-name="unide" unicode="&#xde;" d="M336 1307L336 1112L526 1112Q623 1112 712 1089Q801 1066 868.50 1016.50Q936 967 976 889Q1016 811 1016 702Q1016 622 986 542Q956 462 893 398Q830 334 732 294Q634 254 498 254L336 254L336 0L158 0L158 1307L336 1307M831 694Q831 757 810 807Q789 857 748.50 892.50Q708 928 650 946.50Q592 965 518 965L336 965L336 406L502 406Q660 406 745.50 480Q831 554 831 694Z"  horiz-adv-x="1126" vert-adv-y="2048"  />

      
      <glyph glyph-name="uni0154" unicode="&#x0154;" d="M1051 0L850 0L655 418Q633 466 610 497.50Q587 529 560.50 547.50Q534 566 502.50 574Q471 582 432 582L348 582L348 0L170 0L170 1307L520 1307Q634 1307 716 1282Q798 1257 850.50 1212Q903 1167 927.50 1103.50Q952 1040 952 963Q952 902 934 847.50Q916 793 880.50 748.50Q845 704 792.50 671.50Q740 639 672 623Q727 604 765.50 556.50Q804 509 844 430L1051 0M766 948Q766 1053 700.50 1105Q635 1157 516 1157L348 1157L348 725L492 725Q555 725 605.50 739.50Q656 754 691.50 782.50Q727 811 746.50 852.50Q766 894 766 948M883 1659L598 1446L420 1446L631 1659L883 1659M-39 1307Z"  horiz-adv-x="1126" vert-adv-y="2048"  />

      
      <glyph glyph-name="uni0158" unicode="&#x0158;" d="M1051 0L850 0L655 418Q633 466 610 497.50Q587 529 560.50 547.50Q534 566 502.50 574Q471 582 432 582L348 582L348 0L170 0L170 1307L520 1307Q634 1307 716 1282Q798 1257 850.50 1212Q903 1167 927.50 1103.50Q952 1040 952 963Q952 902 934 847.50Q916 793 880.50 748.50Q845 704 792.50 671.50Q740 639 672 623Q727 604 765.50 556.50Q804 509 844 430L1051 0M766 948Q766 1053 700.50 1105Q635 1157 516 1157L348 1157L348 725L492 725Q555 725 605.50 739.50Q656 754 691.50 782.50Q727 811 746.50 852.50Q766 894 766 948M209 1659L391 1659L526 1556L661 1659L840 1659L608 1446L440 1446L209 1659M-39 1307Z"  horiz-adv-x="1126" vert-adv-y="2048"  />

      
      <glyph glyph-name="uni0156" unicode="&#x0156;" d="M1051 0L850 0L655 418Q633 466 610 497.50Q587 529 560.50 547.50Q534 566 502.50 574Q471 582 432 582L348 582L348 0L170 0L170 1307L520 1307Q634 1307 716 1282Q798 1257 850.50 1212Q903 1167 927.50 1103.50Q952 1040 952 963Q952 902 934 847.50Q916 793 880.50 748.50Q845 704 792.50 671.50Q740 639 672 623Q727 604 765.50 556.50Q804 509 844 430L1051 0M766 948Q766 1053 700.50 1105Q635 1157 516 1157L348 1157L348 725L492 725Q555 725 605.50 739.50Q656 754 691.50 782.50Q727 811 746.50 852.50Q766 894 766 948M668-115L580-410L432-410L498-115L668-115Z"  horiz-adv-x="1126" vert-adv-y="2048"  />

      
      <glyph glyph-name="uni015A" unicode="&#x015A;" d="M997 354Q997 261 959 191Q921 121 853 74.50Q785 28 689.50 5Q594-18 479-18Q427-18 375.50-14Q324-10 276.50-4Q229 2 187 10Q145 18 111 27L111 199Q186 171 279.50 155Q373 139 492 139Q578 139 638.50 152.50Q699 166 737.50 192.50Q776 219 793.50 257Q811 295 811 344Q811 397 781.50 434.50Q752 472 704 501.50Q656 531 594.50 555.50Q533 580 469 606Q405 632 343.50 662.50Q282 693 234 734.50Q186 776 156.50 832Q127 888 127 965Q127 1032 155 1097Q183 1162 242 1212.50Q301 1263 393.50 1294Q486 1325 614 1325Q647 1325 685.50 1322Q724 1319 763.50 1313.50Q803 1308 841.50 1301Q880 1294 913 1286L913 1126Q836 1148 759 1159.50Q682 1171 610 1171Q457 1171 385 1120Q313 1069 313 983Q313 930 342.50 892Q372 854 420 824Q468 794 529.50 769.50Q591 745 655 719Q719 693 780.50 662Q842 631 890 588.50Q938 546 967.50 489Q997 432 997 354M922 1659L637 1446L459 1446L670 1659L922 1659M0 1307Z"  horiz-adv-x="1126" vert-adv-y="2048"  />

      
      <glyph glyph-name="uni015C" unicode="&#x015C;" d="M997 354Q997 261 959 191Q921 121 853 74.50Q785 28 689.50 5Q594-18 479-18Q427-18 375.50-14Q324-10 276.50-4Q229 2 187 10Q145 18 111 27L111 199Q186 171 279.50 155Q373 139 492 139Q578 139 638.50 152.50Q699 166 737.50 192.50Q776 219 793.50 257Q811 295 811 344Q811 397 781.50 434.50Q752 472 704 501.50Q656 531 594.50 555.50Q533 580 469 606Q405 632 343.50 662.50Q282 693 234 734.50Q186 776 156.50 832Q127 888 127 965Q127 1032 155 1097Q183 1162 242 1212.50Q301 1263 393.50 1294Q486 1325 614 1325Q647 1325 685.50 1322Q724 1319 763.50 1313.50Q803 1308 841.50 1301Q880 1294 913 1286L913 1126Q836 1148 759 1159.50Q682 1171 610 1171Q457 1171 385 1120Q313 1069 313 983Q313 930 342.50 892Q372 854 420 824Q468 794 529.50 769.50Q591 745 655 719Q719 693 780.50 662Q842 631 890 588.50Q938 546 967.50 489Q997 432 997 354M879 1446L696 1446L561 1548L426 1446L248 1446L479 1659L647 1659L879 1446M0 1307Z"  horiz-adv-x="1126" vert-adv-y="2048"  />

      
      <glyph glyph-name="uni0160" unicode="&#x0160;" d="M997 354Q997 261 959 191Q921 121 853 74.50Q785 28 689.50 5Q594-18 479-18Q427-18 375.50-14Q324-10 276.50-4Q229 2 187 10Q145 18 111 27L111 199Q186 171 279.50 155Q373 139 492 139Q578 139 638.50 152.50Q699 166 737.50 192.50Q776 219 793.50 257Q811 295 811 344Q811 397 781.50 434.50Q752 472 704 501.50Q656 531 594.50 555.50Q533 580 469 606Q405 632 343.50 662.50Q282 693 234 734.50Q186 776 156.50 832Q127 888 127 965Q127 1032 155 1097Q183 1162 242 1212.50Q301 1263 393.50 1294Q486 1325 614 1325Q647 1325 685.50 1322Q724 1319 763.50 1313.50Q803 1308 841.50 1301Q880 1294 913 1286L913 1126Q836 1148 759 1159.50Q682 1171 610 1171Q457 1171 385 1120Q313 1069 313 983Q313 930 342.50 892Q372 854 420 824Q468 794 529.50 769.50Q591 745 655 719Q719 693 780.50 662Q842 631 890 588.50Q938 546 967.50 489Q997 432 997 354M248 1659L430 1659L565 1556L700 1659L879 1659L647 1446L479 1446L248 1659M0 1307Z"  horiz-adv-x="1126" vert-adv-y="2048"  />

      
      <glyph glyph-name="uni015E" unicode="&#x015E;" d="M631-6L547-295L395-295L457-18Q416-17 370-13.50Q324-10 276.50-4Q229 2 187 10Q145 18 111 27L111 199Q186 171 279.50 155Q373 139 492 139Q578 139 638.50 152.50Q699 166 737.50 192.50Q776 219 793.50 257Q811 295 811 344Q811 397 781.50 434.50Q752 472 704 501.50Q656 531 594.50 555.50Q533 580 469 606Q405 632 343.50 662.50Q282 693 234 734.50Q186 776 156.50 832Q127 888 127 965Q127 1032 155 1097Q183 1162 242 1212.50Q301 1263 393.50 1294Q486 1325 614 1325Q647 1325 685.50 1322Q724 1319 763.50 1313.50Q803 1308 841.50 1301Q880 1294 913 1286L913 1126Q836 1148 759 1159.50Q682 1171 610 1171Q457 1171 385 1120Q313 1069 313 983Q313 930 342.50 892Q372 854 420 824Q468 794 529.50 769.50Q591 745 655 719Q719 693 780.50 662Q842 631 890 588.50Q938 546 967.50 489Q997 432 997 354Q997 261 959 191Q921 121 843.50 68.50Q766 16 631-6Z"  horiz-adv-x="1126" vert-adv-y="2048"  />

      
      <glyph glyph-name="uni0218" unicode="&#x0218;" d="M997 354Q997 261 959 191Q921 121 853 74.50Q785 28 689.50 5Q594-18 479-18Q427-18 375.50-14Q324-10 276.50-4Q229 2 187 10Q145 18 111 27L111 199Q186 171 279.50 155Q373 139 492 139Q578 139 638.50 152.50Q699 166 737.50 192.50Q776 219 793.50 257Q811 295 811 344Q811 397 781.50 434.50Q752 472 704 501.50Q656 531 594.50 555.50Q533 580 469 606Q405 632 343.50 662.50Q282 693 234 734.50Q186 776 156.50 832Q127 888 127 965Q127 1032 155 1097Q183 1162 242 1212.50Q301 1263 393.50 1294Q486 1325 614 1325Q647 1325 685.50 1322Q724 1319 763.50 1313.50Q803 1308 841.50 1301Q880 1294 913 1286L913 1126Q836 1148 759 1159.50Q682 1171 610 1171Q457 1171 385 1120Q313 1069 313 983Q313 930 342.50 892Q372 854 420 824Q468 794 529.50 769.50Q591 745 655 719Q719 693 780.50 662Q842 631 890 588.50Q938 546 967.50 489Q997 432 997 354M668-115L580-410L432-410L498-115L668-115Z"  horiz-adv-x="1126" vert-adv-y="2048"  />

      
      <glyph glyph-name="uni0164" unicode="&#x0164;" d="M1040 1155L653 1155L653 0L473 0L473 1155L86 1155L86 1307L1040 1307L1040 1155M248 1659L430 1659L565 1556L700 1659L879 1659L647 1446L479 1446L248 1659M0 1307Z"  horiz-adv-x="1126" vert-adv-y="2048"  />

      
      <glyph glyph-name="uni0162" unicode="&#x0162;" d="M1040 1155L653 1155L653 0L473 0L473 1155L86 1155L86 1307L1040 1307L1040 1155M668-115L580-410L432-410L498-115L668-115Z"  horiz-adv-x="1126" vert-adv-y="2048"  />

      
      <glyph glyph-name="uni021A" unicode="&#x021A;" d="M1040 1155L653 1155L653 0L473 0L473 1155L86 1155L86 1307L1040 1307L1040 1155M668-115L580-410L432-410L498-115L668-115Z"  horiz-adv-x="1126" vert-adv-y="2048"  />

      
      <glyph glyph-name="uni0166" unicode="&#x0166;" d="M653 582L653 0L473 0L473 582L207 582L207 731L473 731L473 1155L86 1155L86 1307L1040 1307L1040 1155L653 1155L653 731L920 731L920 582L653 582Z"  horiz-adv-x="1126" vert-adv-y="2048"  />

      
      <glyph glyph-name="unid9" unicode="&#xd9;" d="M1018 455Q1018 347 987.50 259.50Q957 172 898 110.50Q839 49 753.50 15.50Q668-18 557-18Q435-18 350 14Q265 46 211.50 104.50Q158 163 133.50 245Q109 327 109 428L109 1307L287 1307L287 442Q287 365 301.50 307Q316 249 349 210Q382 171 434.50 151Q487 131 563 131Q705 131 772.50 213Q840 295 840 444L840 1307L1018 1307L1018 455M668 1446L489 1446L205 1659L457 1659L668 1446M0 1307Z"  horiz-adv-x="1126" vert-adv-y="2048"  />

      
      <glyph glyph-name="unida" unicode="&#xda;" d="M1018 455Q1018 347 987.50 259.50Q957 172 898 110.50Q839 49 753.50 15.50Q668-18 557-18Q435-18 350 14Q265 46 211.50 104.50Q158 163 133.50 245Q109 327 109 428L109 1307L287 1307L287 442Q287 365 301.50 307Q316 249 349 210Q382 171 434.50 151Q487 131 563 131Q705 131 772.50 213Q840 295 840 444L840 1307L1018 1307L1018 455M922 1659L637 1446L459 1446L670 1659L922 1659M0 1307Z"  horiz-adv-x="1126" vert-adv-y="2048"  />

      
      <glyph glyph-name="unidb" unicode="&#xdb;" d="M1018 455Q1018 347 987.50 259.50Q957 172 898 110.50Q839 49 753.50 15.50Q668-18 557-18Q435-18 350 14Q265 46 211.50 104.50Q158 163 133.50 245Q109 327 109 428L109 1307L287 1307L287 442Q287 365 301.50 307Q316 249 349 210Q382 171 434.50 151Q487 131 563 131Q705 131 772.50 213Q840 295 840 444L840 1307L1018 1307L1018 455M879 1446L696 1446L561 1548L426 1446L248 1446L479 1659L647 1659L879 1446M0 1307Z"  horiz-adv-x="1126" vert-adv-y="2048"  />

      
      <glyph glyph-name="uni0168" unicode="&#x0168;" d="M1018 455Q1018 347 987.50 259.50Q957 172 898 110.50Q839 49 753.50 15.50Q668-18 557-18Q435-18 350 14Q265 46 211.50 104.50Q158 163 133.50 245Q109 327 109 428L109 1307L287 1307L287 442Q287 365 301.50 307Q316 249 349 210Q382 171 434.50 151Q487 131 563 131Q705 131 772.50 213Q840 295 840 444L840 1307L1018 1307L1018 455M201 1526Q244 1598 298.50 1634.50Q353 1671 422 1671Q480 1671 520 1654Q560 1637 591 1617Q622 1597 649.50 1580Q677 1563 711 1563Q751 1563 781.50 1590.50Q812 1618 840 1661L926 1579Q882 1507 828 1470.50Q774 1434 705 1434Q646 1434 606.50 1451Q567 1468 536 1488Q505 1508 477.50 1525Q450 1542 416 1542Q375 1542 345 1514.50Q315 1487 287 1444L201 1526M0 1307Z"  horiz-adv-x="1126" vert-adv-y="2048"  />

      
      <glyph glyph-name="unidc" unicode="&#xdc;" d="M1018 455Q1018 347 987.50 259.50Q957 172 898 110.50Q839 49 753.50 15.50Q668-18 557-18Q435-18 350 14Q265 46 211.50 104.50Q158 163 133.50 245Q109 327 109 428L109 1307L287 1307L287 442Q287 365 301.50 307Q316 249 349 210Q382 171 434.50 151Q487 131 563 131Q705 131 772.50 213Q840 295 840 444L840 1307L1018 1307L1018 455M344 1659Q366 1659 385.50 1650.50Q405 1642 419.50 1628Q434 1614 442.50 1594Q451 1574 451 1552Q451 1530 442.50 1510.50Q434 1491 419.50 1477Q405 1463 385.50 1454.50Q366 1446 344 1446Q299 1446 268.50 1476.50Q238 1507 238 1552Q238 1574 246.50 1594Q255 1614 269 1628Q283 1642 302.50 1650.50Q322 1659 344 1659M782 1659Q804 1659 824 1650.50Q844 1642 858 1628Q872 1614 880.50 1594Q889 1574 889 1552Q889 1530 880.50 1510.50Q872 1491 858 1477Q844 1463 824 1454.50Q804 1446 782 1446Q737 1446 706.50 1476.50Q676 1507 676 1552Q676 1574 684.50 1594Q693 1614 707 1628Q721 1642 740.50 1650.50Q760 1659 782 1659M0 1307Z"  horiz-adv-x="1126" vert-adv-y="2048"  />

      
      <glyph glyph-name="uni016A" unicode="&#x016A;" d="M1018 455Q1018 347 987.50 259.50Q957 172 898 110.50Q839 49 753.50 15.50Q668-18 557-18Q435-18 350 14Q265 46 211.50 104.50Q158 163 133.50 245Q109 327 109 428L109 1307L287 1307L287 442Q287 365 301.50 307Q316 249 349 210Q382 171 434.50 151Q487 131 563 131Q705 131 772.50 213Q840 295 840 444L840 1307L1018 1307L1018 455M846 1483L281 1483L281 1616L846 1616L846 1483M0 1307Z"  horiz-adv-x="1126" vert-adv-y="2048"  />

      
      <glyph glyph-name="uni016C" unicode="&#x016C;" d="M1018 455Q1018 347 987.50 259.50Q957 172 898 110.50Q839 49 753.50 15.50Q668-18 557-18Q435-18 350 14Q265 46 211.50 104.50Q158 163 133.50 245Q109 327 109 428L109 1307L287 1307L287 442Q287 365 301.50 307Q316 249 349 210Q382 171 434.50 151Q487 131 563 131Q705 131 772.50 213Q840 295 840 444L840 1307L1018 1307L1018 455M829 1665Q829 1604 807.50 1560.50Q786 1517 749.50 1489Q713 1461 664.50 1447.50Q616 1434 563 1434Q510 1434 462 1447.50Q414 1461 377 1489Q340 1517 318.50 1560.50Q297 1604 297 1665L434 1665Q434 1614 467.50 1588.50Q501 1563 563 1563Q625 1563 658.50 1588.50Q692 1614 692 1665L829 1665M0 1307Z"  horiz-adv-x="1126" vert-adv-y="2048"  />

      
      <glyph glyph-name="uni016E" unicode="&#x016E;" d="M1018 455Q1018 347 987.50 259.50Q957 172 898 110.50Q839 49 753.50 15.50Q668-18 557-18Q435-18 350 14Q265 46 211.50 104.50Q158 163 133.50 245Q109 327 109 428L109 1307L287 1307L287 442Q287 365 301.50 307Q316 249 349 210Q382 171 434.50 151Q487 131 563 131Q705 131 772.50 213Q840 295 840 444L840 1307L1018 1307L1018 455M563 1740Q606 1740 643 1726.50Q680 1713 707 1687.50Q734 1662 749 1627Q764 1592 764 1550Q764 1509 749 1473.50Q734 1438 707 1412.50Q680 1387 643 1372.50Q606 1358 563 1358Q520 1358 483.50 1372.50Q447 1387 420 1412.50Q393 1438 377.50 1473.50Q362 1509 362 1550Q362 1592 377.50 1627Q393 1662 420 1687.50Q447 1713 483.50 1726.50Q520 1740 563 1740M563 1638Q523 1638 498 1614.50Q473 1591 473 1550Q473 1510 498 1485Q523 1460 563 1460Q605 1460 629 1485Q653 1510 653 1550Q653 1591 629 1614.50Q605 1638 563 1638M0 1307Z"  horiz-adv-x="1126" vert-adv-y="2048"  />

      
      <glyph glyph-name="uni0170" unicode="&#x0170;" d="M1018 455Q1018 347 987.50 259.50Q957 172 898 110.50Q839 49 753.50 15.50Q668-18 557-18Q435-18 350 14Q265 46 211.50 104.50Q158 163 133.50 245Q109 327 109 428L109 1307L287 1307L287 442Q287 365 301.50 307Q316 249 349 210Q382 171 434.50 151Q487 131 563 131Q705 131 772.50 213Q840 295 840 444L840 1307L1018 1307L1018 455M676 1659L453 1446L272 1446L463 1659L676 1659M1126 1659L866 1446L684 1446L895 1659L1126 1659M0 1307Z"  horiz-adv-x="1126" vert-adv-y="2048"  />

      
      <glyph glyph-name="uni0172" unicode="&#x0172;" d="M758-375Q733-380 702.50-382.50Q672-385 647-385Q539-385 483.50-339Q428-293 428-221Q428-199 432-177.50Q436-156 447.50-131.50Q459-107 479-79Q499-51 532-17Q417-14 336.50 19.50Q256 53 205.50 111Q155 169 132 249.50Q109 330 109 428L109 1307L287 1307L287 442Q287 365 301.50 307Q316 249 349 210Q382 171 434.50 151Q487 131 563 131Q705 131 772.50 213Q840 295 840 444L840 1307L1018 1307L1018 455Q1018 366 997.50 291Q977 216 937 158Q897 100 839 59.50Q781 19 705 0Q669-36 647-63.50Q625-91 613-113Q601-135 596.50-154.50Q592-174 592-193Q592-225 614-245.50Q636-266 688-266Q702-266 721.50-265Q741-264 758-262L758-375Z"  horiz-adv-x="1126" vert-adv-y="2048"  />

      
      <glyph glyph-name="uni1E80" unicode="&#x1E80;" d="M1081 1307L993 0L762 0L600 465L555 614L508 453L358 0L135 0L45 1307L213 1307L264 418L279 174L342 381L500 866L623 866L805 346L866 174L870 354L922 1307L1081 1307M668 1446L489 1446L205 1659L457 1659L668 1446M0 1307Z"  horiz-adv-x="1126" vert-adv-y="2048"  />

      
      <glyph glyph-name="uni1E82" unicode="&#x1E82;" d="M1081 1307L993 0L762 0L600 465L555 614L508 453L358 0L135 0L45 1307L213 1307L264 418L279 174L342 381L500 866L623 866L805 346L866 174L870 354L922 1307L1081 1307M922 1659L637 1446L459 1446L670 1659L922 1659M0 1307Z"  horiz-adv-x="1126" vert-adv-y="2048"  />

      
      <glyph glyph-name="uni0174" unicode="&#x0174;" d="M1081 1307L993 0L762 0L600 465L555 614L508 453L358 0L135 0L45 1307L213 1307L264 418L279 174L342 381L500 866L623 866L805 346L866 174L870 354L922 1307L1081 1307M879 1446L696 1446L561 1548L426 1446L248 1446L479 1659L647 1659L879 1446M0 1307Z"  horiz-adv-x="1126" vert-adv-y="2048"  />

      
      <glyph glyph-name="uni1E84" unicode="&#x1E84;" d="M1081 1307L993 0L762 0L600 465L555 614L508 453L358 0L135 0L45 1307L213 1307L264 418L279 174L342 381L500 866L623 866L805 346L866 174L870 354L922 1307L1081 1307M344 1659Q366 1659 385.50 1650.50Q405 1642 419.50 1628Q434 1614 442.50 1594Q451 1574 451 1552Q451 1530 442.50 1510.50Q434 1491 419.50 1477Q405 1463 385.50 1454.50Q366 1446 344 1446Q299 1446 268.50 1476.50Q238 1507 238 1552Q238 1574 246.50 1594Q255 1614 269 1628Q283 1642 302.50 1650.50Q322 1659 344 1659M782 1659Q804 1659 824 1650.50Q844 1642 858 1628Q872 1614 880.50 1594Q889 1574 889 1552Q889 1530 880.50 1510.50Q872 1491 858 1477Q844 1463 824 1454.50Q804 1446 782 1446Q737 1446 706.50 1476.50Q676 1507 676 1552Q676 1574 684.50 1594Q693 1614 707 1628Q721 1642 740.50 1650.50Q760 1659 782 1659M0 1307Z"  horiz-adv-x="1126" vert-adv-y="2048"  />

      
      <glyph glyph-name="uni1EF2" unicode="&#x1EF2;" d="M1126 1307L653 467L653 0L473 0L473 471L0 1307L215 1307L475 829L571 637L659 811L922 1307L1126 1307M668 1446L489 1446L205 1659L457 1659L668 1446M0 1307Z"  horiz-adv-x="1126" vert-adv-y="2048"  />

      
      <glyph glyph-name="unidd" unicode="&#xdd;" d="M1126 1307L653 467L653 0L473 0L473 471L0 1307L215 1307L475 829L571 637L659 811L922 1307L1126 1307M922 1659L637 1446L459 1446L670 1659L922 1659M0 1307Z"  horiz-adv-x="1126" vert-adv-y="2048"  />

      
      <glyph glyph-name="uni0176" unicode="&#x0176;" d="M1126 1307L653 467L653 0L473 0L473 471L0 1307L215 1307L475 829L571 637L659 811L922 1307L1126 1307M879 1446L696 1446L561 1548L426 1446L248 1446L479 1659L647 1659L879 1446M0 1307Z"  horiz-adv-x="1126" vert-adv-y="2048"  />

      
      <glyph glyph-name="uni0178" unicode="&#x0178;" d="M1126 1307L653 467L653 0L473 0L473 471L0 1307L215 1307L475 829L571 637L659 811L922 1307L1126 1307M344 1659Q366 1659 385.50 1650.50Q405 1642 419.50 1628Q434 1614 442.50 1594Q451 1574 451 1552Q451 1530 442.50 1510.50Q434 1491 419.50 1477Q405 1463 385.50 1454.50Q366 1446 344 1446Q299 1446 268.50 1476.50Q238 1507 238 1552Q238 1574 246.50 1594Q255 1614 269 1628Q283 1642 302.50 1650.50Q322 1659 344 1659M782 1659Q804 1659 824 1650.50Q844 1642 858 1628Q872 1614 880.50 1594Q889 1574 889 1552Q889 1530 880.50 1510.50Q872 1491 858 1477Q844 1463 824 1454.50Q804 1446 782 1446Q737 1446 706.50 1476.50Q676 1507 676 1552Q676 1574 684.50 1594Q693 1614 707 1628Q721 1642 740.50 1650.50Q760 1659 782 1659M0 1307Z"  horiz-adv-x="1126" vert-adv-y="2048"  />

      
      <glyph glyph-name="uni0179" unicode="&#x0179;" d="M1001 1167L334 166L1014 166L1014 0L111 0L111 133L782 1145L129 1145L129 1307L1001 1307L1001 1167M922 1659L637 1446L459 1446L670 1659L922 1659M0 1307Z"  horiz-adv-x="1126" vert-adv-y="2048"  />

      
      <glyph glyph-name="uni017D" unicode="&#x017D;" d="M1001 1167L334 166L1014 166L1014 0L111 0L111 133L782 1145L129 1145L129 1307L1001 1307L1001 1167M248 1659L430 1659L565 1556L700 1659L879 1659L647 1446L479 1446L248 1659M0 1307Z"  horiz-adv-x="1126" vert-adv-y="2048"  />

      
      <glyph glyph-name="uni017B" unicode="&#x017B;" d="M1001 1167L334 166L1014 166L1014 0L111 0L111 133L782 1145L129 1145L129 1307L1001 1307L1001 1167M436 1552Q436 1578 446 1601Q456 1624 473 1641.50Q490 1659 513 1669Q536 1679 563 1679Q590 1679 613 1669Q636 1659 653.50 1641.50Q671 1624 680.50 1601Q690 1578 690 1552Q690 1526 680.50 1503Q671 1480 653.50 1462.50Q636 1445 613 1435Q590 1425 563 1425Q536 1425 513 1435Q490 1445 473 1462.50Q456 1480 446 1503Q436 1526 436 1552M0 1307Z"  horiz-adv-x="1126" vert-adv-y="2048"  />

      
      <glyph glyph-name="uni61" unicode="&#x61;" d="M805 0L801 135Q719 54 634.50 18Q550-18 457-18Q371-18 310 4Q249 26 209.50 64.50Q170 103 151.50 155Q133 207 133 268Q133 419 245.50 504.50Q358 590 578 590L786 590L786 678Q786 767 729 820.50Q672 874 555 874Q470 874 387.50 855Q305 836 217 801L217 958Q250 970 290.50 981.50Q331 993 376 1002Q421 1011 470 1016.50Q519 1022 569 1022Q660 1022 733 1002Q806 982 856.50 941Q907 900 934 838Q961 776 961 692L961 0L805 0M786 457L565 457Q500 457 453 444Q406 431 376 407Q346 383 331.50 349.50Q317 316 317 274Q317 245 326 218.50Q335 192 355 171.50Q375 151 407 139Q439 127 485 127Q545 127 622.50 163.50Q700 200 786 279L786 457Z"  horiz-adv-x="1126" vert-adv-y="2048"  />

      
      <glyph glyph-name="uni62" unicode="&#x62;" d="M1018 520Q1018 395 983.50 296.50Q949 198 885.50 129.50Q822 61 731 24.50Q640-12 526-12Q437-12 344 5Q251 22 160 59L160 1413L334 1413L334 1024L326 838Q401 939 486.50 980.50Q572 1022 670 1022Q756 1022 821 986Q886 950 930 884.50Q974 819 996 726.50Q1018 634 1018 520M840 512Q840 591 828.50 657Q817 723 792 770Q767 817 728 843.50Q689 870 635 870Q602 870 568 859.50Q534 849 497.50 824.50Q461 800 420.50 759.50Q380 719 334 659L334 172Q385 152 438 140.50Q491 129 539 129Q599 129 653.50 148Q708 167 749.50 211.50Q791 256 815.50 329.50Q840 403 840 512Z"  horiz-adv-x="1126" vert-adv-y="2048"  />

      
      <glyph glyph-name="uni63" unicode="&#x63;" d="M940 37Q872 11 800.50-1.50Q729-14 653-14Q415-14 286.50 115Q158 244 158 492Q158 611 195 708Q232 805 299 874Q366 943 459 980.50Q552 1018 664 1018Q742 1018 810 1007Q878 996 940 971L940 805Q875 839 807.50 854.50Q740 870 668 870Q601 870 541.50 844.50Q482 819 437 771Q392 723 366 654Q340 585 340 498Q340 316 428.50 225.50Q517 135 674 135Q745 135 811.50 151Q878 167 940 199L940 37Z"  horiz-adv-x="1126" vert-adv-y="2048"  />

      
      <glyph glyph-name="uni64" unicode="&#x64;" d="M109 481Q109 609 144 708.50Q179 808 243.50 876.50Q308 945 398.50 980.50Q489 1016 600 1016Q648 1016 694.50 1010Q741 1004 786 991L786 1413L961 1413L961 0L805 0L799 190Q726 84 641 33Q556-18 457-18Q371-18 305.50 18Q240 54 196.50 119.50Q153 185 131 277Q109 369 109 481M287 492Q287 310 340.50 220.50Q394 131 492 131Q558 131 631.50 190Q705 249 786 365L786 831Q743 851 691 861.50Q639 872 588 872Q446 872 366.50 780Q287 688 287 492Z"  horiz-adv-x="1126" vert-adv-y="2048"  />

      
      <glyph glyph-name="uni65" unicode="&#x65;" d="M1008 555Q1008 518 1007 493Q1006 468 1004 446L299 446Q299 292 385 209.50Q471 127 633 127Q677 127 721 130.50Q765 134 806 140Q847 146 884.50 153.50Q922 161 954 170L954 27Q883 7 793.50-5.50Q704-18 608-18Q479-18 386 17Q293 52 233.50 118.50Q174 185 145.50 281.50Q117 378 117 500Q117 606 147.50 700.50Q178 795 236.50 866.50Q295 938 380 980Q465 1022 573 1022Q678 1022 759 989Q840 956 895.50 895.50Q951 835 979.50 748.50Q1008 662 1008 555M827 580Q830 647 814 702.50Q798 758 764.50 798Q731 838 681 860.50Q631 883 565 883Q508 883 461 861Q414 839 380 799Q346 759 325 703Q304 647 299 580L827 580Z"  horiz-adv-x="1126" vert-adv-y="2048"  />

      
      <glyph glyph-name="uni66" unicode="&#x66;" d="M1051 1251Q914 1280 815 1280Q580 1280 580 1034L580 858L1020 858L1020 713L580 713L580 0L403 0L403 713L80 713L80 858L403 858L403 1024Q403 1425 821 1425Q925 1425 1051 1401L1051 1251M0 1004Z"  horiz-adv-x="1126" vert-adv-y="2048"  />

      
      <glyph glyph-name="uni67" unicode="&#x67;" d="M883 862Q911 827 926.50 780.50Q942 734 942 680Q942 602 913.50 537.50Q885 473 833 427Q781 381 708.50 355.50Q636 330 549 330Q486 330 431 343.50Q376 357 344 377Q325 349 312 324Q299 299 299 268Q299 230 335.50 205Q372 180 432 178L696 168Q771 166 834.50 149Q898 132 943.50 100Q989 68 1014.50 21Q1040-26 1040-88Q1040-155 1011-215Q982-275 921.50-320.50Q861-366 768-393Q675-420 547-420Q425-420 339.50-400.50Q254-381 199-346.50Q144-312 119-264.50Q94-217 94-160Q94-87 128-32Q162 23 233 74Q207 86 188 104Q169 122 157 143.50Q145 165 139 189Q133 213 133 236Q133 301 163.50 355Q194 409 236 457Q217 480 202.50 502Q188 524 177.50 549.50Q167 575 161.50 604.50Q156 634 156 672Q156 750 184.50 814.50Q213 879 264.50 925Q316 971 388.50 996.50Q461 1022 549 1022Q586 1022 620 1017Q654 1012 680 1004L1044 1004L1044 862L883 862M279-145Q279-216 353-248.50Q427-281 559-281Q642-281 698.50-266Q755-251 789.50-226.50Q824-202 839-170.50Q854-139 854-106Q854-45 804-16Q754 13 651 18L389 27Q356 5 334.50-16Q313-37 301-58.50Q289-80 284-101.50Q279-123 279-145M332 676Q332 628 348 588Q364 548 393 520Q422 492 461.50 476.50Q501 461 549 461Q601 461 641.50 478.50Q682 496 709.50 526Q737 556 751.50 595Q766 634 766 676Q766 724 750 764Q734 804 705 832Q676 860 636.50 875.50Q597 891 549 891Q497 891 456.50 873Q416 855 388.50 825.50Q361 796 346.50 757Q332 718 332 676Z"  horiz-adv-x="1126" vert-adv-y="2048"  />

      
      <glyph glyph-name="uni68" unicode="&#x68;" d="M967 0L793 0L793 641Q793 757 749.50 814.50Q706 872 625 872Q590 872 559.50 862.50Q529 853 496 829.50Q463 806 424 766Q385 726 334 666L334 0L160 0L160 1413L334 1413L334 1004L328 846Q369 895 408.50 928.50Q448 962 487.50 983Q527 1004 568 1013Q609 1022 653 1022Q803 1022 885 930.50Q967 839 967 655L967 0Z"  horiz-adv-x="1126" vert-adv-y="2048"  />

      
      <glyph glyph-name="uni69" unicode="&#x69;" d="M502 860L205 860L205 1004L678 1004L678 145L977 145L977 0L172 0L172 145L502 145L502 860M563 1425Q592 1425 617 1414.50Q642 1404 660.50 1385Q679 1366 689.50 1341.50Q700 1317 700 1288Q700 1260 689.50 1235Q679 1210 660.50 1191Q642 1172 617 1161.50Q592 1151 563 1151Q534 1151 509 1161.50Q484 1172 465.50 1191Q447 1210 436.50 1235Q426 1260 426 1288Q426 1317 436.50 1341.50Q447 1366 465.50 1385Q484 1404 509 1414.50Q534 1425 563 1425Z"  horiz-adv-x="1126" vert-adv-y="2048"  />

      
      <glyph glyph-name="uni6a" unicode="&#x6a;" d="M840 1004L840 18Q840-87 810-168.50Q780-250 724-306Q668-362 586.50-391Q505-420 403-420Q329-420 258.50-406.50Q188-393 131-369L131-203Q162-219 197.50-232Q233-245 270.50-254Q308-263 346-267.50Q384-272 420-272Q534-272 599-200Q664-128 664 12L664 860L172 860L172 1004L840 1004M735 1425Q764 1425 789 1414.50Q814 1404 832.50 1385Q851 1366 861.50 1341Q872 1316 872 1288Q872 1259 861.50 1234.50Q851 1210 832.50 1191Q814 1172 789 1161.50Q764 1151 735 1151Q706 1151 681 1161.50Q656 1172 637.50 1191Q619 1210 608.50 1234.50Q598 1259 598 1288Q598 1316 608.50 1341Q619 1366 637.50 1385Q656 1404 681 1414.50Q706 1425 735 1425Z"  horiz-adv-x="1126" vert-adv-y="2048"  />

      
      <glyph glyph-name="uni6b" unicode="&#x6b;" d="M1063 0L824 0L356 538L356 0L182 0L182 1413L356 1413L356 545L807 1004L1037 1004L566 541L1063 0Z"  horiz-adv-x="1126" vert-adv-y="2048"  />

      
      <glyph glyph-name="uni6c" unicode="&#x6c;" d="M502 1270L205 1270L205 1413L678 1413L678 145L977 145L977 0L172 0L172 145L502 145L502 1270Z"  horiz-adv-x="1126" vert-adv-y="2048"  />

      
      <glyph glyph-name="uni6d" unicode="&#x6d;" d="M876 0L876 721Q876 768 872.50 798Q869 828 861.50 845.50Q854 863 842.50 870Q831 877 814 877Q794 877 777 865Q760 853 740.50 826Q721 799 697.50 754.50Q674 710 642 645L642 0L483 0L483 702Q483 757 479.50 791Q476 825 468.50 844Q461 863 449 870Q437 877 420 877Q402 877 386 867Q370 857 350.50 831Q331 805 307 760Q283 715 250 645L250 0L90 0L90 1004L223 1004L231 813Q257 870 281.50 910Q306 950 332 974.50Q358 999 387.50 1010.50Q417 1022 453 1022Q534 1022 576 969Q618 916 618 805Q642 857 665 897.50Q688 938 714.50 965.50Q741 993 773 1007.50Q805 1022 847 1022Q1036 1022 1036 731L1036 0L876 0Z"  horiz-adv-x="1126" vert-adv-y="2048"  />

      
      <glyph glyph-name="uni6e" unicode="&#x6e;" d="M160 1004L315 1004L322 842Q366 894 407 928.50Q448 963 487.50 984Q527 1005 568 1013.50Q609 1022 653 1022Q808 1022 887.50 930.50Q967 839 967 655L967 0L793 0L793 641Q793 759 749 815.50Q705 872 618 872Q586 872 555.50 862.50Q525 853 492 829.50Q459 806 420.50 766Q382 726 334 666L334 0L160 0L160 1004Z"  horiz-adv-x="1126" vert-adv-y="2048"  />

      
      <glyph glyph-name="uni6f" unicode="&#x6f;" d="M1034 510Q1034 393 1001 295.50Q968 198 906 128.50Q844 59 755 20.50Q666-18 553-18Q445-18 359.50 15.50Q274 49 214.50 114Q155 179 123.50 275Q92 371 92 496Q92 613 125 709.50Q158 806 220 875.50Q282 945 371 983.50Q460 1022 573 1022Q681 1022 766.50 988.50Q852 955 911.50 890.50Q971 826 1002.50 730Q1034 634 1034 510M856 502Q856 595 835.50 664.50Q815 734 777 780.50Q739 827 684.50 850.50Q630 874 563 874Q485 874 429.50 843.50Q374 813 338.50 762Q303 711 286.50 643.50Q270 576 270 502Q270 409 290.50 339Q311 269 349 222.50Q387 176 441 152.50Q495 129 563 129Q641 129 696.50 159.50Q752 190 787.50 241Q823 292 839.50 359.50Q856 427 856 502Z"  horiz-adv-x="1126" vert-adv-y="2048"  />

      
      <glyph glyph-name="uni70" unicode="&#x70;" d="M1018 520Q1018 386 980.50 286Q943 186 877 120Q811 54 721 21Q631-12 526-12Q478-12 430.50-7Q383-2 334 10L334-410L160-410L160 1004L315 1004L326 836Q401 939 486 980.50Q571 1022 670 1022Q756 1022 821 986Q886 950 930 884.50Q974 819 996 726.50Q1018 634 1018 520M840 512Q840 591 828.50 657Q817 723 792 770Q767 817 728 843.50Q689 870 635 870Q602 870 568 859.50Q534 849 497.50 824.50Q461 800 420.50 759.50Q380 719 334 659L334 172Q382 152 435 140.50Q488 129 539 129Q680 129 760 224.50Q840 320 840 512Z"  horiz-adv-x="1126" vert-adv-y="2048"  />

      
      <glyph glyph-name="uni71" unicode="&#x71;" d="M109 481Q109 589 137.50 686Q166 783 225.50 856.50Q285 930 378 973Q471 1016 600 1016Q651 1016 701 1008Q751 1000 807 983L961 1022L961-410L786-410L786-31L795 184Q653-18 457-18Q369-18 304 18Q239 54 195.50 120Q152 186 130.50 278Q109 370 109 481M287 492Q287 408 299.50 341Q312 274 337.50 227.50Q363 181 401.50 156Q440 131 492 131Q558 131 631.50 190Q705 249 786 365L786 831Q746 850 695.50 862Q645 874 588 874Q441 874 364 777Q287 680 287 492Z"  horiz-adv-x="1126" vert-adv-y="2048"  />

      
      <glyph glyph-name="uni72" unicode="&#x72;" d="M201 1004L360 1004L365 819Q454 926 540.50 974Q627 1022 715 1022Q871 1022 951.50 921Q1032 820 1026 621L850 621Q853 753 811.50 812.50Q770 872 690 872Q655 872 619.50 859.50Q584 847 546.50 819.50Q509 792 467 749Q425 706 377 645L377 0L201 0L201 1004Z"  horiz-adv-x="1126" vert-adv-y="2048"  />

      
      <glyph glyph-name="uni73" unicode="&#x73;" d="M955 274Q955 221 937 179Q919 137 888 104.50Q857 72 816 49Q775 26 728.50 11Q682-4 633-11Q584-18 537-18Q435-18 349.50-9Q264 0 182 20L182 180Q270 155 357 142Q444 129 530 129Q655 129 715 163Q775 197 775 260Q775 287 765.50 308.50Q756 330 731 349.50Q706 369 653.50 390Q601 411 510 438Q442 458 384.50 483.50Q327 509 285 544Q243 579 219 626Q195 673 195 737Q195 779 214.50 829Q234 879 281 922Q328 965 408 993.50Q488 1022 608 1022Q667 1022 739 1015.50Q811 1009 889 993L889 838Q807 858 733.50 867.50Q660 877 606 877Q541 877 496.50 867Q452 857 424.50 839.50Q397 822 385 798.50Q373 775 373 748Q373 721 383.50 699Q394 677 422.50 656.50Q451 636 502 615.50Q553 595 635 571Q724 545 785 516.50Q846 488 884 453Q922 418 938.50 374Q955 330 955 274Z"  horiz-adv-x="1126" vert-adv-y="2048"  />

      
      <glyph glyph-name="uni74" unicode="&#x74;" d="M969 14Q910-1 847-7.50Q784-14 719-14Q530-14 437 71.50Q344 157 344 334L344 858L63 858L63 1004L344 1004L344 1280L518 1325L518 1004L969 1004L969 858L518 858L518 348Q518 240 575.50 186.50Q633 133 745 133Q793 133 850 140.50Q907 148 969 164L969 14Z"  horiz-adv-x="1126" vert-adv-y="2048"  />

      
      <glyph glyph-name="uni75" unicode="&#x75;" d="M967 0L811 0L805 162Q760 110 719.50 75.50Q679 41 639 20Q599-1 558.50-9.50Q518-18 473-18Q318-18 239 73Q160 164 160 348L160 1004L334 1004L334 362Q334 131 508 131Q540 131 570.50 140.50Q601 150 634.50 173.50Q668 197 706.50 237Q745 277 793 338L793 1004L967 1004L967 0Z"  horiz-adv-x="1126" vert-adv-y="2048"  />

      
      <glyph glyph-name="uni76" unicode="&#x76;" d="M66 1004L264 1004L510 340L563 178L618 344L862 1004L1053 1004L659 0L459 0L66 1004Z"  horiz-adv-x="1126" vert-adv-y="2048"  />

      
      <glyph glyph-name="uni77" unicode="&#x77;" d="M1090 1004L944 0L733 0L588 420L559 522L526 414L387 0L182 0L37 1004L207 1004L291 322L309 170L352 303L498 754L623 754L780 309L825 176L840 317L918 1004L1090 1004Z"  horiz-adv-x="1126" vert-adv-y="2048"  />

      
      <glyph glyph-name="uni78" unicode="&#x78;" d="M1065 0L834 0L563 383L295 0L70 0L459 504L88 1004L311 1004L575 618L834 1004L1049 1004L672 500L1065 0Z"  horiz-adv-x="1126" vert-adv-y="2048"  />

      
      <glyph glyph-name="uni79" unicode="&#x79;" d="M1053 1004L711 106Q658-31 601.50-130Q545-229 478-292.50Q411-356 331-386Q251-416 152-416Q126-416 105-415Q84-414 59-412L59-254Q81-257 107-259.50Q133-262 162-262Q210-262 251.50-248Q293-234 330-202.50Q367-171 401-121Q435-71 467 0L66 1004L264 1004L518 340L569 184L627 344L862 1004L1053 1004Z"  horiz-adv-x="1126" vert-adv-y="2048"  />

      
      <glyph glyph-name="uni7a" unicode="&#x7a;" d="M973 0L164 0L164 125L731 858L178 858L178 1004L940 1004L940 868L383 147L973 147L973 0Z"  horiz-adv-x="1126" vert-adv-y="2048"  />

      
      <glyph glyph-name="unie0" unicode="&#xe0;" d="M805 0L801 135Q719 54 634.50 18Q550-18 457-18Q371-18 310 4Q249 26 209.50 64.50Q170 103 151.50 155Q133 207 133 268Q133 419 245.50 504.50Q358 590 578 590L786 590L786 678Q786 767 729 820.50Q672 874 555 874Q470 874 387.50 855Q305 836 217 801L217 958Q250 970 290.50 981.50Q331 993 376 1002Q421 1011 470 1016.50Q519 1022 569 1022Q660 1022 733 1002Q806 982 856.50 941Q907 900 934 838Q961 776 961 692L961 0L805 0M786 457L565 457Q500 457 453 444Q406 431 376 407Q346 383 331.50 349.50Q317 316 317 274Q317 245 326 218.50Q335 192 355 171.50Q375 151 407 139Q439 127 485 127Q545 127 622.50 163.50Q700 200 786 279L786 457M668 1171L494 1171L174 1413L426 1413L668 1171M0 1004Z"  horiz-adv-x="1126" vert-adv-y="2048"  />

      
      <glyph glyph-name="unie1" unicode="&#xe1;" d="M805 0L801 135Q719 54 634.50 18Q550-18 457-18Q371-18 310 4Q249 26 209.50 64.50Q170 103 151.50 155Q133 207 133 268Q133 419 245.50 504.50Q358 590 578 590L786 590L786 678Q786 767 729 820.50Q672 874 555 874Q470 874 387.50 855Q305 836 217 801L217 958Q250 970 290.50 981.50Q331 993 376 1002Q421 1011 470 1016.50Q519 1022 569 1022Q660 1022 733 1002Q806 982 856.50 941Q907 900 934 838Q961 776 961 692L961 0L805 0M786 457L565 457Q500 457 453 444Q406 431 376 407Q346 383 331.50 349.50Q317 316 317 274Q317 245 326 218.50Q335 192 355 171.50Q375 151 407 139Q439 127 485 127Q545 127 622.50 163.50Q700 200 786 279L786 457M952 1413L633 1171L459 1171L700 1413L952 1413M0 1004Z"  horiz-adv-x="1126" vert-adv-y="2048"  />

      
      <glyph glyph-name="unie2" unicode="&#xe2;" d="M805 0L801 135Q719 54 634.50 18Q550-18 457-18Q371-18 310 4Q249 26 209.50 64.50Q170 103 151.50 155Q133 207 133 268Q133 419 245.50 504.50Q358 590 578 590L786 590L786 678Q786 767 729 820.50Q672 874 555 874Q470 874 387.50 855Q305 836 217 801L217 958Q250 970 290.50 981.50Q331 993 376 1002Q421 1011 470 1016.50Q519 1022 569 1022Q660 1022 733 1002Q806 982 856.50 941Q907 900 934 838Q961 776 961 692L961 0L805 0M786 457L565 457Q500 457 453 444Q406 431 376 407Q346 383 331.50 349.50Q317 316 317 274Q317 245 326 218.50Q335 192 355 171.50Q375 151 407 139Q439 127 485 127Q545 127 622.50 163.50Q700 200 786 279L786 457M635 1413L879 1171L702 1171L561 1292L420 1171L248 1171L492 1413L635 1413M0 1004Z"  horiz-adv-x="1126" vert-adv-y="2048"  />

      
      <glyph glyph-name="unie3" unicode="&#xe3;" d="M805 0L801 135Q719 54 634.50 18Q550-18 457-18Q371-18 310 4Q249 26 209.50 64.50Q170 103 151.50 155Q133 207 133 268Q133 419 245.50 504.50Q358 590 578 590L786 590L786 678Q786 767 729 820.50Q672 874 555 874Q470 874 387.50 855Q305 836 217 801L217 958Q250 970 290.50 981.50Q331 993 376 1002Q421 1011 470 1016.50Q519 1022 569 1022Q660 1022 733 1002Q806 982 856.50 941Q907 900 934 838Q961 776 961 692L961 0L805 0M786 457L565 457Q500 457 453 444Q406 431 376 407Q346 383 331.50 349.50Q317 316 317 274Q317 245 326 218.50Q335 192 355 171.50Q375 151 407 139Q439 127 485 127Q545 127 622.50 163.50Q700 200 786 279L786 457M201 1268Q244 1340 298.50 1376.50Q353 1413 422 1413Q480 1413 520 1396Q560 1379 591 1359Q622 1339 649.50 1322Q677 1305 711 1305Q751 1305 781.50 1332.50Q812 1360 840 1403L926 1317Q882 1245 828 1208.50Q774 1172 705 1172Q646 1172 606.50 1188.50Q567 1205 536 1225.50Q505 1246 477.50 1263Q450 1280 416 1280Q375 1280 345 1252.50Q315 1225 287 1182L201 1268M0 1004Z"  horiz-adv-x="1126" vert-adv-y="2048"  />

      
      <glyph glyph-name="unie4" unicode="&#xe4;" d="M805 0L801 135Q719 54 634.50 18Q550-18 457-18Q371-18 310 4Q249 26 209.50 64.50Q170 103 151.50 155Q133 207 133 268Q133 419 245.50 504.50Q358 590 578 590L786 590L786 678Q786 767 729 820.50Q672 874 555 874Q470 874 387.50 855Q305 836 217 801L217 958Q250 970 290.50 981.50Q331 993 376 1002Q421 1011 470 1016.50Q519 1022 569 1022Q660 1022 733 1002Q806 982 856.50 941Q907 900 934 838Q961 776 961 692L961 0L805 0M786 457L565 457Q500 457 453 444Q406 431 376 407Q346 383 331.50 349.50Q317 316 317 274Q317 245 326 218.50Q335 192 355 171.50Q375 151 407 139Q439 127 485 127Q545 127 622.50 163.50Q700 200 786 279L786 457M348 1405Q371 1405 391.50 1396Q412 1387 427.50 1371.50Q443 1356 452 1335.50Q461 1315 461 1292Q461 1269 452 1248.50Q443 1228 427.50 1213Q412 1198 391.50 1189Q371 1180 348 1180Q325 1180 304.50 1189Q284 1198 269 1213Q254 1228 245 1248.50Q236 1269 236 1292Q236 1315 245 1335.50Q254 1356 269 1371.50Q284 1387 304.50 1396Q325 1405 348 1405M778 1405Q801 1405 821.50 1396Q842 1387 857.50 1371.50Q873 1356 882 1335.50Q891 1315 891 1292Q891 1269 882 1248.50Q873 1228 857.50 1213Q842 1198 821.50 1189Q801 1180 778 1180Q755 1180 734.50 1189Q714 1198 699 1213Q684 1228 675 1248.50Q666 1269 666 1292Q666 1315 675 1335.50Q684 1356 699 1371.50Q714 1387 734.50 1396Q755 1405 778 1405M0 1004Z"  horiz-adv-x="1126" vert-adv-y="2048"  />

      
      <glyph glyph-name="uni0101" unicode="&#x0101;" d="M805 0L801 135Q719 54 634.50 18Q550-18 457-18Q371-18 310 4Q249 26 209.50 64.50Q170 103 151.50 155Q133 207 133 268Q133 419 245.50 504.50Q358 590 578 590L786 590L786 678Q786 767 729 820.50Q672 874 555 874Q470 874 387.50 855Q305 836 217 801L217 958Q250 970 290.50 981.50Q331 993 376 1002Q421 1011 470 1016.50Q519 1022 569 1022Q660 1022 733 1002Q806 982 856.50 941Q907 900 934 838Q961 776 961 692L961 0L805 0M786 457L565 457Q500 457 453 444Q406 431 376 407Q346 383 331.50 349.50Q317 316 317 274Q317 245 326 218.50Q335 192 355 171.50Q375 151 407 139Q439 127 485 127Q545 127 622.50 163.50Q700 200 786 279L786 457M825 1225L301 1225L301 1358L825 1358L825 1225M0 1004Z"  horiz-adv-x="1126" vert-adv-y="2048"  />

      
      <glyph glyph-name="uni0103" unicode="&#x0103;" d="M805 0L801 135Q719 54 634.50 18Q550-18 457-18Q371-18 310 4Q249 26 209.50 64.50Q170 103 151.50 155Q133 207 133 268Q133 419 245.50 504.50Q358 590 578 590L786 590L786 678Q786 767 729 820.50Q672 874 555 874Q470 874 387.50 855Q305 836 217 801L217 958Q250 970 290.50 981.50Q331 993 376 1002Q421 1011 470 1016.50Q519 1022 569 1022Q660 1022 733 1002Q806 982 856.50 941Q907 900 934 838Q961 776 961 692L961 0L805 0M786 457L565 457Q500 457 453 444Q406 431 376 407Q346 383 331.50 349.50Q317 316 317 274Q317 245 326 218.50Q335 192 355 171.50Q375 151 407 139Q439 127 485 127Q545 127 622.50 163.50Q700 200 786 279L786 457M811 1413Q811 1352 791 1306.50Q771 1261 737.50 1231Q704 1201 659 1186Q614 1171 563 1171Q512 1171 467 1186Q422 1201 388.50 1231Q355 1261 335 1306.50Q315 1352 315 1413L451 1413Q451 1362 479 1331Q507 1300 563 1300Q619 1300 647 1331Q675 1362 675 1413L811 1413M0 1004Z"  horiz-adv-x="1126" vert-adv-y="2048"  />

      
      <glyph glyph-name="unie5" unicode="&#xe5;" d="M805 0L801 135Q719 54 634.50 18Q550-18 457-18Q371-18 310 4Q249 26 209.50 64.50Q170 103 151.50 155Q133 207 133 268Q133 419 245.50 504.50Q358 590 578 590L786 590L786 678Q786 767 729 820.50Q672 874 555 874Q470 874 387.50 855Q305 836 217 801L217 958Q250 970 290.50 981.50Q331 993 376 1002Q421 1011 470 1016.50Q519 1022 569 1022Q660 1022 733 1002Q806 982 856.50 941Q907 900 934 838Q961 776 961 692L961 0L805 0M786 457L565 457Q500 457 453 444Q406 431 376 407Q346 383 331.50 349.50Q317 316 317 274Q317 245 326 218.50Q335 192 355 171.50Q375 151 407 139Q439 127 485 127Q545 127 622.50 163.50Q700 200 786 279L786 457M563 1501Q608 1501 647 1485Q686 1469 715 1441Q744 1413 761 1375Q778 1337 778 1294Q778 1251 761 1213.50Q744 1176 715 1148Q686 1120 647 1104Q608 1088 563 1088Q518 1088 479 1104Q440 1120 411 1148Q382 1176 365 1213.50Q348 1251 348 1294Q348 1337 365 1375Q382 1413 411 1441Q440 1469 479 1485Q518 1501 563 1501M563 1395Q542 1395 524 1387Q506 1379 492.50 1365.50Q479 1352 471 1333.50Q463 1315 463 1294Q463 1252 492 1223Q521 1194 563 1194Q584 1194 602 1202Q620 1210 633.50 1223.50Q647 1237 655 1255Q663 1273 663 1294Q663 1315 655 1333.50Q647 1352 633.50 1365.50Q620 1379 602 1387Q584 1395 563 1395M0 1004Z"  horiz-adv-x="1126" vert-adv-y="2048"  />

      
      <glyph glyph-name="uni01FB" unicode="&#x01FB;" d="M805 0L801 135Q719 54 634.50 18Q550-18 457-18Q371-18 310 4Q249 26 209.50 64.50Q170 103 151.50 155Q133 207 133 268Q133 419 245.50 504.50Q358 590 578 590L786 590L786 678Q786 767 729 820.50Q672 874 555 874Q470 874 387.50 855Q305 836 217 801L217 958Q250 970 290.50 981.50Q331 993 376 1002Q421 1011 470 1016.50Q519 1022 569 1022Q660 1022 733 1002Q806 982 856.50 941Q907 900 934 838Q961 776 961 692L961 0L805 0M786 457L565 457Q500 457 453 444Q406 431 376 407Q346 383 331.50 349.50Q317 316 317 274Q317 245 326 218.50Q335 192 355 171.50Q375 151 407 139Q439 127 485 127Q545 127 622.50 163.50Q700 200 786 279L786 457M563 1501Q608 1501 647 1485Q686 1469 715 1441Q744 1413 761 1375Q778 1337 778 1294Q778 1251 761 1213.50Q744 1176 715 1148Q686 1120 647 1104Q608 1088 563 1088Q518 1088 479 1104Q440 1120 411 1148Q382 1176 365 1213.50Q348 1251 348 1294Q348 1337 365 1375Q382 1413 411 1441Q440 1469 479 1485Q518 1501 563 1501M563 1395Q542 1395 524 1387Q506 1379 492.50 1365.50Q479 1352 471 1333.50Q463 1315 463 1294Q463 1252 492 1223Q521 1194 563 1194Q584 1194 602 1202Q620 1210 633.50 1223.50Q647 1237 655 1255Q663 1273 663 1294Q663 1315 655 1333.50Q647 1352 633.50 1365.50Q620 1379 602 1387Q584 1395 563 1395M0 1004M932 1759L647 1546L469 1546L680 1759L932 1759M10 1407Z"  horiz-adv-x="1126" vert-adv-y="2048"  />

      
      <glyph glyph-name="uni0105" unicode="&#x0105;" d="M1014-375Q989-380 958.50-382.50Q928-385 903-385Q795-385 739.50-339Q684-293 684-221Q684-198 688.50-175Q693-152 706-126Q719-100 742.50-69Q766-38 805 0L801 135Q719 54 634.50 18Q550-18 457-18Q371-18 310 4Q249 26 209.50 64.50Q170 103 151.50 155Q133 207 133 268Q133 419 245.50 504.50Q358 590 578 590L786 590L786 678Q786 767 729 820.50Q672 874 555 874Q470 874 387.50 855Q305 836 217 801L217 958Q250 970 290.50 981.50Q331 993 376 1002Q421 1011 470 1016.50Q519 1022 569 1022Q660 1022 733 1002Q806 982 856.50 941Q907 900 934 838Q961 776 961 692L961 0Q925-36 903-63.50Q881-91 869-113Q857-135 852.50-154.50Q848-174 848-193Q848-225 869.50-245.50Q891-266 944-266Q958-266 977.50-265Q997-264 1014-262L1014-375M786 457L565 457Q500 457 453 444Q406 431 376 407Q346 383 331.50 349.50Q317 316 317 274Q317 245 326 218.50Q335 192 355 171.50Q375 151 407 139Q439 127 485 127Q545 127 622.50 163.50Q700 200 786 279L786 457Z"  horiz-adv-x="1126" vert-adv-y="2048"  />

      
      <glyph glyph-name="unie6" unicode="&#xe6;" d="M340 1022Q431 1022 492.50 992.50Q554 963 580 901Q615 957 670.50 989.50Q726 1022 799 1022Q877 1022 931.50 990Q986 958 1020.50 900Q1055 842 1071 760.50Q1087 679 1087 580Q1087 526 1086 499Q1085 472 1083 457L639 457Q639 296 685.50 210.50Q732 125 840 125Q897 125 953 137Q1009 149 1051 166L1051 27Q1028 17 998 8.50Q968 0 935-6Q902-12 868-15Q834-18 803-18Q609-18 535 156Q484 74 418 28Q352-18 276-18Q156-18 93.50 55Q31 128 31 268Q31 343 50.50 402.50Q70 462 110.50 502.50Q151 543 214 564.50Q277 586 365 586L485 586L485 670Q485 771 450.50 826Q416 881 332 881Q275 881 211.50 861.50Q148 842 86 807L86 958Q110 970 140.50 981.50Q171 993 204 1002Q237 1011 272 1016.50Q307 1022 340 1022M360 457Q273 457 234 407Q195 357 195 274Q195 199 221 162Q247 125 295 125Q337 125 383.50 159Q430 193 485 281L485 457L360 457M793 883Q754 883 725.50 860Q697 837 677.50 797.50Q658 758 648.50 703.50Q639 649 639 586L924 586Q925 648 918.50 702.50Q912 757 896.50 797Q881 837 855.50 860Q830 883 793 883Z"  horiz-adv-x="1126" vert-adv-y="2048"  />

      
      <glyph glyph-name="uni01FD" unicode="&#x01FD;" d="M340 1022Q431 1022 492.50 992.50Q554 963 580 901Q615 957 670.50 989.50Q726 1022 799 1022Q877 1022 931.50 990Q986 958 1020.50 900Q1055 842 1071 760.50Q1087 679 1087 580Q1087 526 1086 499Q1085 472 1083 457L639 457Q639 296 685.50 210.50Q732 125 840 125Q897 125 953 137Q1009 149 1051 166L1051 27Q1028 17 998 8.50Q968 0 935-6Q902-12 868-15Q834-18 803-18Q609-18 535 156Q484 74 418 28Q352-18 276-18Q156-18 93.50 55Q31 128 31 268Q31 343 50.50 402.50Q70 462 110.50 502.50Q151 543 214 564.50Q277 586 365 586L485 586L485 670Q485 771 450.50 826Q416 881 332 881Q275 881 211.50 861.50Q148 842 86 807L86 958Q110 970 140.50 981.50Q171 993 204 1002Q237 1011 272 1016.50Q307 1022 340 1022M360 457Q273 457 234 407Q195 357 195 274Q195 199 221 162Q247 125 295 125Q337 125 383.50 159Q430 193 485 281L485 457L360 457M793 883Q754 883 725.50 860Q697 837 677.50 797.50Q658 758 648.50 703.50Q639 649 639 586L924 586Q925 648 918.50 702.50Q912 757 896.50 797Q881 837 855.50 860Q830 883 793 883M952 1413L633 1171L459 1171L700 1413L952 1413M0 1004Z"  horiz-adv-x="1126" vert-adv-y="2048"  />

      
      <glyph glyph-name="uni0107" unicode="&#x0107;" d="M940 37Q872 11 800.50-1.50Q729-14 653-14Q415-14 286.50 115Q158 244 158 492Q158 611 195 708Q232 805 299 874Q366 943 459 980.50Q552 1018 664 1018Q742 1018 810 1007Q878 996 940 971L940 805Q875 839 807.50 854.50Q740 870 668 870Q601 870 541.50 844.50Q482 819 437 771Q392 723 366 654Q340 585 340 498Q340 316 428.50 225.50Q517 135 674 135Q745 135 811.50 151Q878 167 940 199L940 37M993 1413L674 1171L500 1171L741 1413L993 1413M41 1004Z"  horiz-adv-x="1126" vert-adv-y="2048"  />

      
      <glyph glyph-name="uni0109" unicode="&#x0109;" d="M940 37Q872 11 800.50-1.50Q729-14 653-14Q415-14 286.50 115Q158 244 158 492Q158 611 195 708Q232 805 299 874Q366 943 459 980.50Q552 1018 664 1018Q742 1018 810 1007Q878 996 940 971L940 805Q875 839 807.50 854.50Q740 870 668 870Q601 870 541.50 844.50Q482 819 437 771Q392 723 366 654Q340 585 340 498Q340 316 428.50 225.50Q517 135 674 135Q745 135 811.50 151Q878 167 940 199L940 37M676 1413L920 1171L743 1171L602 1292L461 1171L289 1171L533 1413L676 1413M41 1004Z"  horiz-adv-x="1126" vert-adv-y="2048"  />

      
      <glyph glyph-name="uni010D" unicode="&#x010D;" d="M940 37Q872 11 800.50-1.50Q729-14 653-14Q415-14 286.50 115Q158 244 158 492Q158 611 195 708Q232 805 299 874Q366 943 459 980.50Q552 1018 664 1018Q742 1018 810 1007Q878 996 940 971L940 805Q875 839 807.50 854.50Q740 870 668 870Q601 870 541.50 844.50Q482 819 437 771Q392 723 366 654Q340 585 340 498Q340 316 428.50 225.50Q517 135 674 135Q745 135 811.50 151Q878 167 940 199L940 37M553 1171L309 1413L485 1413L626 1292L768 1413L940 1413L696 1171L553 1171M61 1004Z"  horiz-adv-x="1126" vert-adv-y="2048"  />

      
      <glyph glyph-name="uni010B" unicode="&#x010B;" d="M940 37Q872 11 800.50-1.50Q729-14 653-14Q415-14 286.50 115Q158 244 158 492Q158 611 195 708Q232 805 299 874Q366 943 459 980.50Q552 1018 664 1018Q742 1018 810 1007Q878 996 940 971L940 805Q875 839 807.50 854.50Q740 870 668 870Q601 870 541.50 844.50Q482 819 437 771Q392 723 366 654Q340 585 340 498Q340 316 428.50 225.50Q517 135 674 135Q745 135 811.50 151Q878 167 940 199L940 37M604 1421Q632 1421 656.50 1410.50Q681 1400 699 1382Q717 1364 727 1340Q737 1316 737 1288Q737 1260 727 1236Q717 1212 699 1194Q681 1176 656.50 1165.50Q632 1155 604 1155Q575 1155 551 1165.50Q527 1176 509 1194Q491 1212 481 1236Q471 1260 471 1288Q471 1316 481 1340Q491 1364 509 1382Q527 1400 551 1410.50Q575 1421 604 1421M41 1004Z"  horiz-adv-x="1126" vert-adv-y="2048"  />

      
      <glyph glyph-name="unie7" unicode="&#xe7;" d="M677-14L595-295L443-295L509 0Q335 38 246.50 163.50Q158 289 158 492Q158 611 195 708Q232 805 299 874Q366 943 459 980.50Q552 1018 664 1018Q742 1018 810 1007Q878 996 940 971L940 805Q875 839 807.50 854.50Q740 870 668 870Q601 870 541.50 844.50Q482 819 437 771Q392 723 366 654Q340 585 340 498Q340 316 428.50 225.50Q517 135 674 135Q745 135 811.50 151Q878 167 940 199L940 37Q872 11 805-1Q738-13 677-14Z"  horiz-adv-x="1126" vert-adv-y="2048"  />

      
      <glyph glyph-name="uni010F" unicode="&#x010F;" d="M60 481Q60 609 95 708.50Q130 808 194.50 876.50Q259 945 349.50 980.50Q440 1016 551 1016Q599 1016 645.50 1010Q692 1004 737 991L737 1413L912 1413L912 0L756 0L750 190Q677 84 592 33Q507-18 408-18Q322-18 256.50 18Q191 54 147.50 119.50Q104 185 82 277Q60 369 60 481M238 492Q238 310 291.50 220.50Q345 131 443 131Q509 131 582.50 190Q656 249 737 365L737 831Q694 851 642 861.50Q590 872 539 872Q397 872 317.50 780Q238 688 238 492M1221 1466L1112 1171L967 1171L1051 1466L1221 1466M-14 1004Z"  horiz-adv-x="1126" vert-adv-y="2048"  />

      
      <glyph glyph-name="unif0" unicode="&#xf0;" d="M717 852Q675 861 643 864.50Q611 868 582 868Q498 868 440 837Q382 806 346.50 753.50Q311 701 295 632Q279 563 279 487Q279 400 299.50 333Q320 266 356.50 220.50Q393 175 443.50 152Q494 129 553 129Q622 129 673.50 155.50Q725 182 759 229.50Q793 277 810 344Q827 411 827 492Q827 578 800.50 665Q774 752 717 852M616 1010Q596 1039 572 1073.50Q548 1108 522 1143L242 1083L242 1229L428 1268L313 1413L530 1413L612 1309L909 1370L909 1225L705 1184Q778 1083 834 991.50Q890 900 928 816Q966 732 986 654Q1006 576 1006 502Q1006 449 997.50 389.50Q989 330 969 272.50Q949 215 914.50 162.50Q880 110 828.50 69.50Q777 29 705.50 5.50Q634-18 539-18Q433-18 351 17.50Q269 53 213.50 118Q158 183 129 274.50Q100 366 100 477Q100 586 131 683.50Q162 781 222 854.50Q282 928 369.50 971Q457 1014 571 1014Q578 1014 591 1013Q604 1012 616 1010Z"  horiz-adv-x="1126" vert-adv-y="2048"  />

      
      <glyph glyph-name="uni0111" unicode="&#x0111;" d="M477 1282L766 1282L766 1413L940 1413L940 1282L1126 1282L1126 1137L940 1137L940 0L784 0L778 190Q706 84 621.50 33Q537-18 438-18Q352-18 288 18Q224 54 182 119.50Q140 185 119 277Q98 369 98 481Q98 609 132 708.50Q166 808 229 876.50Q292 945 381.50 980.50Q471 1016 582 1016Q679 1016 766 991L766 1137L477 1137L477 1282M276 492Q276 309 326 220Q376 131 473 131Q539 131 611.50 190Q684 249 766 365L766 831Q723 851 671.50 861.50Q620 872 569 872Q428 872 352 780Q276 688 276 492Z"  horiz-adv-x="1126" vert-adv-y="2048"  />

      
      <glyph glyph-name="unie8" unicode="&#xe8;" d="M1008 555Q1008 518 1007 493Q1006 468 1004 446L299 446Q299 292 385 209.50Q471 127 633 127Q677 127 721 130.50Q765 134 806 140Q847 146 884.50 153.50Q922 161 954 170L954 27Q883 7 793.50-5.50Q704-18 608-18Q479-18 386 17Q293 52 233.50 118.50Q174 185 145.50 281.50Q117 378 117 500Q117 606 147.50 700.50Q178 795 236.50 866.50Q295 938 380 980Q465 1022 573 1022Q678 1022 759 989Q840 956 895.50 895.50Q951 835 979.50 748.50Q1008 662 1008 555M827 580Q830 647 814 702.50Q798 758 764.50 798Q731 838 681 860.50Q631 883 565 883Q508 883 461 861Q414 839 380 799Q346 759 325 703Q304 647 299 580L827 580M668 1171L494 1171L174 1413L426 1413L668 1171M0 1004Z"  horiz-adv-x="1126" vert-adv-y="2048"  />

      
      <glyph glyph-name="unie9" unicode="&#xe9;" d="M1008 555Q1008 518 1007 493Q1006 468 1004 446L299 446Q299 292 385 209.50Q471 127 633 127Q677 127 721 130.50Q765 134 806 140Q847 146 884.50 153.50Q922 161 954 170L954 27Q883 7 793.50-5.50Q704-18 608-18Q479-18 386 17Q293 52 233.50 118.50Q174 185 145.50 281.50Q117 378 117 500Q117 606 147.50 700.50Q178 795 236.50 866.50Q295 938 380 980Q465 1022 573 1022Q678 1022 759 989Q840 956 895.50 895.50Q951 835 979.50 748.50Q1008 662 1008 555M827 580Q830 647 814 702.50Q798 758 764.50 798Q731 838 681 860.50Q631 883 565 883Q508 883 461 861Q414 839 380 799Q346 759 325 703Q304 647 299 580L827 580M952 1413L633 1171L459 1171L700 1413L952 1413M0 1004Z"  horiz-adv-x="1126" vert-adv-y="2048"  />

      
      <glyph glyph-name="uniea" unicode="&#xea;" d="M1008 555Q1008 518 1007 493Q1006 468 1004 446L299 446Q299 292 385 209.50Q471 127 633 127Q677 127 721 130.50Q765 134 806 140Q847 146 884.50 153.50Q922 161 954 170L954 27Q883 7 793.50-5.50Q704-18 608-18Q479-18 386 17Q293 52 233.50 118.50Q174 185 145.50 281.50Q117 378 117 500Q117 606 147.50 700.50Q178 795 236.50 866.50Q295 938 380 980Q465 1022 573 1022Q678 1022 759 989Q840 956 895.50 895.50Q951 835 979.50 748.50Q1008 662 1008 555M827 580Q830 647 814 702.50Q798 758 764.50 798Q731 838 681 860.50Q631 883 565 883Q508 883 461 861Q414 839 380 799Q346 759 325 703Q304 647 299 580L827 580M635 1413L879 1171L702 1171L561 1292L420 1171L248 1171L492 1413L635 1413M0 1004Z"  horiz-adv-x="1126" vert-adv-y="2048"  />

      
      <glyph glyph-name="uni011B" unicode="&#x011B;" d="M1008 555Q1008 518 1007 493Q1006 468 1004 446L299 446Q299 292 385 209.50Q471 127 633 127Q677 127 721 130.50Q765 134 806 140Q847 146 884.50 153.50Q922 161 954 170L954 27Q883 7 793.50-5.50Q704-18 608-18Q479-18 386 17Q293 52 233.50 118.50Q174 185 145.50 281.50Q117 378 117 500Q117 606 147.50 700.50Q178 795 236.50 866.50Q295 938 380 980Q465 1022 573 1022Q678 1022 759 989Q840 956 895.50 895.50Q951 835 979.50 748.50Q1008 662 1008 555M827 580Q830 647 814 702.50Q798 758 764.50 798Q731 838 681 860.50Q631 883 565 883Q508 883 461 861Q414 839 380 799Q346 759 325 703Q304 647 299 580L827 580M492 1171L248 1413L424 1413L565 1292L707 1413L879 1413L635 1171L492 1171M0 1004Z"  horiz-adv-x="1126" vert-adv-y="2048"  />

      
      <glyph glyph-name="unieb" unicode="&#xeb;" d="M1008 555Q1008 518 1007 493Q1006 468 1004 446L299 446Q299 292 385 209.50Q471 127 633 127Q677 127 721 130.50Q765 134 806 140Q847 146 884.50 153.50Q922 161 954 170L954 27Q883 7 793.50-5.50Q704-18 608-18Q479-18 386 17Q293 52 233.50 118.50Q174 185 145.50 281.50Q117 378 117 500Q117 606 147.50 700.50Q178 795 236.50 866.50Q295 938 380 980Q465 1022 573 1022Q678 1022 759 989Q840 956 895.50 895.50Q951 835 979.50 748.50Q1008 662 1008 555M827 580Q830 647 814 702.50Q798 758 764.50 798Q731 838 681 860.50Q631 883 565 883Q508 883 461 861Q414 839 380 799Q346 759 325 703Q304 647 299 580L827 580M348 1405Q371 1405 391.50 1396Q412 1387 427.50 1371.50Q443 1356 452 1335.50Q461 1315 461 1292Q461 1269 452 1248.50Q443 1228 427.50 1213Q412 1198 391.50 1189Q371 1180 348 1180Q325 1180 304.50 1189Q284 1198 269 1213Q254 1228 245 1248.50Q236 1269 236 1292Q236 1315 245 1335.50Q254 1356 269 1371.50Q284 1387 304.50 1396Q325 1405 348 1405M778 1405Q801 1405 821.50 1396Q842 1387 857.50 1371.50Q873 1356 882 1335.50Q891 1315 891 1292Q891 1269 882 1248.50Q873 1228 857.50 1213Q842 1198 821.50 1189Q801 1180 778 1180Q755 1180 734.50 1189Q714 1198 699 1213Q684 1228 675 1248.50Q666 1269 666 1292Q666 1315 675 1335.50Q684 1356 699 1371.50Q714 1387 734.50 1396Q755 1405 778 1405M0 1004Z"  horiz-adv-x="1126" vert-adv-y="2048"  />

      
      </font>
</defs>
</svg>
