<?xml version="1.0" standalone="no"?>
   <!DOCTYPE svg PUBLIC "-//W3C//DTD SVG 1.1//EN" 
   "http://www.w3.org/Graphics/SVG/1.1/DTD/svg11.dtd"><svg id="svg" version="1.1" width="507" height="816" xmlns="http://www.w3.org/2000/svg"><path d="M305.644 77.991 C 293.544 87.083,288.861 89.066,284.724 86.852 C 275.644 81.993,247.597 83.699,226.066 90.421 C 214.074 94.164,198.982 96.603,189.866 96.271 C 167.618 95.460,145.396 106.805,132.652 125.479 C 127.343 133.259,123.000 141.145,123.000 143.003 C 123.000 144.862,119.428 150.454,115.062 155.430 C 98.464 174.345,83.831 206.971,79.809 234.031 C 77.711 248.146,73.562 263.406,70.590 267.942 C 57.603 287.762,62.338 334.986,81.265 374.419 C 88.677 389.862,90.827 399.259,92.965 425.569 C 94.406 443.297,96.530 461.783,97.686 466.650 C 100.281 477.576,111.822 493.749,125.030 504.968 C 131.992 510.882,135.000 516.005,135.000 521.952 C 135.000 527.676,137.868 532.880,143.752 537.831 C 152.104 544.859,152.428 546.036,150.835 563.598 C 149.918 573.719,148.027 582.000,146.634 582.000 C 142.541 582.000,129.237 610.598,125.736 626.922 C 123.545 637.140,123.457 646.421,125.462 655.821 C 127.725 666.430,127.411 672.070,124.121 679.943 C 120.696 688.142,120.511 692.775,123.207 702.860 C 127.400 718.541,129.268 720.829,145.787 730.509 C 156.027 736.511,167.095 739.287,194.168 742.645 C 234.009 747.588,289.473 748.245,307.887 743.993 C 314.701 742.420,326.176 740.470,333.387 739.660 C 354.305 737.310,388.777 727.246,400.300 720.124 C 424.126 705.398,430.617 681.654,415.325 665.161 C 408.579 657.886,407.896 655.242,409.684 643.316 C 412.669 623.415,405.105 606.291,385.602 588.796 C 370.068 574.862,369.617 573.997,367.787 554.625 C 366.003 535.734,366.284 534.504,373.455 529.805 C 378.974 526.189,381.000 522.222,381.000 515.031 C 381.000 509.624,379.752 503.918,378.226 502.350 C 376.576 500.654,376.499 494.033,378.035 486.000 C 382.257 463.936,376.573 433.874,364.387 413.814 C 352.926 394.946,344.210 386.510,314.992 366.000 C 276.494 338.976,269.521 327.897,293.250 331.455 C 312.754 334.380,316.568 336.932,325.913 353.305 C 337.680 373.922,341.819 378.061,358.500 385.896 C 374.647 393.480,388.801 395.098,390.643 389.570 C 391.501 386.996,393.387 386.996,398.196 389.570 C 401.721 391.456,409.184 393.000,414.780 393.000 C 446.357 393.000,452.300 336.651,424.845 297.566 C 409.738 276.058,393.997 246.002,389.983 231.000 C 385.329 213.605,380.036 203.527,368.880 190.821 L 359.871 180.561 365.716 170.531 C 374.445 155.549,376.247 140.792,370.909 128.016 C 366.661 117.849,358.730 112.140,341.692 106.983 C 338.568 106.037,335.646 99.233,333.347 87.548 C 331.355 77.423,327.937 68.850,325.521 67.923 C 323.163 67.018,314.218 71.549,305.644 77.991 M318.877 97.025 C 316.497 98.414,313.751 98.751,312.775 97.775 C 311.799 96.799,312.575 96.000,314.500 96.000 C 316.425 96.000,318.095 92.963,318.211 89.250 C 318.411 82.850,318.546 82.811,320.813 88.500 C 322.437 92.577,321.817 95.309,318.877 97.025 M285.000 98.831 C 285.000 100.042,277.238 101.106,267.750 101.197 C 258.263 101.287,244.626 102.943,237.447 104.878 C 222.818 108.819,218.056 107.322,228.108 101.942 C 240.991 95.048,285.000 92.641,285.000 98.831 M324.000 101.679 C 324.000 104.565,316.704 108.060,311.005 107.905 C 309.077 107.852,310.121 105.827,313.323 103.405 C 319.934 98.404,324.000 97.747,324.000 101.679 M275.045 109.583 C 275.617 111.328,265.690 114.298,252.177 116.424 C 228.226 120.193,212.953 125.043,196.868 133.989 C 190.443 137.563,188.573 137.781,189.552 134.844 C 191.139 130.084,207.606 121.286,232.283 112.014 C 250.621 105.124,273.162 103.842,275.045 109.583 M174.000 113.017 C 168.225 115.508,159.203 120.798,153.950 124.773 C 142.119 133.727,138.190 134.113,145.785 125.576 C 152.051 118.533,172.870 108.027,180.000 108.311 C 182.475 108.409,179.775 110.527,174.000 113.017 M294.339 133.533 L 295.113 157.500 272.056 168.653 C 249.115 179.751,243.472 186.841,254.734 190.415 C 264.695 193.577,328.128 192.698,336.946 189.276 C 342.567 187.096,347.226 186.980,350.873 188.932 C 360.404 194.033,371.721 209.819,375.215 222.886 C 377.070 229.824,381.318 241.521,384.655 248.879 C 388.053 256.370,389.431 262.690,387.787 263.238 C 386.172 263.776,382.297 266.303,379.175 268.853 C 373.650 273.367,373.659 273.435,379.500 271.405 C 392.668 266.828,396.000 266.433,396.000 269.448 C 396.000 271.179,393.300 273.453,390.000 274.500 C 386.700 275.547,384.000 277.711,384.000 279.308 C 384.000 281.109,386.202 281.032,389.803 279.106 C 397.059 275.222,399.000 275.200,399.000 279.000 C 399.000 280.650,396.975 282.000,394.500 282.000 C 392.025 282.000,390.000 283.397,390.000 285.106 C 390.000 287.243,391.813 287.241,395.818 285.097 C 399.687 283.027,402.259 282.991,403.495 284.992 C 404.517 286.646,403.329 288.000,400.854 288.000 C 398.379 288.000,395.486 289.404,394.426 291.120 C 393.173 293.146,395.478 293.601,400.999 292.416 C 409.292 290.636,409.353 290.715,403.500 295.652 C 397.665 300.573,397.748 300.660,406.500 298.810 C 414.540 297.111,414.940 297.348,410.250 301.035 C 403.105 306.651,403.605 309.958,411.000 306.000 C 418.534 301.968,419.194 307.300,411.750 312.057 C 407.158 314.992,407.368 315.228,413.421 313.942 C 419.467 312.658,419.846 313.083,416.421 317.298 C 413.056 321.439,413.245 321.844,417.750 320.156 C 423.650 317.945,425.104 322.651,419.250 325.013 C 417.188 325.845,418.875 326.676,423.000 326.859 C 429.934 327.166,430.099 327.495,425.180 331.227 C 420.138 335.053,420.172 335.345,425.825 336.824 C 431.141 338.214,431.596 340.132,430.002 354.442 C 426.901 382.293,410.450 391.072,394.500 373.387 C 388.169 366.367,377.561 360.000,372.197 360.000 C 366.725 360.000,368.697 368.500,374.604 370.374 C 377.687 371.353,382.567 374.759,385.449 377.944 C 390.557 383.588,390.397 383.690,379.095 381.979 C 362.277 379.432,349.532 370.641,340.625 355.442 C 325.461 329.567,318.941 325.124,289.958 320.919 C 269.784 317.991,253.706 308.310,248.601 296.017 C 246.664 291.352,243.591 279.219,241.773 269.055 C 239.244 254.922,237.146 250.321,232.851 249.494 C 227.692 248.501,227.412 249.824,229.403 265.761 C 230.595 275.303,232.830 286.424,234.370 290.474 C 236.482 296.029,235.956 299.182,232.228 303.300 C 229.510 306.304,226.231 308.478,224.943 308.131 C 223.654 307.784,222.465 308.513,222.300 309.750 C 221.213 317.905,222.981 318.182,230.447 311.030 L 238.895 302.937 245.730 310.213 C 250.452 315.239,251.952 319.424,250.581 323.745 C 249.415 327.418,249.917 330.000,251.798 330.000 C 253.559 330.000,255.000 328.650,255.000 327.000 C 255.000 321.738,263.672 323.781,266.894 329.803 C 271.306 338.046,270.765 341.360,264.750 342.932 C 261.520 343.776,262.674 344.438,267.750 344.652 C 277.855 345.078,279.189 353.787,269.250 354.451 C 265.538 354.698,268.575 355.846,276.000 357.000 C 285.000 358.399,286.750 359.249,281.250 359.549 C 276.713 359.797,273.000 361.500,273.000 363.334 C 273.000 365.461,276.529 366.022,282.750 364.883 C 288.113 363.902,294.525 364.406,297.000 366.004 C 300.638 368.351,300.206 368.917,294.750 368.954 C 281.461 369.045,288.292 375.010,302.250 375.504 C 315.305 375.966,315.557 376.107,305.250 377.185 C 299.063 377.833,294.000 379.806,294.000 381.571 C 294.000 383.602,298.976 384.219,307.547 383.253 C 314.998 382.413,321.828 382.913,322.724 384.363 C 323.621 385.813,319.549 387.000,313.677 387.000 C 307.805 387.000,303.000 388.396,303.000 390.103 C 303.000 392.080,308.284 392.506,317.553 391.276 C 328.813 389.782,332.485 390.332,333.780 393.704 C 335.020 396.937,333.655 397.720,328.493 396.733 C 324.666 396.001,319.052 396.846,316.017 398.610 C 311.632 401.160,314.038 401.836,327.750 401.909 C 347.744 402.015,351.068 407.108,332.250 408.803 C 320.060 409.901,320.192 409.975,335.250 410.476 C 354.133 411.104,356.213 416.185,338.250 417.803 C 326.060 418.901,326.192 418.975,341.250 419.476 C 359.506 420.083,362.907 426.000,345.000 426.000 C 338.400 426.000,333.000 427.350,333.000 429.000 C 333.000 430.650,339.075 432.000,346.500 432.000 C 353.925 432.000,360.000 433.350,360.000 435.000 C 360.000 436.650,354.375 438.000,347.500 438.000 C 340.625 438.000,335.944 438.944,337.098 440.098 C 338.251 441.251,345.226 441.824,352.598 441.371 C 360.671 440.875,366.000 441.830,366.000 443.773 C 366.000 445.650,359.652 447.000,350.823 447.000 C 342.476 447.000,336.379 448.187,337.276 449.637 C 338.172 451.087,345.002 451.587,352.453 450.747 C 369.160 448.863,371.169 454.864,354.750 457.610 C 337.488 460.497,336.121 461.859,351.000 461.348 C 366.826 460.805,369.464 466.082,354.022 467.394 C 337.351 468.811,336.208 470.505,351.750 470.763 C 359.588 470.893,366.000 472.350,366.000 474.000 C 366.000 475.650,364.313 477.100,362.250 477.223 C 354.576 477.679,343.810 480.193,342.182 481.909 C 341.257 482.884,346.238 483.155,353.250 482.512 C 362.202 481.690,366.000 482.482,366.000 485.171 C 366.000 487.629,361.766 489.000,354.177 489.000 C 347.674 489.000,341.404 490.537,340.243 492.415 C 338.727 494.869,341.423 495.253,349.816 493.782 L 361.500 491.733 352.578 496.537 C 347.053 499.512,335.059 501.562,321.078 501.921 C 308.660 502.239,297.748 503.508,296.830 504.739 C 295.911 505.971,284.862 507.849,272.278 508.913 C 252.598 510.576,247.484 509.948,235.731 504.423 C 220.324 497.182,219.000 496.891,219.000 500.750 C 219.000 502.263,222.713 504.802,227.250 506.393 C 242.353 511.688,179.542 507.818,158.662 502.167 C 155.233 501.239,152.689 494.221,149.926 478.070 C 146.333 457.064,146.441 455.051,151.308 452.328 C 158.783 448.145,155.616 430.507,139.629 387.278 C 128.563 357.356,127.342 351.839,130.884 347.764 C 133.911 344.280,135.000 332.864,135.000 304.595 C 135.000 274.433,135.942 265.445,139.377 262.831 C 141.785 260.999,145.089 251.034,146.721 240.687 C 148.352 230.340,152.747 216.429,156.488 209.774 C 162.121 199.751,164.474 197.971,170.192 199.406 C 175.572 200.756,177.703 199.542,179.847 193.902 C 184.359 182.034,201.619 164.435,214.474 158.595 C 229.633 151.708,259.517 151.089,265.956 157.528 C 272.459 164.030,276.005 160.356,275.545 147.590 C 275.277 140.155,277.970 131.850,283.715 122.392 C 288.428 114.633,292.573 108.573,292.925 108.925 C 293.278 109.278,293.914 120.351,294.339 133.533 M325.683 110.705 C 323.381 114.428,306.000 120.254,306.000 117.302 C 306.000 114.560,317.598 108.504,323.427 108.203 C 325.587 108.091,326.602 109.217,325.683 110.705 M214.350 113.430 C 209.210 117.813,195.000 122.927,195.000 120.394 C 195.000 119.032,198.038 116.452,201.750 114.661 C 209.812 110.773,218.457 109.928,214.350 113.430 M184.129 118.386 C 183.203 120.798,179.533 123.659,175.973 124.744 C 172.413 125.828,161.610 132.052,151.967 138.575 C 132.157 151.972,125.884 152.395,143.157 139.168 C 172.815 116.458,187.782 108.866,184.129 118.386 M327.000 122.707 C 327.000 126.415,323.678 129.571,317.514 131.720 C 304.434 136.280,302.799 133.134,315.296 127.453 L 325.500 122.814 315.000 124.520 C 304.528 126.221,304.520 126.214,312.000 121.719 C 322.206 115.586,327.000 115.902,327.000 122.707 M357.643 126.938 C 361.180 132.501,360.535 133.793,352.359 137.518 C 340.107 143.101,336.717 141.500,346.500 134.752 C 354.782 129.040,354.903 128.717,348.024 130.705 C 341.299 132.648,340.964 132.363,344.698 127.864 C 348.311 123.511,348.210 123.108,343.924 124.752 C 340.637 126.014,339.000 125.064,339.000 121.895 C 339.000 117.965,340.409 117.684,347.189 120.262 C 351.693 121.974,356.397 124.978,357.643 126.938 M270.000 122.625 C 270.000 125.517,255.572 129.000,243.592 129.000 C 239.381 129.000,224.600 133.175,210.745 138.278 C 196.891 143.381,184.911 146.911,184.123 146.123 C 182.246 144.246,224.328 126.760,239.058 123.294 C 254.294 119.710,270.000 119.370,270.000 122.625 M176.500 131.698 C 175.032 135.660,134.352 162.352,132.541 160.541 C 130.577 158.577,129.819 159.192,154.308 142.869 C 176.143 128.316,178.123 127.319,176.500 131.698 M264.000 134.679 C 264.000 138.714,255.966 141.000,241.789 141.000 C 223.940 141.000,202.435 149.018,192.742 159.288 C 184.241 168.295,180.000 170.196,180.000 165.000 C 180.000 156.846,211.612 140.122,238.500 134.051 C 249.385 131.593,264.000 131.953,264.000 134.679 M325.683 134.705 C 323.925 137.548,306.000 144.593,306.000 142.440 C 306.000 140.845,321.710 132.279,324.927 132.120 C 326.262 132.054,326.602 133.217,325.683 134.705 M363.000 141.000 C 363.000 142.650,361.988 144.015,360.750 144.032 C 359.513 144.050,351.858 146.080,343.740 148.542 C 327.186 153.564,327.396 151.610,344.256 143.736 C 357.344 137.625,363.000 136.799,363.000 141.000 M323.750 142.094 C 323.063 142.695,319.125 144.795,315.000 146.759 C 307.928 150.127,307.832 150.065,313.323 145.665 C 318.102 141.837,327.867 138.492,323.750 142.094 M173.981 146.250 C 173.971 147.488,170.258 150.833,165.731 153.684 C 161.204 156.535,151.457 162.867,144.071 167.755 C 127.871 178.475,123.539 176.927,138.017 165.591 C 163.327 145.773,174.034 140.016,173.981 146.250 M361.752 150.750 C 360.790 152.813,359.218 156.682,358.257 159.348 C 357.062 162.665,351.138 164.834,339.505 166.215 C 330.152 167.326,316.088 169.318,308.250 170.642 C 300.413 171.966,294.000 172.052,294.000 170.834 C 294.000 169.616,305.813 167.033,320.250 165.093 C 353.696 160.599,358.397 158.640,331.500 160.404 L 310.500 161.781 334.500 154.619 C 363.147 146.070,363.989 145.950,361.752 150.750 M171.000 161.491 C 171.000 162.862,164.627 168.559,156.839 174.153 C 149.050 179.746,140.022 186.978,136.776 190.224 C 132.178 194.822,130.570 195.210,129.493 191.979 C 128.085 187.756,141.253 174.927,157.500 164.692 C 167.306 158.514,171.000 157.639,171.000 161.491 M227.250 166.409 C 219.663 176.843,220.803 179.170,229.500 171.000 C 236.887 164.061,239.158 158.910,234.750 159.094 C 233.513 159.146,230.138 162.438,227.250 166.409 M343.639 172.623 C 340.415 175.061,332.990 178.386,327.139 180.011 C 313.280 183.861,279.882 183.854,277.500 180.000 C 276.394 178.211,280.258 176.926,287.073 176.816 C 293.358 176.714,307.950 174.841,319.500 172.652 C 348.256 167.203,350.810 167.200,343.639 172.623 M118.552 180.535 C 118.035 187.117,115.819 190.804,111.401 192.439 C 103.694 195.290,103.659 195.015,110.056 181.602 C 116.329 168.446,119.535 168.044,118.552 180.535 M161.591 182.662 C 154.786 191.279,134.020 207.053,129.617 206.951 C 128.453 206.924,136.275 198.963,147.000 189.262 C 167.790 170.455,173.145 168.033,161.591 182.662 M234.765 174.750 C 229.315 181.634,224.299 192.787,227.561 190.771 C 232.739 187.571,243.644 171.000,240.572 171.000 C 239.011 171.000,236.398 172.688,234.765 174.750 M233.250 195.262 C 225.490 208.895,226.878 212.686,235.400 201.135 C 239.471 195.618,242.091 189.956,241.223 188.552 C 239.039 185.017,239.120 184.949,233.250 195.262 M189.000 192.000 C 189.000 195.759,192.184 195.759,198.000 192.000 C 201.639 189.648,201.208 189.083,195.750 189.046 C 192.038 189.021,189.000 190.350,189.000 192.000 M120.000 197.798 C 120.000 199.337,117.478 201.396,114.396 202.374 C 111.313 203.353,106.379 206.819,103.431 210.077 C 96.142 218.130,91.540 217.599,97.304 209.369 C 104.251 199.451,120.000 191.422,120.000 197.798 M331.891 201.091 C 333.939 203.139,337.435 203.203,342.241 201.282 C 349.062 198.555,348.875 198.369,339.150 198.190 C 332.046 198.060,329.770 198.970,331.891 201.091 M190.323 205.405 C 185.431 209.105,185.281 209.824,189.383 209.905 C 192.068 209.957,195.946 207.975,198.000 205.500 C 202.787 199.732,197.903 199.672,190.323 205.405 M142.341 212.250 C 139.974 216.788,137.943 222.525,137.828 225.000 C 137.714 227.475,136.325 226.264,134.744 222.309 C 132.552 216.831,133.065 213.795,136.899 209.559 C 144.326 201.352,147.267 202.806,142.341 212.250 M120.000 211.457 C 120.000 216.796,96.819 232.832,93.689 229.660 C 91.563 227.505,113.237 207.134,117.750 207.045 C 118.988 207.020,120.000 209.006,120.000 211.457 M160.289 216.750 L 155.424 226.500 163.212 218.381 C 171.565 209.672,172.708 207.000,168.077 207.000 C 166.469 207.000,162.965 211.388,160.289 216.750 M238.801 215.453 C 235.960 220.928,234.175 227.003,234.834 228.953 C 235.493 230.904,238.357 228.021,241.199 222.547 C 244.040 217.072,245.825 210.997,245.166 209.047 C 244.507 207.096,241.643 209.979,238.801 215.453 M273.000 209.906 C 273.000 211.504,275.025 212.035,277.500 211.085 C 279.975 210.135,282.000 208.828,282.000 208.179 C 282.000 207.531,279.975 207.000,277.500 207.000 C 275.025 207.000,273.000 208.308,273.000 209.906 M316.500 209.813 C 312.689 211.331,317.615 212.075,330.000 211.852 C 340.725 211.658,354.225 212.496,360.000 213.713 L 370.500 215.925 361.500 211.598 C 351.805 206.937,326.260 205.923,316.500 209.813 M208.965 221.486 C 203.458 227.571,202.626 231.000,206.655 231.000 C 208.115 231.000,211.521 227.625,214.224 223.500 C 219.918 214.810,216.271 213.413,208.965 221.486 M160.803 228.836 C 152.769 239.369,150.724 244.760,156.000 241.500 C 160.216 238.894,159.744 241.859,154.252 252.479 C 151.641 257.529,150.976 260.751,152.774 259.640 C 157.935 256.450,165.444 240.146,163.329 236.723 C 162.275 235.017,163.786 230.999,166.688 227.793 C 169.589 224.586,171.208 221.208,170.285 220.285 C 169.361 219.361,165.095 223.210,160.803 228.836 M304.500 222.000 C 301.544 226.782,305.750 231.000,313.475 231.000 C 317.579 231.000,321.349 233.224,322.373 236.250 C 325.336 244.999,339.470 253.186,352.163 253.504 C 358.729 253.669,364.641 255.423,365.301 257.402 C 366.878 262.134,374.142 262.029,375.805 257.250 C 376.523 255.188,373.418 248.086,368.905 241.469 C 362.920 232.691,356.751 228.022,346.100 224.204 C 330.100 218.468,307.425 217.267,304.500 222.000 M123.000 226.500 C 123.000 228.975,121.654 231.000,120.009 231.000 C 118.363 231.000,111.787 235.725,105.395 241.500 C 91.964 253.634,90.000 254.209,90.000 246.006 C 90.000 242.110,94.990 236.878,104.250 231.063 C 120.535 220.836,123.000 220.236,123.000 226.500 M285.084 232.279 C 280.384 244.641,281.885 248.885,286.896 237.401 C 289.319 231.847,290.597 226.597,289.735 225.735 C 288.873 224.873,286.780 227.818,285.084 232.279 M210.958 234.762 C 202.040 244.669,200.094 249.003,204.573 248.981 C 208.338 248.963,220.338 231.338,218.105 229.105 C 217.510 228.510,214.294 231.056,210.958 234.762 M349.255 235.821 C 351.865 236.822,354.000 238.847,354.000 240.321 C 354.000 244.520,343.754 243.459,337.323 238.595 C 331.625 234.285,331.640 234.189,338.005 234.095 C 341.582 234.043,346.645 234.819,349.255 235.821 M123.000 241.423 C 123.000 243.856,118.613 248.068,113.250 250.785 C 107.888 253.501,101.129 257.802,98.232 260.343 C 95.334 262.884,92.207 264.207,91.283 263.283 C 88.953 260.953,114.308 237.000,119.104 237.000 C 121.247 237.000,123.000 238.990,123.000 241.423 M291.091 244.350 C 291.025 250.804,291.896 252.304,294.311 249.889 C 296.684 247.516,296.710 245.009,294.402 241.039 C 291.580 236.183,291.171 236.592,291.091 244.350 M309.000 239.591 C 309.000 241.016,312.454 245.636,316.675 249.857 C 323.953 257.135,346.253 263.747,350.202 259.798 C 351.191 258.809,350.088 257.992,347.750 257.983 C 335.800 257.936,321.700 251.423,318.542 244.491 C 315.286 237.346,309.000 234.118,309.000 239.591 M211.937 253.405 C 208.877 255.723,206.879 259.136,207.496 260.988 C 208.131 262.892,211.756 261.017,215.832 256.678 C 223.547 248.467,221.133 246.439,211.937 253.405 M299.000 251.000 C 295.888 254.112,296.648 264.000,300.000 264.000 C 301.650 264.000,303.000 260.625,303.000 256.500 C 303.000 248.646,302.307 247.693,299.000 251.000 M122.470 259.589 C 121.936 262.112,115.763 267.589,108.750 271.759 C 96.294 279.165,96.000 279.197,96.000 273.126 C 96.000 269.335,99.801 264.594,105.750 260.967 C 117.426 253.848,123.794 253.323,122.470 259.589 M153.474 267.411 C 147.959 273.698,143.909 280.108,144.474 281.656 C 145.038 283.203,150.579 278.604,156.786 271.434 C 162.993 264.265,167.043 257.855,165.786 257.190 C 164.529 256.525,158.988 261.125,153.474 267.411 M307.643 258.750 C 306.386 261.638,306.386 266.363,307.643 269.250 C 309.820 274.250,309.988 274.250,311.184 269.250 C 311.875 266.363,311.875 261.638,311.184 258.750 C 309.988 253.750,309.820 253.750,307.643 258.750 M248.438 263.049 C 250.603 263.916,253.191 263.809,254.188 262.813 C 255.184 261.816,253.413 261.107,250.250 261.237 C 246.755 261.381,246.044 262.092,248.438 263.049 M318.585 268.500 C 318.646 273.450,319.318 275.112,320.079 272.193 C 320.840 269.274,320.790 265.224,319.968 263.193 C 319.146 261.162,318.524 263.550,318.585 268.500 M216.523 273.943 C 209.757 281.146,208.303 285.000,212.353 285.000 C 213.647 285.000,217.099 280.950,220.023 276.000 C 226.398 265.208,225.323 264.576,216.523 273.943 M252.807 269.079 C 255.726 269.840,259.776 269.790,261.807 268.968 C 263.838 268.146,261.450 267.524,256.500 267.585 C 251.550 267.646,249.888 268.318,252.807 269.079 M123.000 273.144 C 123.000 276.520,107.980 290.748,104.250 290.905 C 99.062 291.124,102.583 281.977,109.905 276.218 C 118.615 269.366,123.000 268.337,123.000 273.144 M154.479 284.250 C 151.381 290.438,148.708 298.403,148.538 301.952 C 148.368 305.500,146.438 310.563,144.247 313.202 C 142.057 315.841,141.443 317.971,142.883 317.936 C 145.698 317.867,162.000 296.011,162.000 292.306 C 162.000 291.076,159.104 292.642,155.565 295.785 C 149.988 300.738,150.188 299.807,157.065 288.810 C 165.595 275.168,166.348 273.000,162.556 273.000 C 161.211 273.000,157.577 278.063,154.479 284.250 M253.500 276.000 L 247.500 278.578 253.500 278.490 C 256.800 278.442,262.875 277.321,267.000 276.000 L 274.500 273.598 267.000 273.510 C 262.875 273.461,256.800 274.582,253.500 276.000 M86.905 285.750 C 86.766 291.196,78.416 301.416,76.044 299.044 C 73.367 296.367,80.020 282.000,83.936 282.000 C 85.621 282.000,86.957 283.688,86.905 285.750 M126.000 286.394 C 126.000 290.930,117.228 297.000,110.674 297.000 C 108.601 297.000,110.073 293.680,114.000 289.500 C 121.981 281.004,126.000 279.964,126.000 286.394 M258.750 284.068 C 261.638 284.823,266.363 284.823,269.250 284.068 C 272.138 283.313,269.775 282.696,264.000 282.696 C 258.225 282.696,255.863 283.313,258.750 284.068 M325.500 285.000 C 323.153 288.797,327.125 288.797,333.000 285.000 C 336.878 282.494,336.799 282.086,332.427 282.046 C 329.637 282.021,326.520 283.350,325.500 285.000 M221.250 288.240 C 218.363 289.922,216.000 293.256,216.000 295.649 C 216.000 302.491,220.700 300.740,224.454 292.500 C 226.334 288.375,227.563 285.041,227.186 285.091 C 226.809 285.141,224.138 286.558,221.250 288.240 M342.000 288.000 C 339.525 289.599,338.850 290.908,340.500 290.908 C 342.150 290.908,345.525 289.599,348.000 288.000 C 350.475 286.401,351.150 285.092,349.500 285.092 C 347.850 285.092,344.475 286.401,342.000 288.000 M357.087 287.883 C 354.660 289.418,353.679 291.679,354.908 292.908 C 356.137 294.137,359.425 292.861,362.214 290.071 C 367.636 284.649,364.391 283.264,357.087 287.883 M273.750 290.407 C 265.065 290.907,258.000 292.762,258.000 294.543 C 258.000 297.593,287.422 295.578,290.696 292.304 C 293.109 289.891,289.577 289.496,273.750 290.407 M367.377 291.200 C 364.148 296.424,367.825 297.530,371.940 292.572 C 374.306 289.721,374.534 288.000,372.544 288.000 C 370.790 288.000,368.464 289.440,367.377 291.200 M85.070 308.330 C 78.660 316.734,76.337 318.227,75.603 314.415 C 74.494 308.656,90.777 288.832,92.463 293.889 C 93.069 295.707,89.742 302.205,85.070 308.330 M126.000 299.679 C 126.000 303.006,116.771 306.771,114.407 304.407 C 113.454 303.454,114.660 301.418,117.087 299.883 C 122.696 296.335,126.000 296.260,126.000 299.679 M189.000 299.798 C 189.000 301.559,190.915 303.000,193.255 303.000 C 195.595 303.000,199.982 303.874,203.005 304.942 C 206.753 306.266,207.546 305.896,205.500 303.779 C 200.862 298.979,189.000 296.117,189.000 299.798 M267.000 302.811 C 267.000 304.369,272.018 304.848,278.250 303.887 C 293.828 301.483,294.305 300.000,279.500 300.000 C 272.625 300.000,267.000 301.265,267.000 302.811 M99.000 304.474 C 99.000 308.151,78.188 332.731,76.874 330.606 C 75.137 327.794,78.094 322.521,87.597 311.482 C 93.997 304.049,99.000 300.974,99.000 304.474 M309.000 309.000 C 309.000 312.521,311.306 312.521,319.500 309.000 C 324.817 306.715,324.561 306.398,317.250 306.211 C 312.713 306.095,309.000 307.350,309.000 309.000 M330.750 309.661 C 327.038 311.452,324.000 314.061,324.000 315.458 C 324.000 319.410,326.903 318.512,335.181 312.000 C 343.445 305.500,341.504 304.475,330.750 309.661 M348.000 310.500 C 343.650 312.987,342.390 314.792,345.000 314.798 C 347.475 314.804,352.121 312.827,355.323 310.405 C 362.733 304.800,357.860 304.864,348.000 310.500 M366.750 309.661 C 363.038 311.452,360.000 314.108,360.000 315.564 C 360.000 318.642,370.788 313.388,373.510 308.984 C 375.701 305.439,375.453 305.464,366.750 309.661 M96.970 326.161 C 84.051 343.456,81.000 346.313,81.000 341.119 C 81.000 337.216,86.500 328.971,98.969 314.180 C 107.260 304.345,105.533 314.699,96.970 326.161 M126.000 315.177 C 126.000 318.574,124.650 320.520,123.000 319.500 C 121.350 318.480,120.000 315.701,120.000 313.323 C 120.000 310.945,121.350 309.000,123.000 309.000 C 124.650 309.000,126.000 311.780,126.000 315.177 M154.174 312.701 C 152.942 314.790,149.993 319.538,147.622 323.250 C 141.434 332.936,147.236 331.271,155.304 321.044 C 159.046 316.301,160.827 311.629,159.261 310.661 C 157.696 309.694,155.406 310.612,154.174 312.701 M190.649 311.759 C 189.788 313.152,194.634 315.700,201.419 317.422 C 214.467 320.734,213.956 318.456,200.357 312.683 C 195.879 310.782,191.510 310.366,190.649 311.759 M285.750 311.068 C 288.638 311.823,293.363 311.823,296.250 311.068 C 299.138 310.313,296.775 309.696,291.000 309.696 C 285.225 309.696,282.863 310.313,285.750 311.068 M237.930 316.294 C 235.967 318.531,235.168 321.168,236.154 322.154 C 238.290 324.290,246.000 318.400,246.000 314.633 C 246.000 310.797,242.040 311.613,237.930 316.294 M375.000 315.505 C 367.854 318.482,367.784 318.747,373.500 321.104 C 381.822 324.536,387.000 324.532,387.000 321.094 C 387.000 319.496,384.638 318.931,381.750 319.839 C 377.267 321.249,377.351 320.796,382.323 316.745 C 388.914 311.375,386.069 310.893,375.000 315.505 M100.235 336.750 C 85.249 357.681,83.986 359.017,84.074 353.850 C 84.173 348.106,104.149 321.000,108.285 321.000 C 110.059 321.000,106.437 328.088,100.235 336.750 M198.000 324.042 C 198.000 326.722,215.596 331.404,217.712 329.288 C 218.418 328.582,214.271 326.555,208.497 324.783 C 202.724 323.011,198.000 322.678,198.000 324.042 M151.577 332.851 C 149.060 337.719,147.110 344.132,147.245 347.101 C 147.403 350.590,148.965 349.131,151.660 342.980 C 153.953 337.743,157.218 332.601,158.915 331.553 C 162.827 329.135,162.938 324.000,159.077 324.000 C 157.469 324.000,154.094 327.983,151.577 332.851 M103.156 351.066 C 96.892 359.280,90.660 366.000,89.307 366.000 C 85.843 366.000,94.227 350.567,104.004 338.948 C 116.716 323.841,115.988 334.239,103.156 351.066 M338.438 332.049 C 340.603 332.916,343.191 332.809,344.188 331.813 C 345.184 330.816,343.413 330.107,340.250 330.237 C 336.755 330.381,336.044 331.092,338.438 332.049 M207.000 338.943 C 207.000 340.624,208.688 342.093,210.750 342.207 C 212.813 342.320,218.550 342.922,223.500 343.544 C 229.286 344.272,230.893 343.807,228.000 342.243 C 219.751 337.783,207.000 335.779,207.000 338.943 M342.000 339.000 C 342.000 342.759,345.184 342.759,351.000 339.000 C 354.639 336.648,354.208 336.083,348.750 336.046 C 345.038 336.021,342.000 337.350,342.000 339.000 M153.140 352.881 C 144.083 373.357,145.779 375.912,156.054 357.271 C 166.078 339.086,166.106 339.000,162.140 339.000 C 160.568 339.000,156.518 345.247,153.140 352.881 M372.474 345.000 C 372.474 349.125,373.155 350.813,373.987 348.750 C 374.819 346.688,374.819 343.313,373.987 341.250 C 373.155 339.188,372.474 340.875,372.474 345.000 M381.000 344.755 C 381.000 346.270,380.143 349.982,379.096 353.005 C 377.424 357.834,377.776 357.773,382.001 352.500 C 387.574 345.546,388.249 342.000,384.000 342.000 C 382.350 342.000,381.000 343.240,381.000 344.755 M111.996 354.046 C 102.639 369.886,93.229 380.113,93.108 374.574 C 92.994 369.392,110.767 345.421,114.920 345.155 C 116.250 345.070,114.935 349.071,111.996 354.046 M350.438 347.049 C 352.603 347.916,355.191 347.809,356.188 346.813 C 357.184 345.816,355.413 345.107,352.250 345.237 C 348.755 345.381,348.044 346.092,350.438 347.049 M403.868 349.623 C 401.202 356.570,403.983 359.704,411.148 357.830 C 414.744 356.890,416.905 354.223,416.361 351.397 C 415.093 344.814,406.198 343.552,403.868 349.623 M388.750 352.929 C 385.892 360.378,389.042 361.395,392.862 354.257 C 394.705 350.813,394.959 348.000,393.427 348.000 C 391.895 348.000,389.791 350.218,388.750 352.929 M219.000 356.666 C 219.000 358.500,222.940 360.000,227.755 360.000 C 232.570 360.000,238.982 360.874,242.005 361.942 C 245.829 363.293,246.588 362.908,244.500 360.675 C 240.026 355.891,219.000 352.585,219.000 356.666 M110.426 376.236 C 104.218 385.818,99.000 389.950,99.000 385.284 C 99.000 384.341,102.696 377.262,107.213 369.554 C 112.691 360.207,115.746 357.206,116.389 360.543 C 116.919 363.295,114.236 370.357,110.426 376.236 M151.964 376.500 C 146.284 393.170,147.921 393.837,155.939 378.120 C 162.757 364.755,163.145 363.000,159.282 363.000 C 157.787 363.000,154.494 369.075,151.964 376.500 M418.500 366.000 C 417.480 367.650,413.081 369.000,408.723 369.000 C 402.847 369.000,401.673 369.873,404.180 372.380 C 408.675 376.875,423.000 373.117,423.000 367.443 C 423.000 362.297,421.154 361.705,418.500 366.000 M117.012 386.983 C 110.554 396.053,105.000 398.743,105.000 392.800 C 105.000 391.040,108.713 384.732,113.250 378.782 C 119.453 370.647,121.740 369.204,122.467 372.964 C 122.998 375.715,120.544 382.023,117.012 386.983 M234.000 371.864 C 234.000 373.589,237.713 375.018,242.250 375.041 C 246.788 375.063,253.875 375.831,258.000 376.747 C 263.439 377.955,264.263 377.637,261.000 375.591 C 253.727 371.030,234.000 368.307,234.000 371.864 M207.000 374.518 C 207.000 376.960,220.130 384.068,224.391 383.933 C 227.130 383.847,212.211 372.154,209.250 372.067 C 208.013 372.030,207.000 373.133,207.000 374.518 M158.104 388.500 C 152.060 401.175,155.628 402.518,162.853 390.287 C 168.587 380.580,169.155 378.000,165.556 378.000 C 164.211 378.000,160.858 382.725,158.104 388.500 M129.000 387.287 C 129.000 393.820,116.344 408.544,113.324 405.524 C 111.407 403.607,112.774 399.358,117.257 393.293 C 124.266 383.813,129.000 381.392,129.000 387.287 M201.000 386.894 C 201.000 390.292,210.871 396.029,216.553 395.933 C 218.724 395.897,217.125 393.227,213.000 390.000 C 204.677 383.489,201.000 382.538,201.000 386.894 M241.500 386.228 C 243.150 387.875,251.250 390.042,259.500 391.044 C 269.499 392.259,272.903 391.925,269.712 390.043 C 262.654 385.880,237.783 382.517,241.500 386.228 M164.926 397.695 C 159.814 411.140,161.911 416.123,168.000 405.000 C 174.636 392.879,175.198 390.000,170.926 390.000 C 169.235 390.000,166.535 393.463,164.926 397.695 M131.905 399.750 C 131.769 405.098,123.436 415.436,121.125 413.125 C 120.059 412.059,121.426 407.770,124.163 403.594 C 129.645 395.227,132.050 394.033,131.905 399.750 M258.000 398.335 C 258.000 400.032,264.751 401.889,273.002 402.460 C 281.253 403.032,288.003 402.488,288.002 401.250 C 288.001 400.013,285.469 399.000,282.375 399.000 C 279.281 399.000,272.531 398.156,267.375 397.125 C 261.737 395.997,258.000 396.480,258.000 398.335 M171.482 409.641 C 165.642 422.457,167.708 428.493,174.000 417.000 C 180.420 405.273,181.180 402.000,177.482 402.000 C 176.096 402.000,173.396 405.439,171.482 409.641 M201.000 405.000 C 201.000 406.650,206.738 407.905,213.750 407.789 C 223.625 407.626,225.147 406.997,220.500 405.000 C 212.134 401.405,201.000 401.405,201.000 405.000 M138.000 412.133 C 138.000 416.877,129.671 424.671,127.220 422.220 C 125.226 420.226,132.536 408.000,135.722 408.000 C 136.975 408.000,138.000 409.860,138.000 412.133 M264.000 410.965 C 264.000 412.634,270.300 414.000,278.000 414.000 C 294.660 414.000,294.223 412.558,276.750 409.882 C 268.864 408.674,264.000 409.087,264.000 410.965 M108.753 423.447 C 106.156 426.044,105.425 425.312,105.788 420.483 C 106.107 416.260,107.283 415.083,109.236 417.036 C 111.188 418.988,111.023 421.177,108.753 423.447 M204.000 416.650 C 204.000 419.686,214.649 423.007,223.500 422.731 C 227.505 422.606,226.009 421.199,219.000 418.500 C 206.106 413.534,204.000 413.275,204.000 416.650 M270.000 424.816 C 270.000 427.725,273.808 429.000,282.500 429.000 C 296.924 429.000,296.195 426.540,280.738 423.054 C 272.396 421.172,270.000 421.565,270.000 424.816 M141.914 429.171 C 142.941 433.097,142.249 434.917,140.014 434.173 C 135.699 432.736,133.447 423.000,137.430 423.000 C 139.009 423.000,141.026 425.777,141.914 429.171 M121.185 432.794 C 123.587 436.602,122.659 439.476,117.127 445.365 C 108.282 454.780,101.602 455.613,110.031 446.250 C 119.747 435.457,121.709 429.824,112.984 437.773 C 105.490 444.599,105.000 444.682,105.000 439.123 C 105.000 432.422,110.810 425.437,115.173 426.891 C 116.767 427.422,119.473 430.079,121.185 432.794 M207.000 435.000 C 207.000 436.650,210.038 438.018,213.750 438.041 C 217.463 438.063,223.875 438.813,228.000 439.706 C 233.454 440.886,232.746 440.057,225.406 436.665 C 213.797 431.300,207.000 430.686,207.000 435.000 M276.000 434.650 C 276.000 438.018,286.856 440.965,298.500 440.758 C 306.533 440.616,306.049 440.141,294.000 436.345 C 278.076 431.327,276.000 431.132,276.000 434.650 M120.457 456.928 C 115.361 462.023,110.229 465.229,109.051 464.051 C 107.874 462.874,111.524 457.150,117.164 451.331 C 122.856 445.458,127.930 442.289,128.569 444.208 C 129.203 446.108,125.552 451.832,120.457 456.928 M211.323 447.287 C 209.109 450.869,216.759 453.745,225.154 452.487 C 230.978 451.615,230.656 451.095,222.385 448.015 C 216.863 445.960,212.328 445.661,211.323 447.287 M282.000 450.000 C 282.000 451.650,284.590 453.000,287.755 453.000 C 290.920 453.000,295.982 453.785,299.005 454.745 C 304.033 456.342,304.005 456.087,298.677 451.745 C 292.172 446.445,282.000 445.381,282.000 450.000 M132.284 461.432 C 130.781 464.219,126.052 469.773,121.775 473.773 C 114.774 480.322,114.000 480.487,114.000 475.437 C 114.000 468.911,128.708 452.466,132.467 454.789 C 133.869 455.655,133.787 458.645,132.284 461.432 M167.759 456.282 C 172.565 458.203,176.061 458.139,178.109 456.091 C 180.230 453.970,177.954 453.060,170.850 453.190 C 161.125 453.369,160.938 453.555,167.759 456.282 M160.500 465.000 C 161.520 466.650,165.729 468.000,169.854 468.000 C 174.090 468.000,176.547 466.694,175.500 465.000 C 174.480 463.350,170.271 462.000,166.146 462.000 C 161.910 462.000,159.453 463.306,160.500 465.000 M210.000 465.000 C 210.000 466.650,211.856 468.000,214.125 468.000 C 216.394 468.000,222.806 468.692,228.375 469.538 L 238.500 471.077 228.000 466.767 C 215.257 461.536,210.000 461.020,210.000 465.000 M285.000 465.000 C 285.000 466.650,290.738 467.865,297.750 467.701 C 308.581 467.447,309.371 467.040,303.000 465.000 C 292.204 461.542,285.000 461.542,285.000 465.000 M138.000 473.535 C 138.000 481.698,126.820 491.020,122.369 486.569 C 119.716 483.916,120.578 481.271,125.963 475.540 C 134.373 466.587,138.000 465.983,138.000 473.535 M157.454 474.074 C 154.961 478.108,161.508 480.574,166.818 477.602 C 171.057 475.230,170.867 474.665,165.345 473.221 C 161.859 472.309,158.308 472.693,157.454 474.074 M214.507 476.989 C 213.483 478.645,215.257 480.000,218.448 480.000 C 221.639 480.000,228.806 480.711,234.375 481.580 C 241.774 482.735,242.884 482.451,238.500 480.526 C 227.223 475.576,216.369 473.976,214.507 476.989 M288.000 476.762 C 288.000 478.543,289.688 480.015,291.750 480.033 C 293.813 480.051,300.900 480.761,307.500 481.610 C 316.043 482.710,317.772 482.381,313.500 480.467 C 302.266 475.433,288.000 473.361,288.000 476.762 M141.000 488.633 C 141.000 492.469,132.179 499.179,130.000 497.000 C 127.821 494.821,134.531 486.000,138.367 486.000 C 139.815 486.000,141.000 487.185,141.000 488.633 M156.000 489.000 C 156.000 490.650,161.063 491.905,167.250 491.789 C 176.275 491.620,177.313 491.068,172.500 489.000 C 164.163 485.418,156.000 485.418,156.000 489.000 M217.376 489.200 C 215.442 492.330,218.367 493.585,233.906 496.297 C 246.138 498.431,243.025 494.328,228.816 489.589 C 222.806 487.584,218.466 487.436,217.376 489.200 M297.000 491.593 C 297.000 494.619,307.336 497.945,316.500 497.868 C 321.310 497.828,321.607 497.321,318.000 495.314 C 310.434 491.104,297.000 488.724,297.000 491.593 M370.517 507.027 C 372.931 510.934,369.444 522.000,365.798 522.000 C 364.259 522.000,363.000 517.950,363.000 513.000 C 363.000 504.146,366.847 501.089,370.517 507.027 M349.638 520.402 C 350.260 526.069,349.076 528.000,344.981 528.000 C 341.961 528.000,337.355 528.819,334.745 529.821 C 331.046 531.241,330.000 529.588,330.000 522.321 C 330.000 511.314,338.854 508.849,339.237 519.750 C 339.463 526.181,339.905 525.559,343.808 513.321 C 345.637 507.585,348.630 511.220,349.638 520.402 M360.000 517.500 C 360.000 521.625,358.650 525.000,357.000 525.000 C 355.350 525.000,354.000 521.625,354.000 517.500 C 354.000 513.375,355.350 510.000,357.000 510.000 C 358.650 510.000,360.000 513.375,360.000 517.500 M159.000 525.177 C 159.000 530.030,157.650 534.000,156.000 534.000 C 154.350 534.000,153.000 529.195,153.000 523.323 C 153.000 516.969,154.215 513.397,156.000 514.500 C 157.650 515.520,159.000 520.324,159.000 525.177 M150.000 522.600 C 150.000 527.446,149.113 528.313,146.661 525.861 C 144.825 524.025,144.230 521.055,145.338 519.261 C 148.442 514.240,150.000 515.356,150.000 522.600 M168.000 524.823 C 168.000 529.676,166.650 534.480,165.000 535.500 C 163.215 536.603,162.000 533.031,162.000 526.677 C 162.000 520.805,163.350 516.000,165.000 516.000 C 166.650 516.000,168.000 519.970,168.000 524.823 M177.591 526.682 C 178.802 537.062,176.823 541.823,172.918 537.918 C 169.984 534.984,170.637 516.000,173.672 516.000 C 175.141 516.000,176.905 520.807,177.591 526.682 M315.000 525.000 C 315.000 531.000,313.500 534.000,310.500 534.000 C 301.894 534.000,305.029 519.149,314.250 516.237 C 314.663 516.107,315.000 520.050,315.000 525.000 M327.000 518.755 C 327.000 523.946,323.359 531.000,320.679 531.000 C 319.206 531.000,318.000 527.625,318.000 523.500 C 318.000 518.833,319.700 516.000,322.500 516.000 C 324.975 516.000,327.000 517.240,327.000 518.755 M185.122 534.715 C 184.404 538.447,183.790 536.100,183.757 529.500 C 183.723 522.900,184.310 519.847,185.061 522.715 C 185.812 525.583,185.839 530.983,185.122 534.715 M198.000 529.500 C 198.000 535.275,196.807 540.000,195.350 540.000 C 191.889 540.000,188.955 528.608,191.026 523.211 C 194.035 515.368,198.000 518.944,198.000 529.500 M210.000 531.177 C 210.000 537.020,208.480 540.000,205.500 540.000 C 200.963 540.000,198.926 525.074,202.918 521.082 C 206.549 517.451,210.000 522.371,210.000 531.177 M219.000 529.500 C 219.000 535.275,217.650 540.000,216.000 540.000 C 214.350 540.000,213.000 535.275,213.000 529.500 C 213.000 523.725,214.350 519.000,216.000 519.000 C 217.650 519.000,219.000 523.725,219.000 529.500 M228.000 528.000 C 228.000 532.950,226.650 537.000,225.000 537.000 C 221.663 537.000,220.859 524.141,224.000 521.000 C 227.389 517.611,228.000 518.679,228.000 528.000 M281.449 527.019 C 280.067 538.698,273.000 539.728,273.000 528.250 C 273.000 521.853,274.450 519.000,277.699 519.000 C 281.030 519.000,282.122 521.336,281.449 527.019 M291.000 528.000 C 291.000 532.950,289.650 537.000,288.000 537.000 C 284.663 537.000,283.859 524.141,287.000 521.000 C 290.389 517.611,291.000 518.679,291.000 528.000 M303.000 526.500 C 303.000 531.167,301.300 534.000,298.500 534.000 C 294.000 534.000,292.226 524.774,296.000 521.000 C 300.079 516.921,303.000 519.216,303.000 526.500 M238.031 528.619 C 240.016 536.211,238.787 538.458,234.200 535.623 C 230.349 533.244,229.896 522.000,233.650 522.000 C 235.108 522.000,237.079 524.979,238.031 528.619 M248.312 529.500 C 248.653 533.625,247.598 537.000,245.966 537.000 C 244.335 537.000,243.000 533.625,243.000 529.500 C 243.000 525.375,244.056 522.000,245.346 522.000 C 246.636 522.000,247.971 525.375,248.312 529.500 M258.000 529.500 C 258.000 533.625,256.650 537.000,255.000 537.000 C 253.350 537.000,252.000 533.625,252.000 529.500 C 252.000 525.375,253.350 522.000,255.000 522.000 C 256.650 522.000,258.000 525.375,258.000 529.500 M269.954 525.750 C 269.893 530.769,264.722 538.722,262.782 536.782 C 260.458 534.458,264.307 522.000,267.350 522.000 C 268.807 522.000,269.979 523.688,269.954 525.750 M350.852 543.324 C 346.809 544.548,334.388 546.434,323.250 547.514 C 312.113 548.594,303.000 550.878,303.000 552.589 C 303.000 554.395,305.831 554.879,309.750 553.743 C 322.502 550.045,360.000 548.039,360.000 551.054 C 360.000 552.659,352.238 554.255,342.750 554.600 C 323.420 555.303,315.000 557.210,315.000 560.886 C 315.000 562.251,320.063 562.193,326.250 560.756 C 344.427 556.535,360.000 557.313,360.000 562.443 C 360.000 567.673,355.799 568.759,318.000 573.306 C 255.615 580.810,162.577 579.307,159.742 570.750 C 158.828 567.990,164.707 566.867,182.000 566.496 C 194.925 566.218,200.100 565.535,193.500 564.976 C 172.277 563.181,162.000 560.802,162.000 557.687 C 162.000 556.014,163.287 555.442,164.861 556.414 C 170.196 559.711,210.000 561.100,210.000 557.989 C 210.000 556.345,202.238 554.905,192.750 554.789 C 183.263 554.673,172.800 553.328,169.500 551.799 C 165.136 549.778,166.771 549.462,175.500 550.640 C 191.082 552.743,297.517 546.588,328.500 541.792 C 352.209 538.122,365.113 539.007,350.852 543.324 M360.000 585.321 C 360.000 586.794,354.938 588.220,348.750 588.489 C 339.417 588.895,340.311 589.322,354.000 591.000 C 369.896 592.948,370.033 593.040,357.750 593.511 C 350.738 593.780,345.000 595.433,345.000 597.184 C 345.000 599.243,349.629 599.673,358.105 598.402 C 367.974 596.923,373.715 597.803,381.355 601.969 L 391.500 607.500 363.750 608.363 C 347.190 608.877,336.000 610.477,336.000 612.328 C 336.000 614.339,341.801 614.707,352.482 613.372 C 370.786 611.085,396.000 613.846,396.000 618.138 C 396.000 619.696,388.455 620.206,378.750 619.303 C 369.263 618.420,357.450 619.109,352.500 620.834 C 344.278 623.698,344.732 623.873,357.750 622.853 C 365.588 622.239,372.000 622.921,372.000 624.369 C 372.000 625.816,370.988 626.840,369.750 626.645 C 362.065 625.431,350.921 627.445,352.367 629.786 C 353.314 631.318,351.031 633.159,347.294 633.877 C 343.558 634.595,353.663 635.367,369.750 635.591 C 388.875 635.859,399.000 637.149,399.000 639.318 C 399.000 641.652,391.094 642.011,372.356 640.528 C 356.395 639.265,345.009 639.558,343.958 641.258 C 342.915 642.947,352.712 644.294,368.135 644.581 C 402.067 645.215,404.546 648.000,371.177 648.000 C 356.974 648.000,344.599 649.222,343.675 650.716 C 342.696 652.301,351.820 652.760,365.574 651.817 C 381.512 650.724,389.833 651.302,391.253 653.600 C 392.756 656.032,386.043 657.000,367.677 657.000 C 344.000 657.000,342.000 657.467,342.000 663.000 C 342.000 667.887,344.086 669.048,353.250 669.258 C 364.204 669.509,364.276 669.583,355.996 672.066 C 351.319 673.469,345.582 673.884,343.246 672.987 C 340.789 672.045,339.000 673.189,339.000 675.704 C 339.000 678.396,332.350 682.063,321.533 685.339 C 307.393 689.620,300.964 690.064,287.783 687.670 L 271.500 684.713 291.000 684.310 C 301.725 684.089,312.046 682.916,313.936 681.704 C 315.826 680.492,285.451 679.420,246.436 679.321 C 176.364 679.145,153.000 677.316,153.000 672.005 C 153.000 670.508,160.088 669.852,168.750 670.549 C 183.853 671.763,184.007 671.703,172.500 669.080 C 165.900 667.576,156.033 666.268,150.573 666.173 C 144.172 666.061,141.368 664.832,142.678 662.713 C 144.562 659.663,161.577 660.661,178.500 664.814 C 183.669 666.083,183.815 665.854,179.551 663.163 C 176.829 661.445,165.354 658.851,154.051 657.399 L 133.500 654.759 150.000 653.979 L 166.500 653.198 152.376 651.225 C 130.583 648.181,131.065 643.977,152.988 645.876 C 165.392 646.951,170.705 646.573,167.603 644.837 C 164.922 643.337,156.497 641.748,148.879 641.305 C 129.230 640.163,131.652 636.075,152.250 635.615 L 169.500 635.231 151.500 631.442 L 133.500 627.654 148.500 626.876 L 163.500 626.099 150.000 624.122 C 135.039 621.930,138.313 618.869,157.500 617.109 C 169.239 616.033,169.173 615.986,154.500 614.975 C 139.798 613.961,139.917 613.902,160.500 612.000 L 181.500 610.060 162.750 609.530 C 151.000 609.198,144.000 607.720,144.000 605.573 C 144.000 602.243,149.011 602.424,192.560 607.324 C 200.714 608.242,198.288 607.209,186.000 604.530 C 175.275 602.193,161.775 599.974,156.000 599.600 C 150.225 599.225,155.625 598.055,168.000 597.000 C 190.100 595.115,190.197 595.071,173.427 594.540 C 164.037 594.243,155.684 592.916,154.865 591.590 C 152.595 587.918,220.303 589.734,226.807 593.520 C 231.370 596.176,229.969 596.500,219.750 595.150 C 212.171 594.150,207.000 594.676,207.000 596.449 C 207.000 598.089,216.788 600.728,228.750 602.313 C 248.333 604.908,249.081 605.236,236.250 605.598 C 228.413 605.819,222.021 607.013,222.046 608.250 C 222.180 614.839,229.483 616.545,259.500 616.998 C 277.650 617.272,288.450 616.925,283.500 616.227 C 268.512 614.115,252.000 608.910,252.000 606.298 C 252.000 604.944,267.574 603.150,286.609 602.310 C 305.644 601.470,321.979 600.021,322.909 599.091 C 323.840 598.160,323.622 595.815,322.425 593.879 C 320.793 591.238,319.657 591.320,317.874 594.204 C 314.684 599.366,264.912 602.112,260.187 597.387 C 258.324 595.524,251.333 593.791,244.650 593.536 C 237.968 593.280,243.975 592.174,258.000 591.078 C 272.025 589.981,283.950 590.190,284.500 591.542 C 285.944 595.092,315.000 594.576,315.000 591.000 C 315.000 589.350,311.288 587.805,306.750 587.566 C 302.213 587.327,310.650 585.572,325.500 583.667 C 352.883 580.153,360.000 580.494,360.000 585.321 M267.807 596.079 C 270.726 596.840,274.776 596.790,276.807 595.968 C 278.838 595.146,276.450 594.524,271.500 594.585 C 266.550 594.646,264.888 595.318,267.807 596.079 M257.188 598.813 C 256.191 599.809,253.603 599.916,251.438 599.049 C 249.044 598.092,249.755 597.381,253.250 597.237 C 256.413 597.107,258.184 597.816,257.188 598.813 M326.438 605.049 C 328.603 605.916,331.191 605.809,332.188 604.813 C 333.184 603.816,331.413 603.107,328.250 603.237 C 324.755 603.381,324.044 604.092,326.438 605.049 M350.250 605.170 C 355.613 605.836,364.388 605.836,369.750 605.170 C 375.113 604.505,370.725 603.960,360.000 603.960 C 349.275 603.960,344.888 604.505,350.250 605.170 M279.000 608.910 C 274.875 610.181,282.300 610.537,295.500 609.701 C 308.700 608.865,320.063 607.690,320.750 607.090 C 323.133 605.011,286.464 606.609,279.000 608.910 M245.285 611.061 C 242.417 611.812,237.017 611.839,233.285 611.122 C 229.553 610.404,231.900 609.790,238.500 609.757 C 245.100 609.723,248.153 610.310,245.285 611.061 M305.438 614.049 C 307.603 614.916,310.191 614.809,311.188 613.813 C 312.184 612.816,310.413 612.107,307.250 612.237 C 303.755 612.381,303.044 613.092,305.438 614.049 M198.000 617.960 C 198.000 620.034,205.055 624.000,208.745 624.000 C 212.839 624.000,208.996 618.437,204.000 617.131 C 200.700 616.268,198.000 616.641,198.000 617.960 M176.438 620.049 C 178.603 620.916,181.191 620.809,182.188 619.813 C 183.184 618.816,181.413 618.107,178.250 618.237 C 174.755 618.381,174.044 619.092,176.438 620.049 M223.500 624.000 C 222.453 625.694,224.910 627.000,229.146 627.000 C 233.271 627.000,237.480 625.650,238.500 624.000 C 239.547 622.306,237.090 621.000,232.854 621.000 C 228.729 621.000,224.520 622.350,223.500 624.000 M244.103 624.643 C 243.301 625.939,246.101 627.000,250.323 627.000 C 254.545 627.000,258.000 625.939,258.000 624.643 C 258.000 623.346,255.201 622.286,251.780 622.286 C 248.359 622.286,244.904 623.346,244.103 624.643 M393.750 626.117 C 390.038 626.832,383.963 626.832,380.250 626.117 C 376.538 625.402,379.575 624.817,387.000 624.817 C 394.425 624.817,397.463 625.402,393.750 626.117 M195.000 630.000 C 195.000 631.650,197.700 633.000,201.000 633.000 C 204.300 633.000,207.000 631.650,207.000 630.000 C 207.000 628.350,204.300 627.000,201.000 627.000 C 197.700 627.000,195.000 628.350,195.000 630.000 M217.251 633.402 C 216.368 634.831,219.776 636.000,224.823 636.000 C 229.870 636.000,234.000 635.482,234.000 634.850 C 234.000 632.304,218.745 630.986,217.251 633.402 M241.326 633.282 C 240.402 634.777,243.101 636.000,247.323 636.000 C 256.515 636.000,257.258 634.290,249.003 632.132 C 245.705 631.269,242.250 631.787,241.326 633.282 M389.250 632.185 C 383.063 632.833,372.938 632.833,366.750 632.185 C 360.563 631.538,365.625 631.009,378.000 631.009 C 390.375 631.009,395.438 631.538,389.250 632.185 M189.000 636.416 C 189.000 637.837,192.375 639.000,196.500 639.000 C 200.625 639.000,204.000 638.482,204.000 637.850 C 204.000 637.217,200.625 636.054,196.500 635.266 C 192.375 634.477,189.000 634.995,189.000 636.416 M213.000 642.000 C 213.000 643.650,216.713 644.905,221.250 644.789 C 228.561 644.602,228.817 644.285,223.500 642.000 C 215.306 638.479,213.000 638.479,213.000 642.000 M237.000 642.285 C 237.000 643.778,243.300 645.000,251.000 645.000 C 258.700 645.000,264.438 644.511,263.750 643.913 C 260.728 641.284,237.000 639.840,237.000 642.285 M184.251 645.402 C 183.368 646.831,186.776 648.000,191.823 648.000 C 196.870 648.000,201.000 647.482,201.000 646.850 C 201.000 644.304,185.745 642.986,184.251 645.402 M207.000 650.943 C 207.000 652.624,211.275 654.000,216.500 654.000 C 227.424 654.000,227.028 652.690,215.250 649.865 C 210.352 648.690,207.000 649.128,207.000 650.943 M234.000 651.075 C 234.000 652.684,238.950 654.000,245.000 654.000 C 257.857 654.000,257.422 652.608,243.750 650.006 C 238.148 648.940,234.000 649.394,234.000 651.075 M183.000 654.281 C 183.000 655.776,185.700 657.000,189.000 657.000 C 192.300 657.000,195.000 656.482,195.000 655.850 C 195.000 655.217,192.300 653.994,189.000 653.131 C 185.700 652.268,183.000 652.785,183.000 654.281 M207.000 660.000 C 207.000 661.650,210.713 662.979,215.250 662.954 C 221.679 662.918,222.507 662.266,219.000 660.000 C 213.130 656.207,207.000 656.207,207.000 660.000 M231.000 659.943 C 231.000 661.624,235.275 663.000,240.500 663.000 C 251.424 663.000,251.028 661.690,239.250 658.865 C 234.352 657.690,231.000 658.128,231.000 659.943 M189.000 663.094 C 189.000 664.692,191.025 666.000,193.500 666.000 C 195.975 666.000,198.000 665.469,198.000 664.821 C 198.000 664.172,195.975 662.865,193.500 661.915 C 191.025 660.965,189.000 661.496,189.000 663.094 M379.500 663.000 C 378.480 664.650,370.301 666.000,361.323 666.000 C 352.345 666.000,345.000 664.650,345.000 663.000 C 345.000 661.330,353.059 660.000,363.177 660.000 C 374.531 660.000,380.658 661.126,379.500 663.000 M321.000 667.714 C 321.000 668.657,323.025 671.454,325.500 673.929 C 330.384 678.813,330.996 678.086,328.179 670.745 C 326.468 666.285,321.000 663.977,321.000 667.714 M400.509 684.077 C 402.582 701.936,399.061 713.246,392.660 709.290 C 389.588 707.391,389.006 670.994,392.000 668.000 C 396.619 663.381,398.525 666.982,400.509 684.077 M201.000 671.906 C 201.000 673.504,203.025 674.035,205.500 673.085 C 207.975 672.135,210.000 670.828,210.000 670.179 C 210.000 669.531,207.975 669.000,205.500 669.000 C 203.025 669.000,201.000 670.308,201.000 671.906 M216.000 671.984 C 216.000 673.771,226.229 674.748,241.513 674.419 C 255.545 674.117,265.333 672.795,263.263 671.481 C 257.760 667.987,216.000 668.431,216.000 671.984 M410.400 672.600 C 414.644 676.844,415.064 689.673,411.160 695.844 C 408.344 700.295,408.426 700.502,403.443 676.500 C 401.766 668.422,404.621 666.821,410.400 672.600 M275.438 674.049 C 277.603 674.916,280.191 674.809,281.188 673.813 C 282.184 672.816,280.413 672.107,277.250 672.237 C 273.755 672.381,273.044 673.092,275.438 674.049 M294.807 674.079 C 297.726 674.840,301.776 674.790,303.807 673.968 C 305.838 673.146,303.450 672.524,298.500 672.585 C 293.550 672.646,291.888 673.318,294.807 674.079 M385.179 679.745 C 387.973 687.026,387.340 717.000,384.393 717.000 C 381.489 717.000,378.084 699.733,378.033 684.750 C 377.998 674.514,382.076 671.659,385.179 679.745 M146.869 716.715 C 146.968 719.905,145.541 719.610,141.000 715.500 C 134.825 709.912,132.868 693.020,137.118 681.995 C 138.618 678.106,140.333 681.760,142.988 694.500 C 145.050 704.400,146.797 714.397,146.869 716.715 M375.483 700.244 C 376.759 722.507,370.647 726.846,368.115 705.474 C 366.232 689.572,368.363 676.091,372.135 680.052 C 373.417 681.398,374.923 690.485,375.483 700.244 M155.598 704.803 C 157.411 715.419,158.221 724.779,157.397 725.603 C 153.720 729.280,150.364 719.888,148.426 700.500 C 145.796 674.169,150.887 677.224,155.598 704.803 M195.000 683.830 C 195.000 685.386,202.009 686.500,210.575 686.305 C 220.124 686.088,226.605 687.314,227.325 689.475 C 227.971 691.414,232.775 692.914,238.000 692.810 C 246.697 692.636,246.929 692.390,240.750 689.907 C 229.883 685.538,232.838 683.976,251.250 684.355 C 265.447 684.647,266.907 685.115,259.500 687.000 C 252.260 688.842,254.314 689.429,270.000 690.000 C 285.686 690.571,287.740 691.158,280.500 693.000 C 264.806 696.994,228.556 696.166,204.624 691.267 C 179.348 686.094,169.811 681.000,185.400 681.000 C 190.680 681.000,195.000 682.273,195.000 683.830 M363.000 703.500 C 363.000 714.500,361.692 723.000,360.000 723.000 C 358.308 723.000,357.000 714.500,357.000 703.500 C 357.000 692.500,358.308 684.000,360.000 684.000 C 361.692 684.000,363.000 692.500,363.000 703.500 M166.132 710.869 C 167.342 723.163,166.992 729.190,165.175 727.369 C 161.845 724.032,156.156 690.844,158.510 688.490 C 161.878 685.122,164.299 692.233,166.132 710.869 M352.364 703.448 C 354.413 719.847,353.174 726.000,347.823 726.000 C 346.270 726.000,345.000 717.225,345.000 706.500 C 345.000 682.744,349.542 680.861,352.364 703.448 M176.071 711.000 C 178.702 727.338,177.007 735.162,173.062 724.884 C 169.439 715.442,167.457 693.000,170.246 693.000 C 171.855 693.000,174.477 701.100,176.071 711.000 M329.954 711.750 C 329.922 724.963,329.049 729.171,327.000 726.000 C 321.967 718.212,323.495 693.000,329.000 693.000 C 329.550 693.000,329.979 701.438,329.954 711.750 M340.197 710.250 C 342.453 727.930,337.833 732.212,334.673 715.369 C 332.967 706.272,334.901 690.587,337.368 693.524 C 337.818 694.061,339.092 701.588,340.197 710.250 M321.000 714.000 C 321.000 724.000,319.667 732.000,318.000 732.000 C 316.333 732.000,315.000 724.000,315.000 714.000 C 315.000 704.000,316.333 696.000,318.000 696.000 C 319.667 696.000,321.000 704.000,321.000 714.000 M186.643 714.750 C 187.906 731.034,187.378 734.378,184.066 731.066 C 180.591 727.591,179.042 699.000,182.329 699.000 C 184.029 699.000,185.971 706.088,186.643 714.750 M195.041 708.750 C 195.063 714.113,195.922 721.875,196.949 726.000 C 198.420 731.907,198.020 732.759,195.069 730.011 C 190.022 725.312,187.087 699.000,191.610 699.000 C 193.474 699.000,195.018 703.388,195.041 708.750 M310.039 708.204 C 309.554 727.402,308.774 732.000,306.000 732.000 C 304.350 732.000,303.000 724.463,303.000 715.250 C 303.000 703.526,304.084 698.861,306.611 699.704 C 308.598 700.366,310.140 704.191,310.039 708.204 M208.152 719.250 C 209.691 729.474,209.172 732.000,205.535 732.000 C 202.070 732.000,201.000 728.321,201.000 716.400 C 201.000 698.414,205.272 700.116,208.152 719.250 M297.000 718.500 C 297.000 727.575,295.650 735.000,294.000 735.000 C 290.695 735.000,289.798 707.202,293.000 704.000 C 296.608 700.392,297.000 701.815,297.000 718.500 M216.490 718.760 C 217.092 726.328,216.553 733.158,215.292 733.937 C 214.032 734.717,213.000 732.743,213.000 729.552 C 213.000 726.361,212.156 719.531,211.125 714.375 C 210.001 708.756,210.481 705.000,212.323 705.000 C 214.013 705.000,215.888 711.192,216.490 718.760 M224.690 720.750 L 224.380 736.500 221.383 725.213 C 219.735 719.005,219.157 711.918,220.099 709.463 C 223.349 700.994,224.999 705.050,224.690 720.750 M288.000 721.720 C 288.000 736.024,287.241 738.296,282.750 737.442 C 278.692 736.670,277.294 732.873,276.593 720.722 C 275.777 706.572,276.302 705.000,281.843 705.000 C 287.316 705.000,288.000 706.858,288.000 721.720 M234.000 723.177 C 234.000 732.531,232.849 737.643,231.000 736.500 C 229.350 735.480,228.000 728.651,228.000 721.323 C 228.000 713.995,229.350 708.000,231.000 708.000 C 232.650 708.000,234.000 714.830,234.000 723.177 M245.789 728.250 C 245.905 733.613,244.650 738.000,243.000 738.000 C 241.350 738.000,240.095 730.913,240.211 722.250 C 240.366 710.683,241.106 708.093,243.000 712.500 C 244.418 715.800,245.673 722.888,245.789 728.250 M254.996 724.471 C 256.564 734.807,256.099 738.000,253.024 738.000 C 250.178 738.000,249.000 733.464,249.000 722.500 C 249.000 704.264,252.083 705.277,254.996 724.471 M264.490 721.760 C 265.545 735.017,263.951 739.951,259.918 735.918 C 256.955 732.955,257.652 708.000,260.698 708.000 C 262.182 708.000,263.888 714.192,264.490 721.760 M272.574 723.750 C 272.153 739.349,272.130 739.385,270.208 727.500 C 269.141 720.900,268.802 713.813,269.455 711.750 C 271.870 704.121,272.989 708.424,272.574 723.750 " stroke="none" fill="black" fill-rule="evenodd"/></svg>