<?xml version="1.0" standalone="no"?>
<!DOCTYPE svg PUBLIC "-//W3C//DTD SVG 20010904//EN"
 "http://www.w3.org/TR/2001/REC-SVG-20010904/DTD/svg10.dtd">
<svg version="1.0" xmlns="http://www.w3.org/2000/svg"
 width="1280.000000pt" height="1203.000000pt" viewBox="0 0 1280.000000 1203.000000"
 preserveAspectRatio="xMidYMid meet">
<g transform="translate(0.000000,1203.000000) scale(0.100000,-0.100000)"
fill="#000000" stroke="none">
<path d="M6315 12020 c-16 -4 -65 -15 -107 -24 -92 -21 -229 -85 -314 -149
-231 -171 -354 -411 -354 -691 0 -305 136 -552 403 -731 57 -39 87 -65 87 -77
0 -11 -45 -276 -99 -591 -55 -315 -125 -718 -156 -897 -177 -1027 -444 -2521
-470 -2632 -23 -101 -26 -99 -95 92 -154 426 -1240 3563 -1240 3582 0 5 46 55
103 111 158 158 250 334 268 511 10 109 3 251 -18 326 -22 81 -108 243 -173
324 -127 160 -336 282 -540 315 -268 44 -536 -52 -745 -265 -96 -97 -162 -205
-207 -334 -31 -90 -32 -102 -33 -245 0 -169 11 -221 75 -362 48 -104 87 -161
169 -247 70 -72 152 -135 239 -182 82 -43 92 -61 92 -163 0 -47 -7 -201 -15
-341 -8 -140 -33 -579 -55 -975 -22 -396 -44 -794 -50 -885 -5 -91 -28 -484
-50 -875 -47 -832 -42 -768 -56 -772 -10 -3 -272 527 -864 1752 -392 809 -620
1304 -620 1344 0 11 29 63 64 115 198 290 244 558 145 830 -103 282 -292 463
-565 538 -67 18 -105 22 -254 22 -149 0 -187 -4 -254 -22 -321 -88 -528 -324
-605 -687 -26 -123 -26 -147 0 -270 36 -171 92 -293 186 -410 99 -122 211
-191 433 -269 121 -42 125 -45 133 -77 4 -19 73 -556 152 -1194 216 -1729 283
-2250 366 -2835 43 -308 53 -360 73 -390 13 -19 232 -289 486 -600 254 -311
468 -578 476 -593 9 -16 116 -260 240 -543 l224 -515 -166 -382 c-180 -412
-313 -742 -321 -793 -10 -63 5 -104 60 -159 92 -92 385 -247 677 -358 462
-176 921 -274 1540 -329 315 -28 3449 -10 3870 22 515 40 1202 230 1661 460
309 156 405 246 386 364 -8 51 -141 381 -321 793 l-166 382 224 515 c124 283
231 527 240 543 8 15 222 282 476 593 254 311 473 581 486 600 20 30 30 82 73
390 83 585 150 1106 366 2835 79 638 148 1175 152 1194 8 32 12 35 133 77 222
78 334 147 433 269 94 117 150 239 186 410 26 123 26 147 0 270 -77 363 -284
599 -605 687 -67 18 -105 22 -254 22 -149 0 -187 -4 -254 -22 -273 -75 -462
-256 -565 -538 -99 -272 -53 -540 145 -830 35 -52 64 -104 64 -115 0 -40 -228
-535 -620 -1344 -592 -1225 -854 -1755 -864 -1752 -14 4 -9 -60 -56 772 -22
391 -45 784 -50 875 -6 91 -28 489 -50 885 -22 396 -47 835 -55 975 -8 140
-15 294 -15 341 0 102 10 120 92 163 126 68 261 187 336 298 53 78 121 228
137 303 17 82 19 243 4 335 -23 141 -143 355 -262 467 -179 167 -408 254 -637
239 -362 -22 -691 -289 -792 -643 -32 -112 -32 -313 1 -428 47 -166 141 -318
271 -437 44 -40 80 -78 80 -84 0 -20 -1074 -3125 -1240 -3584 -69 -191 -72
-193 -95 -92 -26 111 -293 1605 -470 2632 -31 179 -101 582 -156 897 -54 315
-99 580 -99 591 0 12 30 38 88 77 217 146 349 342 391 579 16 90 14 282 -4
351 -19 71 -92 223 -140 291 -101 142 -288 282 -445 333 -126 40 -278 59 -345
41z m248 -474 c82 -40 180 -134 217 -210 82 -167 53 -331 -82 -472 -86 -89
-165 -128 -273 -132 -172 -8 -328 86 -405 242 -54 110 -56 242 -5 353 47 104
181 215 291 242 22 6 75 9 119 7 63 -2 92 -8 138 -30z m-2911 -524 c113 -55
204 -160 240 -275 59 -190 -43 -403 -241 -503 -51 -26 -65 -29 -162 -29 -101
0 -108 1 -180 37 -93 46 -168 122 -212 215 -29 62 -32 76 -32 168 0 91 3 106
31 165 17 36 48 84 69 108 125 143 330 191 487 114z m5834 -2 c88 -43 171
-127 215 -216 32 -64 34 -75 34 -169 0 -97 -2 -104 -38 -177 -44 -90 -125
-171 -214 -215 -53 -25 -68 -28 -163 -28 -100 0 -109 2 -175 34 -274 135 -337
469 -129 677 55 55 144 107 212 124 20 5 72 8 114 6 63 -2 89 -9 144 -36z
m-8505 -1014 c87 -19 141 -47 205 -107 120 -115 153 -319 77 -481 -55 -117
-148 -184 -293 -214 -151 -30 -289 7 -394 106 -159 151 -160 439 -2 589 63 59
118 88 200 106 80 18 127 18 207 1z m11040 0 c87 -19 141 -47 205 -107 120
-115 153 -319 77 -481 -55 -117 -148 -184 -293 -214 -151 -30 -289 7 -394 106
-159 151 -160 439 -2 589 63 59 118 88 200 106 80 18 127 18 207 1z m-5607
-283 c23 -77 462 -2565 650 -3688 95 -569 89 -524 71 -531 -33 -13 -333 167
-507 303 -115 90 -175 122 -224 123 -43 0 -136 -49 -219 -116 -101 -82 -276
-196 -399 -259 -110 -57 -133 -64 -142 -42 -3 8 22 162 55 343 33 181 121 680
196 1109 329 1889 474 2702 491 2758 3 9 9 17 14 17 5 0 11 -8 14 -17z m-2740
-370 c36 -72 287 -772 592 -1652 520 -1498 783 -2272 778 -2285 -22 -56 -333
-6 -660 106 -158 54 -188 61 -259 62 l-80 1 -130 -85 c-128 -83 -460 -260
-489 -260 -8 0 -17 8 -21 18 -3 11 6 203 20 428 14 225 34 569 45 764 32 557
58 1014 80 1410 11 201 25 435 30 520 5 85 18 331 30 545 22 415 26 455 40
455 5 0 16 -12 24 -27z m5490 -5 c3 -18 12 -168 21 -333 8 -165 20 -372 25
-460 18 -299 30 -519 60 -1050 16 -291 34 -609 40 -705 6 -96 19 -332 30 -525
11 -192 29 -492 40 -667 20 -318 19 -368 -13 -368 -32 0 -383 193 -520 286
-125 85 -162 84 -432 -6 -334 -112 -638 -160 -659 -104 -5 13 258 787 778
2285 305 880 556 1580 592 1652 19 36 32 34 38 -5z m-7820 -1199 c43 -75 1046
-2125 1323 -2704 l143 -300 -21 -17 c-33 -28 -211 -26 -439 3 -86 11 -172 17
-195 14 -46 -8 -104 -44 -267 -167 -128 -96 -164 -117 -178 -102 -4 5 -34 212
-64 459 -31 248 -96 776 -145 1175 -50 399 -102 820 -116 935 -42 341 -85 709
-85 728 0 27 21 16 44 -24z m10152 -21 c-37 -343 -310 -2543 -381 -3068 -14
-101 -29 -188 -35 -194 -10 -10 -27 1 -197 136 -179 142 -202 148 -519 124
-299 -23 -374 -21 -374 7 0 30 1443 2994 1483 3045 22 28 29 11 23 -50z
m-4964 -2798 c159 -104 390 -219 547 -271 251 -83 475 -115 740 -106 238 8
396 38 672 127 70 22 134 40 143 40 10 0 65 -28 124 -62 454 -262 932 -398
1395 -398 138 0 299 15 384 35 16 4 61 -27 195 -133 201 -161 205 -164 191
-195 -10 -21 -368 -471 -578 -725 -55 -67 -110 -124 -123 -128 -30 -8 -107 12
-364 95 -927 300 -1731 456 -2763 533 -107 8 -365 13 -695 13 -330 0 -588 -5
-695 -13 -1039 -78 -1871 -240 -2791 -543 -166 -54 -310 -99 -320 -99 -21 0
-102 94 -435 510 -268 333 -291 364 -284 383 7 17 53 57 236 203 100 79 136
103 152 99 85 -20 246 -35 384 -35 463 0 941 136 1395 398 59 34 114 62 124
62 9 0 86 -22 171 -50 311 -100 474 -125 753 -117 258 7 442 41 678 126 186
67 403 179 567 295 28 19 55 35 62 35 6 1 67 -35 135 -79z m248 -1620 c910
-41 1686 -160 2480 -379 302 -84 722 -215 727 -227 2 -6 -69 -179 -158 -383
-130 -298 -166 -372 -183 -377 -13 -3 -92 21 -196 59 -862 316 -1645 486
-2530 548 -213 15 -827 15 -1040 0 -885 -62 -1668 -232 -2530 -548 -104 -38
-183 -62 -196 -59 -17 5 -53 79 -183 377 -89 204 -160 377 -158 383 5 11 376
127 657 205 1111 308 2270 449 3310 401z m285 -1220 c470 -30 1015 -126 1515
-267 576 -161 964 -309 1024 -388 34 -44 113 -209 195 -408 58 -140 71 -187
53 -187 -5 0 -71 20 -148 44 -497 157 -1220 322 -1751 401 -538 79 -722 90
-1523 90 -783 0 -977 -10 -1485 -76 -527 -68 -1318 -247 -1864 -420 -68 -21
-127 -39 -132 -39 -19 0 -6 46 52 187 82 199 161 364 195 408 60 80 446 226
1029 390 477 134 1047 235 1490 264 181 12 1168 12 1350 1z m310 -1183 c596
-61 1354 -199 1880 -343 184 -50 475 -148 475 -160 0 -18 -331 -130 -570 -193
-207 -54 -487 -102 -695 -120 -232 -21 -1331 -32 -2620 -29 -1149 4 -1317 6
-1450 21 -460 53 -819 132 -1182 259 -79 28 -143 56 -143 62 0 12 291 110 475
160 556 152 1416 305 1940 346 219 17 256 17 1020 14 558 -2 754 -6 870 -17z"/>
</g>
</svg>
